<svg xmlns="http://www.w3.org/2000/svg" width="47.999" height="47.998" viewBox="0 0 47.999 47.998">
  <path id="rename" d="M1,25.656V24.343A6.659,6.659,0,0,1,3.163,20.99q8.92-8.875,17.8-17.794A6.7,6.7,0,0,1,24.343,1h1.312a6.624,6.624,0,0,1,3.35,2.163q8.906,8.949,17.857,17.855A6.393,6.393,0,0,1,49,24.437v1.125a1.352,1.352,0,0,0-.081.214,4.382,4.382,0,0,1-4.362,3.636H43.85v.632c0,4.637.012,9.274-.011,13.911a5.109,5.109,0,0,1-3.6,4.8c-.294.094-.594.164-.892.245H30.718A1.662,1.662,0,0,1,29.6,47.211c.022-3.574.012-7.147.008-10.721a2.369,2.369,0,0,0-2.571-2.561h-3.98a2.389,2.389,0,0,0-2.669,2.651c0,3.543-.013,7.085.008,10.628A1.662,1.662,0,0,1,19.281,49H10.656a.4.4,0,0,0-.119-.067,5.249,5.249,0,0,1-4.406-5.4c.062-4.513.016-9.028.016-13.542V29.41c-.327,0-.591.011-.853,0A4.3,4.3,0,0,1,1.491,27,10.092,10.092,0,0,1,1,25.656Z" transform="translate(-1 -1)" fill="#451a73"/>
</svg>
