<svg xmlns="http://www.w3.org/2000/svg" width="32.639" height="41.514" viewBox="0 0 32.639 41.514">
  <g id="al_quran" data-name="al quran" transform="translate(-9.972 -4)">
    <path id="Path_3232" data-name="Path 3232" d="M38.163,4H10.734a.741.741,0,0,0-.741.741c0,34.8-.119,32.811.215,33.145.5.5.526,1.386.526,3.18s0,2.684-.526,3.18a.741.741,0,0,0,.526,1.268H37.985a4.6,4.6,0,0,0,4.626-4.448V8.448A4.448,4.448,0,0,0,38.163,4ZM14.115,20.524l2.55-2.543v-3.6a.741.741,0,0,1,.741-.741h3.6l2.543-2.55a.741.741,0,0,1,1.053,0l2.543,2.55h3.6a.741.741,0,0,1,.741.741v3.6l2.543,2.543a.741.741,0,0,1,0,1.053L31.491,24.12v3.6a.741.741,0,0,1-.741.741h-3.6c-2.758,2.765-2.647,2.765-3.069,2.765s-.311,0-3.069-2.765h-3.6a.741.741,0,0,1-.741-.741v-3.6l-2.55-2.543a.741.741,0,0,1,0-1.053ZM30.75,38.1h2.965v3.077c-1.72-1.142-1.32-1.134-2.965,0ZM38.163,5.483V32.171a.741.741,0,0,1-1.483,0V5.483Zm-.178,38.549h-26a8.192,8.192,0,0,0,.222-2.224H26.3a.741.741,0,1,0,0-1.483H12.217a8.192,8.192,0,0,0-.222-2.224H29.267c0,4.767-.133,4.826.393,5.1s.741,0,2.55-1.245l1.838,1.216a.741.741,0,0,0,1.149-.623V38.1h2.965a2.965,2.965,0,0,1,2.824,2.053A3.04,3.04,0,0,1,37.985,44.032Z" fill="#451a73"/>
    <path id="Path_3233" data-name="Path 3233" d="M31.222,28.029a.741.741,0,0,0-1.075-1.016,3.277,3.277,0,1,1-2.387-5.53.741.741,0,1,0,0-1.483,4.759,4.759,0,1,0,3.462,8.029Z" transform="translate(-3.371 -4.139)" fill="#451a73"/>
    <path id="Path_3234" data-name="Path 3234" d="M29.741,24.965a.741.741,0,0,1,.741.741.741.741,0,0,0,1.483,0,.741.741,0,0,1,.741-.741.741.741,0,1,0,0-1.483.741.741,0,0,1-.741-.741.741.741,0,0,0-1.483,0,.741.741,0,0,1-.741.741.741.741,0,0,0,0,1.483Z" transform="translate(-4.922 -4.656)" fill="#451a73"/>
  </g>
</svg>
