<svg xmlns="http://www.w3.org/2000/svg" width="39.16" height="46" viewBox="0 0 39.16 46">
  <g id="Layer_x0020_1" transform="translate(-324 -2)">
    <g id="_623077472" transform="translate(324 2)">
      <path id="Path_3228" data-name="Path 3228" d="M328.8,419.169h29.516a.717.717,0,0,1,0,1.434H328.8a.717.717,0,0,1,0-1.434Zm0,5.151h29.516a.717.717,0,0,1,0,1.434H328.8a.717.717,0,0,1,0-1.434Zm0,5.151h29.516a.717.717,0,0,1,0,1.434H328.8a.717.717,0,0,1,0-1.434Zm0,5.194h29.516a.712.712,0,1,1,0,1.423H328.8a.712.712,0,1,1,0-1.423Zm7.69,5.151h21.827a.712.712,0,1,1,0,1.423H336.491a.712.712,0,0,1,0-1.423Zm0,5.151h21.827a.712.712,0,1,1,0,1.423H336.491a.712.712,0,0,1,0-1.423Zm-2.5,8.678h27.339a1.811,1.811,0,0,0,1.827-1.784V413.827A1.848,1.848,0,0,0,361.333,412h-4.992v1.827a2.151,2.151,0,0,1-2.145,2.135h-3.091a2.059,2.059,0,0,1-2.092-2.1V412H338.147v1.827a2.113,2.113,0,0,1-2.092,2.135h-3.133a2.115,2.115,0,0,1-2.1-2.1v-1.816h-5.034A1.809,1.809,0,0,0,324,413.859v29.76h6.861a3.182,3.182,0,0,1,3.165,3.176Z" transform="translate(-324 -407.645)" fill="#451a73" fill-rule="evenodd"/>
      <path id="Path_3229" data-name="Path 3229" d="M1100.845,8.893a.712.712,0,0,0,.712-.712V2.754a.773.773,0,0,0-.712-.754h-3.133a.742.742,0,0,0-.712.754V8.182a.712.712,0,0,0,.712.712Z" transform="translate(-1088.79 -2)" fill="#451a73" fill-rule="evenodd"/>
      <path id="Path_3230" data-name="Path 3230" d="M2805,2.754V8.182a.689.689,0,0,0,.722.712h3.091a.713.713,0,0,0,.743-.712V2.754a.769.769,0,0,0-.743-.754h-3.091A.724.724,0,0,0,2805,2.754Z" transform="translate(-2778.649 -2)" fill="#451a73" fill-rule="evenodd"/>
      <path id="Path_3231" data-name="Path 3231" d="M428.615,3521.785a1.775,1.775,0,0,0-1.784-1.784H421l7.583,7.615Z" transform="translate(-419.97 -3482.635)" fill="#451a73" fill-rule="evenodd"/>
    </g>
  </g>
</svg>
