<svg xmlns="http://www.w3.org/2000/svg" width="469.999" height="105.716" viewBox="0 0 469.999 105.716">
  <g id="Group_933" data-name="Group 933" transform="translate(4319.031 -4280.766)">
    <path id="Path_1867" data-name="Path 1867" d="M208.385,228.246c1.325,1.948,2.424,3.749,3.7,5.4a6.846,6.846,0,0,0,9.028,1.94,3.038,3.038,0,0,0,1.823-3.412c-1.069-7.322-1.977-14.644-3.083-21.922-1.2-7.922-2.365-15.852-3.932-23.7-.505-2.511,0-4.444,1.113-7.015,1.977,4.357,4.752,7.864,5.96,12.125l-.469.308-2.738-2.255c.205,1.823.315,3.17.513,4.51,1.53,10.148,3.127,20.289,4.613,30.445a21.449,21.449,0,0,1-1.186,11.818c-1.97,4.547-3.991,5.7-8.889,5.228l-1.611-.132c0,2.585.051,5.023,0,7.461a8.376,8.376,0,0,1-2.694,5.762c-4.942,5.067-10.082,9.855-16.921,12.242a23.707,23.707,0,0,1-6.172,1.223c-4.5.3-8.311-2.987-9.768-8.054-1.3-4.488-.615-8.948.3-13.355.674-3.222,1.647-6.377,2.6-10a21.04,21.04,0,0,0-2.1,1.516c-6.634,6.282-13.121,12.726-19.923,18.825a81.1,81.1,0,0,1-12.989,9.973c-8.274,4.869-16.357-.154-16.562-9.8-.1-4.459,1.172-8.6,2.687-12.7.337-.908.732-1.8,1.128-2.863l-5.5-.351V247.9a8.391,8.391,0,0,1-2.929,6.473c-4.73,4.335-9.423,8.713-15.274,11.488a21.607,21.607,0,0,1-7,2.057c-5.477.535-9.021-2.27-10.536-7.586-1.223-4.291-.615-8.486.308-12.7,1.23-5.638,2.533-11.269,1.823-17.112-.1-.835-.271-1.662-.351-2.5-.117-1.311-.857-1.9-1.955-2.651a46.3,46.3,0,0,1-7.249-5.975c-4.327-4.481-5.184-4.569-8.611.571-1.6,2.387-2.929,4.964-4.327,7.476-.439.783-.732,1.647-1.157,2.57,6.29,4.1,7.051,10.449,7.373,17.009-4.247.959-10.617-4.466-11.825-9.841a9.065,9.065,0,0,0-6.465,12.447c3.3,8.054,6.7,16.108,9.812,24.214a21.454,21.454,0,0,1,1.56,10.859c-1.128-3.1-2.131-6.275-3.412-9.314-2.929-6.861-6.077-13.6-8.882-20.5-1.852-4.554-2.782-9.328-.732-14.153,1.464-3.529,4.086-6.158,6.934-8.633a14.116,14.116,0,0,0,3.031-3.888c3.134-5.762,6.495-11.364,11.32-15.9,3.1-2.929,4.108-2.79,7.022.183.857.879,1.677,1.794,2.76,2.929a36.609,36.609,0,0,1,0-3.851,9.907,9.907,0,0,1,11.759-8.735,70.2,70.2,0,0,1,9.577,2.482,65.8,65.8,0,0,0,18.378,3.661c-2.2,2.731-2.651,6.136-6.707,7.322-4.935,1.464-9.519,4.071-14.271,6.231-4.247,1.94-8.567,3.559-13.268,3.6-.11.176-.256.307-.234.388,2.131,7.791,1.157,15.479-.732,23.138a8.273,8.273,0,0,0-.315,1.655c-.264,7.154,2.856,12.448,11.8,10.471,4.6-1,8.413-3.507,11.92-6.473,2.79-2.358,5.345-4.994,8.127-7.366a2.394,2.394,0,0,0,.805-3.119c-1.076-2.519-1.9-5.206-3.368-7.476-2.109-3.258-1.464-6.121.4-9.262,1.208,1.779,2.3,3.551,3.551,5.2,2.468,3.236,5.748,4.034,8.9,2.35a3.436,3.436,0,0,0,2.087-3.91c-1.106-7.439-2.094-14.893-3.2-22.332s-2.153-15.032-3.61-22.471a9.687,9.687,0,0,1,1.076-7.322c1.852,4.152,4.562,7.666,5.718,11.891l-.571.322-2.57-2.321c.286,2.387.461,4.21.732,6.026,1.464,9.592,3.127,19.154,4.305,28.776a35.46,35.46,0,0,1-.578,10.859c-.373,1.933-2.2,3.6-3.39,5.36-.344.505-1.047.864-1.193,1.4-1.054,3.764-2.585,7.512-2.863,11.349-.513,7,6.041,11.5,12.374,8.479a45.4,45.4,0,0,0,10.251-7.2c6.3-5.6,12.169-11.715,18.452-17.317,3.28-2.929,7.051-5.338,10.793-8.12-1.384-1.062-2.819-2.131-4.225-3.236-3.068-2.424-5.169-5.352-4.957-9.519.205-3.925,2.277-6.509,6.209-6.685a67.507,67.507,0,0,1,13.231.52c7.608,1.186,15.135,2.929,23.284,4.562-2.424,3.434-3.207,6.861-7.256,8.208-6.238,2.072-12.242,4.876-18.305,7.322l3.251,12.7c-3.053.1-5.616-.066-7.586-2.123s-.8-4.8-.732-7.461c-2.123,1.054-3.961,1.955-4.437,4.488-.732,3.859-1.845,7.652-2.453,11.525a19.139,19.139,0,0,0,.242,6.268c.783,4.3,3.661,6.517,8.054,6.59a17.149,17.149,0,0,0,10.617-3.58c4.591-3.449,8.882-7.322,13.18-11.1a2.7,2.7,0,0,0,.535-2.38,32.744,32.744,0,0,0-3.148-7.322C206.02,234.66,206.467,231.644,208.385,228.246Zm-92.1-14.834-7.11-2.05a47.1,47.1,0,0,0-6.48-1.794,33.855,33.855,0,0,0-8.318-.22c-2.585.307-3.771,2.2-3.837,4.789-.124,4.825,2.16,6.8,6.985,6.1C104.083,219.3,109.713,215.887,116.281,213.412Zm88,6.114c-9.292-3.529-18.678-4.8-28.417-2.753a11.511,11.511,0,0,0,2.446,2.716c2.2,1.845,4.584,3.515,6.641,5.513,1.6,1.552,2.929,1.977,4.869.622a18.056,18.056,0,0,1,3.624-1.669c3.6-1.494,7.227-2.958,10.837-4.43Z" transform="translate(-4374.803 4101.79)" fill="#010c41"/>
    <path id="Path_1868" data-name="Path 1868" d="M575.584,224.72l6.7,6.934-.5.622-2.929-.945L580,233.485c2.709,5.067,5.77,9.98,8.054,15.237,2.072,4.811.791,9.423-3.017,13.128-2.724,2.651-6.048,2.3-8.3-.791a30.607,30.607,0,0,1-1.706-2.929c-1.223,2.892-2.387,5.8-6.246,5.455-2.8-.249-3.734-2.394-4.664-4.825-1.86,3.91-4.745,6.063-8.992,6.136-3.947.066-5.689-1.677-5.616-5.631v-1.86c-4.781,1.333-9.4,2.7-14.066,3.91a321.193,321.193,0,0,1-47.879,8.669,306.339,306.339,0,0,1-44.869,1.464c-18.8-.842-37.416-3.031-55.516-8.464-3.4-1.025-6.692-2.438-10.214-3.742l-.732,9.131c-2.929-1.728-4.854-3.778-5.426-6.89-.176-.966-.2-1.955-.315-2.929-.454-3.932-3.573-5.47-6.868-3.17a37.14,37.14,0,0,0-5.653,5.023c-2.7,2.863-5.125,6-7.835,8.83a35.2,35.2,0,0,1-6.085,5.169c-4.071,2.636-8.054,1.12-9.358-3.588a29.256,29.256,0,0,1-.542-6.853,15.108,15.108,0,0,1,.461-2.878c-6.663,1.377-9.138-1.054-11.627-7.454-.264,1.1-.447,2.2-.791,3.251a8.812,8.812,0,0,1-10.3,6.319,5.8,5.8,0,0,1-4.291-3.4,15.1,15.1,0,0,1-1.538-9.167c.293-2.3.615-4.6.893-6.9a14.638,14.638,0,0,0,0-1.743l-.805-.154c-.82,2.636-1.757,5.235-2.431,7.908-.732,2.995-1.252,6.048-1.911,9.065a6.886,6.886,0,0,1-.791,1.948c-1.538,2.651-4.159,2.929-5.616.249a20.92,20.92,0,0,1-2.724-7.849c-.337-3.807.234-7.7.439-11.554a5.446,5.446,0,0,1,.461-1.208c0,2.468-.11,4.525,0,6.59a59.216,59.216,0,0,0,.879,6.868,5.858,5.858,0,0,0,1.355,2.555c1.464,1.669,3.361,1.464,4.108-.593,1.215-3.361,1.97-6.89,3.163-10.251a69.457,69.457,0,0,1,3.368-7.439,30.074,30.074,0,0,1,2.087-3.178l1.208.732c-.256,2.929-.578,5.858-.732,8.786a49.543,49.543,0,0,0-.212,8.391c.425,3.8,3.258,5.323,6.912,4.166a8.64,8.64,0,0,0,5.924-10.053c-.534-2.76-.879-5.565-1.538-8.289a9.437,9.437,0,0,1,1.369-7.542,35.244,35.244,0,0,1,1.655,4.884c.681,3.8,1,7.673,1.772,11.452a19.771,19.771,0,0,0,2.284,5.821A5.444,5.444,0,0,0,333,255.9c3.112-.381,3.932-1.948,2.856-4.789-1.992-5.228-3.954-10.478-5.609-15.823-.447-1.464.256-3.266.425-4.913l.608-.161,4.913,7.813-.542.4-2.116-1.054,2.614,5.909c1.6,3.661,2.929,7.4,2.2,11.43a16.43,16.43,0,0,1-2.2,5.308c-1,1.677-1.6,6.436-.637,8.135a4.1,4.1,0,0,0,5.367,1.508,26.079,26.079,0,0,0,6.1-4.393c2.863-2.885,5.345-6.151,8.054-9.2a48.06,48.06,0,0,1,4.144-4.2c4.393-3.851,5.784-4.049,11.071-1.75l1.721-3.229c8.369,7.41,18.81,9.724,29.127,12.045,25.8,5.814,51.986,6.868,78.251,5.045a388.8,388.8,0,0,0,70.665-11.525,13.659,13.659,0,0,1,1.523-.249c0,1.384-.073,2.695,0,3.991.176,2.46,1.464,3.514,3.932,3.251a12.586,12.586,0,0,0,7.424-3.661c1.3-1.237,2.651-2.424,4.2-3.837.066,1.3-.139,2.372.22,3.192.469,1.069,1.237,2.519,2.138,2.738a4.283,4.283,0,0,0,3.427-1.186,37.064,37.064,0,0,0,3.661-5.125c.234-.344.417-.732.622-1.1l.644.337c-.088.688-.168,1.377-.278,2.065-.286,1.8-.33,3.58,1.333,4.8a6.59,6.59,0,0,0,6.055.791c1.538-.476,1.743-2.006,1.259-3.368-.959-2.709-1.948-5.418-3.17-8.018-2.636-5.587-5.587-11.034-8.054-16.694-.674-1.538-.1-3.61-.1-5.44Zm-203,31.17-.688.264,2.292,5.323C376.4,258.1,373.708,257.332,372.587,255.89Z" transform="translate(-4438.071 4089.69)" fill="#010c41"/>
    <path id="Path_1869" data-name="Path 1869" d="M355.677,180.06c2.431,3.917,4.9,7.556,6.282,11.715l-.535.381-2.8-2.621c.22,1.64.344,2.7.505,3.756,1.669,10.9,3.6,21.776,4.891,32.729.527,4.525-.315,9.218-.593,13.824a2.526,2.526,0,0,1-.988,1.757c-.161-2.973-.11-5.975-.513-8.918q-2.35-16.9-4.95-33.777c-.732-4.715-1.787-9.387-2.372-14.117C354.418,183.3,355.289,181.649,355.677,180.06Z" transform="translate(-4454.674 4101.65)" fill="#010c41"/>
    <path id="Path_1870" data-name="Path 1870" d="M297.114,242.024c-.256-4.393-.22-8.442-.783-12.448-1.677-11.957-3.566-23.884-5.433-35.819-.469-2.973-1.362-5.858-1.655-8.874-.154-1.552.586-3.185,1.245-4.833,2.145,3.91,4.752,7.5,5.989,11.715l-.542.373-1.728-2.533-.666.41a14.279,14.279,0,0,0,0,2.116c1.464,9.519,2.848,19.037,4.393,28.556,1.032,6.414,1.8,12.8.227,19.228a11.977,11.977,0,0,1-.432,1.406C297.7,241.519,297.509,241.621,297.114,242.024Z" transform="translate(-4437.172 4101.653)" fill="#010c41"/>
    <path id="Path_1871" data-name="Path 1871" d="M173.356,179.73c1.911,4.174,4.481,7.754,5.762,11.92l-.513.308-2.673-2.446c.256,2.145.388,3.7.622,5.243,1.574,10.251,3.441,20.5,4.642,30.848.542,4.664-.205,9.519-.417,14.234a9.255,9.255,0,0,1-.674,2.123c-.308-.344-.542-.483-.535-.615.388-10.639-2.006-20.963-3.507-31.39-1.12-7.783-2.277-15.574-3.815-23.284A9.3,9.3,0,0,1,173.356,179.73Z" transform="translate(-4405.782 4101.739)" fill="#010c41"/>
    <path id="Path_1872" data-name="Path 1872" d="M124.739,255.921c-1.889-1.076-3.661-.637-5.609.615.271-2.46,1.464-3.983,3.419-4.335a16.694,16.694,0,0,1,9.182,1.2c-1.992,1.464-3.617,2.621-5.221,3.807a53.775,53.775,0,0,0-5.858,4.444c-2,1.992-1.164,4.093,1.589,4.8,4.342,1.113,7.5-.813,10.141-3.983.893-1.069,1.669-2.2,2.68-3.6-.871,3.756-4.3,8.457-7.278,10.134a10.75,10.75,0,0,1-2.131.9c-2.848.871-5.755.205-6.963-1.552a6.294,6.294,0,0,1,.732-7.285,68.428,68.428,0,0,1,5.316-5.155Z" transform="translate(-4391.278 4082.389)" fill="#010c41"/>
    <path id="Path_1873" data-name="Path 1873" d="M619.643,281.359l2.131,2.343c.593-.674,1.216-1.325,1.757-2.035a11.077,11.077,0,0,0,.82-1.567c.674,2.848-.059,5.916-1.735,6.363-1.15.3-2.548-.351-4.174-.637-2.5,3.1-7.322,3.859-8.054-.557-9.8,4.818-19.616,9.438-30.958,8.428,12.074-.1,21.747-6.817,31.6-11.51,1.032,1.3,1.611,2.782,2.526,3.024a4.159,4.159,0,0,0,5-2.16A15.585,15.585,0,0,1,619.643,281.359Z" transform="translate(-4514.889 4074.86)" fill="#010c41"/>
    <path id="Path_1874" data-name="Path 1874" d="M337.2,178.77l-3.251,7.608-.5-.183,1.384-4.693a93.67,93.67,0,0,0-34.252,18.7l-.505-.359c.505-1.062.776-2.365,1.56-3.156C308.127,190.083,327.259,180.359,337.2,178.77Z" transform="translate(-4440.081 4101.996)" fill="#010c41"/>
    <path id="Path_1875" data-name="Path 1875" d="M257.621,183.712l-3.119,7.227-.491-.2,1.215-4.393a81.275,81.275,0,0,0-30.357,17.28l-.52-.388c.586-1.12.923-2.5,1.794-3.31a71.189,71.189,0,0,1,30.167-16.211A8.909,8.909,0,0,1,257.621,183.712Z" transform="translate(-4419.8 4100.678)" fill="#010c41"/>
    <path id="Path_1876" data-name="Path 1876" d="M263.25,292.692c6.927-2.3,13.963-4.305,19.154-9.9-1.721-2.24-1.662-3.368.073-5.44a16.3,16.3,0,0,0,1.347-2.262c1.6.476,4.723,4.1,4.847,5.814.161,2.2-1.142,3.427-3.273,2.7-1.464-.491-2.079-.088-2.878,1.062-3.859,5.55-9.57,7.534-15.991,8.01C265.447,292.758,264.348,292.692,263.25,292.692Z" transform="translate(-4430.217 4076.201)" fill="#010c41"/>
    <path id="Path_1877" data-name="Path 1877" d="M381.311,224.747c.351-1.823,1.237-3.969,2.995-4.452,2.782-.732,4.327,2.014,6.48,3.4-.908,2.314-1.823,4.349-4.657,4.518a7.323,7.323,0,0,0-1.816.513c-3.214,1.091-3.493,1.787-2.98,5.06.6,3.859.945,7.761,1.4,11.649l-.571.073c-.879-4.591-1.882-9.16-2.592-13.78-.513-3.353.315-4.474,3.463-5.858.732-.3,1.384-.644,2.072-.966l-.124-.637Z" transform="translate(-4461.329 4090.908)" fill="#010c41"/>
    <path id="Path_1878" data-name="Path 1878" d="M83.577,303.287c-.8-4.027-1.669-8.054-2.38-12.1-.842-4.84-.315-5.7,4.188-7.732.373-.168.732-.359,1.113-.542l-.117-.732-3.6.505a5.858,5.858,0,0,1,2.695-4.393c.688-.447,2.35.234,3.375.769a23.032,23.032,0,0,1,3.317,2.636c-.827,2.57-2.123,4.357-4.9,4.6a6.955,6.955,0,0,0-1.626.417c-3.112,1.076-3.368,1.7-2.929,4.906.571,3.851.93,7.739,1.384,11.613Z" transform="translate(-4381.375 4075.381)" fill="#010c41"/>
    <path id="Path_1879" data-name="Path 1879" d="M84.73,252,87.2,246.73l5.638,2.892-2.057,4.5,5.177,2.79-2.643,5.272-5.528-2.929,1.984-4.576Z" transform="translate(-4382.41 4083.796)" fill="#010c41"/>
    <path id="Path_1880" data-name="Path 1880" d="M319.26,290.954c.527-2.145.981-4.342,1.618-6.487a10.25,10.25,0,0,1,1.552-3.185,2.658,2.658,0,0,1,2.043-1.062,2.372,2.372,0,0,1,1.4,1.765,28.643,28.643,0,0,1-.358,4.516c-3.171-1.1-3.771-.869-4.525,2.016-.615,2.358-.908,4.8-1.464,7.666l-2.709-5.243c-1.6.11-3.17.681-3.983.139s-1.223-2.2-1.281-3.4a2.782,2.782,0,0,1,1.464-2.241,3.5,3.5,0,0,1,2.987.63A35.265,35.265,0,0,1,319.26,290.954Z" transform="translate(-4443.152 4074.828)" fill="#010c41"/>
    <path id="Path_1881" data-name="Path 1881" d="M660.049,213.318c.557-2.233,1.01-4.488,1.7-6.663a11.22,11.22,0,0,1,1.808-3.515c1.142-1.464,2.775-1.091,3.031.732a24.916,24.916,0,0,1-.263,4.957c-2.929-1.281-3.661-1.1-4.393,1.464s-1.069,5.125-1.648,8.054l-2.929-5.9c-1.318,1.464-2.673,1.933-4.115.7-1.076-.923-1.164-3.712-.242-4.928s3.134-1.186,4.349.454a46.238,46.238,0,0,1,2.7,4.649Z" transform="translate(-4534.421 4095.711)" fill="#010c41"/>
    <path id="Path_1882" data-name="Path 1882" d="M382.331,211.386l-3.046-5.74c-1.7,1.552-3.244,1.713-4.291.564s-.952-4.071.212-5.081c1.464-1.252,2.775-.637,3.881.513a12.739,12.739,0,0,1,1.662,2.416c.454.732.791,1.6,1.223,2.475.805-2.812,1.464-5.506,2.365-8.12.483-1.413,1.12-3.075,3.134-2.812,1.15.154,1.721,2.57,1.15,4.5a14.349,14.349,0,0,1-.732,1.691c-2.6-1.091-3.185-.908-3.939,1.787C383.268,206.034,382.9,208.575,382.331,211.386Z" transform="translate(-4459.947 4097.497)" fill="#010c41"/>
    <path id="Path_1883" data-name="Path 1883" d="M193.961,204.8l-2.6-5.243c-1.6.081-3.192.63-3.983.066s-1.1-2.263-1.1-3.456a2.834,2.834,0,0,1,1.464-2.2,2.929,2.929,0,0,1,2.621.644,44.562,44.562,0,0,1,3.361,4.913c.469-1.852.827-3.793,1.464-5.638a15.678,15.678,0,0,1,2.1-4.305c1.113-1.464,2.753-1.069,3,.732a24.011,24.011,0,0,1-.278,4.752c-3.061-1.223-3.661-1.018-4.393,1.706C195.008,199.306,194.591,201.847,193.961,204.8Z" transform="translate(-4409.604 4099.34)" fill="#010c41"/>
    <path id="Path_1884" data-name="Path 1884" d="M321.764,217.975c-.044.059-.227.637-.615.827a4.737,4.737,0,0,1-2.607.813,2.834,2.834,0,0,1-1.64-1.867,25,25,0,0,1-.359-4.291l-1.01.9-.483-.315,2.636-4.152.63.154a23.975,23.975,0,0,0,.073,4.247c.124.666,1.04,1.193,1.6,1.787.469-.674,1.194-1.3,1.34-2.028a17.868,17.868,0,0,0-.264-2.695,26.91,26.91,0,0,1,.242-2.856l.827-.051c.249,1.025.513,2.05.732,3.083a9.582,9.582,0,0,0,.491,2.446c.256.476,1.069.659,1.633.974.271-.549.776-1.106.732-1.655,0-.813-.557-1.618-.586-2.438a25.278,25.278,0,0,1,.286-3.368h.945a54.678,54.678,0,0,1,.945,7.183,4.847,4.847,0,0,1-1.56,3.566C325.052,218.81,323.434,218.114,321.764,217.975Z" transform="translate(-4444.089 4094.305)" fill="#010c41"/>
    <path id="Path_1885" data-name="Path 1885" d="M136.978,191.377a24.821,24.821,0,0,0,.073,4.313c.124.688,1.032,1.23,1.589,1.838a8.392,8.392,0,0,0,1.464-2.2c.2-.783-.337-1.779-.359-2.68a18.449,18.449,0,0,1,.293-2.665l.849-.066.805,3.661a6.084,6.084,0,0,0,.491,2.006,1.809,1.809,0,0,0,1.523.688c.351-.081.732-.923.732-1.413,0-.893-.483-1.772-.527-2.673a7.556,7.556,0,0,1,.556-3.2,13.912,13.912,0,0,1,1.406,8.991c-.439,2.328-2.2,2.636-5.067,1-.3.425-.52,1.04-.937,1.267-.82.432-1.867,1.032-2.6.82a3.163,3.163,0,0,1-1.691-2.087,18.708,18.708,0,0,1-.073-4.049l-1.362.776-.425-.359,2.8-4.1Z" transform="translate(-4395.529 4099.259)" fill="#010c41"/>
    <path id="Path_1886" data-name="Path 1886" d="M256,198.59a67.734,67.734,0,0,1,.893,7.556,4.6,4.6,0,0,1-1.428,3.412c-.879.6-2.35-.044-3.573-.124l-.059-.556c-.329.439-.571,1.047-1.01,1.267a4.578,4.578,0,0,1-2.621.776,2.826,2.826,0,0,1-1.64-1.86,24.781,24.781,0,0,1-.366-4.239l-.952.732-.388-.286,2.607-3.961.5.146a20.244,20.244,0,0,0,.073,4.086c.154.732,1.084,1.325,1.662,1.984a7.531,7.531,0,0,0,1.289-2.27c.146-.805-.337-1.787-.337-2.687a18.581,18.581,0,0,1,.4-2.79h.827a34.956,34.956,0,0,0,.908,4.65c.242.732,1.128,1.3,1.721,1.933a7.411,7.411,0,0,0,.666-2.284C255.111,202.368,253.873,200.611,256,198.59Z" transform="translate(-4425.292 4096.688)" fill="#010c41"/>
    <path id="Path_1887" data-name="Path 1887" d="M384.227,283.048c-3.068,5.448-7.534,10.251-15.157,10.983,2.738-1.882,5.418-3.661,8-5.521a25.173,25.173,0,0,0,8.01-9.079c.41-.827,1.413-1.355,2.138-2.021.542.674,1.413,1.289,1.56,2.043.22,1.142.351,3.024-.249,3.419C387.639,283.48,386.072,283.048,384.227,283.048Z" transform="translate(-4458.556 4075.58)" fill="#010c41"/>
    <path id="Path_1888" data-name="Path 1888" d="M246.1,263.5c-3.493,6.143-7.842,10.983-15.53,11.715,2.57-1.743,5.008-3.3,7.322-4.994a26.126,26.126,0,0,0,8.633-9.621c.461-.937.842-2.519,2.533-1.779,1.208.527,2.05,3.764,1.347,4.95-.835,1.413-1.97,1-3.1.417Z" transform="translate(-4421.466 4080.61)" fill="#010c41"/>
    <path id="Path_1889" data-name="Path 1889" d="M60.344,228.346l-4.774,1.106c0-3.207,1.3-4.957,4.291-5.638,1.757-.4,3.544-.644,5.367-.974a13.417,13.417,0,0,1-9.453,11.613l5.184-5.287Z" transform="translate(-4374.601 4090.194)" fill="#010c41"/>
    <path id="Path_1890" data-name="Path 1890" d="M192.7,230.7l5.323-5.513-.505-.732-4.957,1.12c.373-5.074,2.409-5.894,9.475-6.356C202.555,223.416,198.33,228.578,192.7,230.7Z" transform="translate(-4411.287 4091.163)" fill="#010c41"/>
    <path id="Path_1891" data-name="Path 1891" d="M79.224,196.5c.1,2.321,1.516,3.617,2.973,5.052,1.618,1.589,1.237,6-.6,7.256a4.269,4.269,0,0,1-3.295.505,3.236,3.236,0,0,1-1.911-2.358,26.793,26.793,0,0,1,1-6.326,27.746,27.746,0,0,1,1.83-4.13Zm2.885,8.618c-1.267-1.069-2.365-2.5-4.225-1.779-.381.146-.637,1.713-.329,2.314.6,1.179,2.834.879,4.554-.542Z" transform="translate(-4380.177 4097.248)" fill="#010c41"/>
    <path id="Path_1892" data-name="Path 1892" d="M662.958,232.183c-.461,2.131.564,3.368,2.057,4.635,1.816,1.538,1.464,5.858-.249,7.505a3.207,3.207,0,0,1-5.345-1.508,5.808,5.808,0,0,1,0-2.929c.813-2.636,1.838-5.206,2.775-7.805Zm2.087,8.457c-1.984-1.992-3.661-2.629-4.254-1.6a2.643,2.643,0,0,0,0,2.358C661.537,242.47,663.646,242.031,665.045,240.639Z" transform="translate(-4536.261 4087.719)" fill="#010c41"/>
    <path id="Path_1893" data-name="Path 1893" d="M196.811,243.13l5.557,2.929-2.46,5.243-5.719-2.885Z" transform="translate(-4411.723 4084.76)" fill="#010c41"/>
    <path id="Path_1894" data-name="Path 1894" d="M684.59,291.458l-5.55-2.929,2.482-5.279,5.543,2.929Z" transform="translate(-4541.564 4074.016)" fill="#010c41"/>
    <path id="Path_1895" data-name="Path 1895" d="M172.107,265.49c-.615,2.065-1.362,4.1-1.772,6.2-.176.893.073,2.409.659,2.768s1.9-.227,2.987-.417c-.2,1.34-.373,2.965-2.057,3.771a2.812,2.812,0,0,1-4.115-2.636C167.706,271.282,169.742,268.287,172.107,265.49Z" transform="translate(-4404.657 4078.772)" fill="#010c41"/>
    <path id="Path_1896" data-name="Path 1896" d="M337.212,198.87c4.3,3.354,5.711,10.983,2.929,17.7v-4.745a14.366,14.366,0,0,0-2.848-8.6c-.732-1.04-.513-2.79-.732-4.21Z" transform="translate(-4449.85 4096.613)" fill="#010c41"/>
    <path id="Path_1897" data-name="Path 1897" d="M209.688,284.62a59.094,59.094,0,0,0-1.9,6.151,3.771,3.771,0,0,0,.732,2.929c.381.4,1.8-.183,2.929-.359-.22.732-.242,1.97-.879,2.519a5.338,5.338,0,0,1-3.266,1.172c-1.464,0-2.094-1.252-2.1-2.665C205.185,290.456,207.25,287.4,209.688,284.62Z" transform="translate(-4414.671 4073.65)" fill="#010c41"/>
    <path id="Path_1898" data-name="Path 1898" d="M215.732,184.68c4.393,4.027,5.638,11.539,2.929,17.734a35.458,35.458,0,0,0-.066-5.909c-.388-2.087-.842-4.393-2.057-6.026C215.095,188.575,215.16,186.869,215.732,184.68Z" transform="translate(-4417.391 4100.413)" fill="#010c41"/>
    <path id="Path_1901" data-name="Path 1901" d="M401.6,267.29c1.12,1.464,3.815,2.2,1.6,5.579l-2.292-5.323Z" transform="translate(-4467.082 4078.29)" fill="#010c41"/>
    <path id="Path_1902" data-name="Path 1902" d="M82.482,207.537c-1.728,1.42-3.954,1.713-4.562.527-.308-.593-.051-2.2.329-2.314C80.139,205.04,81.222,206.468,82.482,207.537Z" transform="translate(-4380.55 4094.822)" fill="#010c41"/>
    <path id="Path_1903" data-name="Path 1903" d="M665.5,243c-1.4,1.391-3.507,1.838-4.283.732a2.643,2.643,0,0,1,0-2.358C661.856,240.364,663.518,240.972,665.5,243Z" transform="translate(-4536.718 4085.359)" fill="#010c41"/>
  </g>
</svg>
