<svg xmlns="http://www.w3.org/2000/svg" xmlns:xlink="http://www.w3.org/1999/xlink" width="1042.311" height="1042.311" viewBox="0 0 1042.311 1042.311">
  <defs>
    <clipPath id="clip-path">
      <circle id="Ellipse_27" data-name="Ellipse 27" cx="520.655" cy="520.655" r="520.655" fill="none"/>
    </clipPath>
    <linearGradient id="linear-gradient" x1="15.372" y1="11.753" x2="0.862" y2="0.773" gradientUnits="objectBoundingBox">
      <stop offset="0.09" stop-color="#f7f0e2"/>
      <stop offset="0.99" stop-color="#c2b59b"/>
    </linearGradient>
    <linearGradient id="linear-gradient-2" x1="7.2" y1="7.517" x2="-3.453" y2="-3.673" xlink:href="#linear-gradient"/>
    <linearGradient id="linear-gradient-3" x1="7.21" y1="7.276" x2="-4.496" y2="-4.541" xlink:href="#linear-gradient"/>
    <linearGradient id="linear-gradient-4" x1="2.169" y1="2.865" x2="-7.588" y2="-10.869" xlink:href="#linear-gradient"/>
    <linearGradient id="linear-gradient-5" x1="1.702" y1="2.236" x2="-8.225" y2="-12.087" xlink:href="#linear-gradient"/>
    <linearGradient id="linear-gradient-6" x1="-1.864" y1="-3.739" x2="-11.368" y2="-20.59" xlink:href="#linear-gradient"/>
    <linearGradient id="linear-gradient-7" x1="-2.263" y1="-4.353" x2="-11.77" y2="-21.038" xlink:href="#linear-gradient"/>
    <linearGradient id="linear-gradient-8" x1="-4.101" y1="-6.148" x2="-13.257" y2="-19.569" xlink:href="#linear-gradient"/>
    <linearGradient id="linear-gradient-9" x1="-4.066" y1="-5.522" x2="-12.895" y2="-17.25" xlink:href="#linear-gradient"/>
    <linearGradient id="linear-gradient-10" x1="-5.032" y1="-6.584" x2="-15.389" y2="-19.843" xlink:href="#linear-gradient"/>
    <linearGradient id="linear-gradient-11" x1="-4.999" y1="-5.267" x2="-15.373" y2="-15.947" xlink:href="#linear-gradient"/>
    <linearGradient id="linear-gradient-12" x1="-5.514" y1="-5.01" x2="-16.897" y2="-15.37" xlink:href="#linear-gradient"/>
    <linearGradient id="linear-gradient-13" x1="-6.039" y1="-5.327" x2="-18.765" y2="-16.672" xlink:href="#linear-gradient"/>
    <linearGradient id="linear-gradient-14" x1="-5.286" y1="-3.649" x2="-21.4" y2="-14.822" xlink:href="#linear-gradient"/>
    <linearGradient id="linear-gradient-15" x1="-4.336" y1="-3.168" x2="-18.889" y2="-14.155" xlink:href="#linear-gradient"/>
    <linearGradient id="linear-gradient-16" x1="-3.776" y1="-2.753" x2="-18.213" y2="-13.743" xlink:href="#linear-gradient"/>
    <linearGradient id="linear-gradient-17" x1="0.465" y1="0.51" x2="-10.255" y2="-9.688" xlink:href="#linear-gradient"/>
    <linearGradient id="linear-gradient-18" x1="1.031" y1="1.076" x2="-10.466" y2="-9.502" xlink:href="#linear-gradient"/>
    <linearGradient id="linear-gradient-19" x1="1.713" y1="1.72" x2="-9.997" y2="-10.081" xlink:href="#linear-gradient"/>
    <linearGradient id="linear-gradient-20" x1="4.436" y1="5.256" x2="-4.682" y2="-5.547" xlink:href="#linear-gradient"/>
    <linearGradient id="linear-gradient-21" x1="5.694" y1="8.399" x2="-4.672" y2="-7.419" xlink:href="#linear-gradient"/>
    <linearGradient id="linear-gradient-22" x1="5.927" y1="8.247" x2="-4.027" y2="-5.966" xlink:href="#linear-gradient"/>
    <linearGradient id="linear-gradient-23" x1="8.98" y1="14.303" x2="-0.55" y2="-1.322" xlink:href="#linear-gradient"/>
    <linearGradient id="linear-gradient-24" x1="9.579" y1="16.361" x2="-0.277" y2="-0.623" xlink:href="#linear-gradient"/>
    <linearGradient id="linear-gradient-25" x1="9.708" y1="16.659" x2="0.199" y2="-0.026" xlink:href="#linear-gradient"/>
    <linearGradient id="linear-gradient-26" x1="11.834" y1="15.155" x2="2.185" y2="2.658" xlink:href="#linear-gradient"/>
    <linearGradient id="linear-gradient-27" x1="12.572" y1="16.931" x2="2.453" y2="3.162" xlink:href="#linear-gradient"/>
    <linearGradient id="linear-gradient-28" x1="12.908" y1="16.686" x2="2.636" y2="3.289" xlink:href="#linear-gradient"/>
    <linearGradient id="linear-gradient-29" x1="13.402" y1="14.227" x2="2.878" y2="3.042" xlink:href="#linear-gradient"/>
    <linearGradient id="linear-gradient-30" x1="13.607" y1="14.063" x2="2.838" y2="2.936" xlink:href="#linear-gradient"/>
    <linearGradient id="linear-gradient-31" x1="15.48" y1="14.314" x2="3.059" y2="2.857" xlink:href="#linear-gradient"/>
  </defs>
  <g id="Layer_1" data-name="Layer 1" transform="translate(0.5 0.5)">
    <g id="Group_46" data-name="Group 46" clip-path="url(#clip-path)">
      <g id="bg" transform="translate(-222.846 -801.749)">
        <rect id="Rectangle_8" data-name="Rectangle 8" width="1487.002" height="2644.808" transform="translate(0)" fill="#411354"/>
      </g>
    </g>
    <g id="Group_48" data-name="Group 48" opacity="0.53">
      <circle id="Ellipse_28" data-name="Ellipse 28" cx="520.655" cy="520.655" r="520.655" fill="none" stroke="#fff" stroke-miterlimit="10" stroke-width="1"/>
      <g id="_5" data-name="5" transform="translate(42.534 42.223)">
        <rect id="Rectangle_22" data-name="Rectangle 22" width="4.794" height="52.266" transform="translate(473.803 47.473)" fill="#f7f0e2"/>
        <rect id="Rectangle_23" data-name="Rectangle 23" width="8.957" height="56.429" transform="translate(471.726 45.386)" fill="#f7f0e2"/>
        <rect id="Rectangle_24" data-name="Rectangle 24" width="1.963" height="49.446" transform="translate(475.229 48.878)" fill="#f7f0e2"/>
        <rect id="Rectangle_25" data-name="Rectangle 25" width="4.794" height="52.266" transform="translate(399.827 54.213) rotate(-10.04)" fill="#f7f0e2"/>
        <rect id="Rectangle_26" data-name="Rectangle 26" width="1.963" height="49.446" transform="translate(401.527 55.311) rotate(-10)" fill="#f7f0e2"/>
        <rect id="Rectangle_27" data-name="Rectangle 27" width="4.794" height="52.266" transform="matrix(0.94, -0.342, 0.342, 0.94, 328.252, 73.579)" fill="#f7f0e2"/>
        <rect id="Rectangle_28" data-name="Rectangle 28" width="1.963" height="49.446" transform="matrix(0.94, -0.342, 0.342, 0.94, 329.998, 74.508)" fill="#f7f0e2"/>
        <rect id="Rectangle_29" data-name="Rectangle 29" width="4.794" height="52.266" transform="translate(261.067 105.174) rotate(-30)" fill="#f7f0e2"/>
        <rect id="Rectangle_30" data-name="Rectangle 30" width="1.963" height="49.446" transform="translate(262.976 105.699) rotate(-30)" fill="#f7f0e2"/>
        <rect id="Rectangle_31" data-name="Rectangle 31" width="4.794" height="52.266" transform="matrix(0.766, -0.643, 0.643, 0.766, 200.336, 148.033)" fill="#f7f0e2"/>
        <rect id="Rectangle_32" data-name="Rectangle 32" width="1.963" height="49.446" transform="matrix(0.766, -0.643, 0.643, 0.766, 202.323, 148.21)" fill="#f7f0e2"/>
        <rect id="Rectangle_33" data-name="Rectangle 33" width="4.794" height="52.266" transform="translate(148.044 200.631) rotate(-49.96)" fill="#f7f0e2"/>
        <rect id="Rectangle_34" data-name="Rectangle 34" width="1.973" height="49.446" transform="matrix(0.643, -0.766, 0.766, 0.643, 149.995, 200.545)" fill="#f7f0e2"/>
        <rect id="Rectangle_35" data-name="Rectangle 35" width="4.794" height="52.266" transform="matrix(0.501, -0.866, 0.866, 0.501, 105.641, 261.697)" fill="#f7f0e2"/>
        <rect id="Rectangle_36" data-name="Rectangle 36" width="1.973" height="49.435" transform="translate(107.556 261.184) rotate(-60)" fill="#f7f0e2"/>
        <rect id="Rectangle_37" data-name="Rectangle 37" width="4.794" height="52.266" transform="translate(74.469 328.982) rotate(-69.95)" fill="#f7f0e2"/>
        <rect id="Rectangle_38" data-name="Rectangle 38" width="1.963" height="49.446" transform="matrix(0.342, -0.94, 0.94, 0.342, 76.27, 328.207)" fill="#f7f0e2"/>
        <path id="Path_1262" data-name="Path 1262" d="M310.92,1205.051l.837-4.711,51.46,9.071-.827,4.721Z" transform="translate(-255.431 -804.207)" fill="#f7f0e2"/>
        <rect id="Rectangle_39" data-name="Rectangle 39" width="1.963" height="49.18" transform="translate(49.989 396.92) rotate(-80.159)" fill="#f7f0e2"/>
        <rect id="Rectangle_40" data-name="Rectangle 40" width="52.266" height="4.794" transform="translate(49.26 470.043)" fill="#f7f0e2"/>
        <rect id="Rectangle_41" data-name="Rectangle 41" width="56.429" height="8.947" transform="translate(47.183 467.967)" fill="#f7f0e2"/>
        <rect id="Rectangle_42" data-name="Rectangle 42" width="49.435" height="1.963" transform="translate(50.675 471.459)" fill="#f7f0e2"/>
        <path id="Path_1263" data-name="Path 1263" d="M310.59,1343.821l51.47-9.071.827,4.711-51.47,9.081Z" transform="translate(-255.442 -799.754)" fill="#f7f0e2"/>
        <rect id="Rectangle_43" data-name="Rectangle 43" width="49.446" height="1.973" transform="translate(56.816 545.198) rotate(-10)" fill="#f7f0e2"/>
        <path id="Path_1264" data-name="Path 1264" d="M328.64,1413.673l49.115-17.873,1.643,4.494-49.115,17.873Z" transform="translate(-254.844 -797.731)" fill="#f7f0e2"/>
        <rect id="Rectangle_44" data-name="Rectangle 44" width="49.435" height="1.963" transform="matrix(0.94, -0.342, 0.342, 0.94, 75.624, 616.755)" fill="#f7f0e2"/>
        <rect id="Rectangle_45" data-name="Rectangle 45" width="52.266" height="4.783" transform="translate(104.695 683.44) rotate(-30.01)" fill="#f7f0e2"/>
        <rect id="Rectangle_46" data-name="Rectangle 46" width="49.605" height="1.97" transform="translate(107.96 690.09) rotate(-29.887)" fill="#f7f0e2"/>
        <path id="Path_1265" data-name="Path 1265" d="M399.25,1538.747l40.034-33.587,3.079,3.657-40.034,33.608Z" transform="translate(-252.504 -794.108)" fill="#f7f0e2"/>
        <rect id="Rectangle_47" data-name="Rectangle 47" width="49.446" height="1.963" transform="translate(148.808 744.741) rotate(-40.03)" fill="#f7f0e2"/>
        <rect id="Rectangle_48" data-name="Rectangle 48" width="52.266" height="4.794" transform="matrix(0.643, -0.766, 0.766, 0.643, 198.78, 797.674)" fill="#f7f0e2"/>
        <rect id="Rectangle_49" data-name="Rectangle 49" width="49.446" height="1.963" transform="translate(200.844 797.319) rotate(-49.96)" fill="#f7f0e2"/>
        <rect id="Rectangle_50" data-name="Rectangle 50" width="52.266" height="4.783" transform="translate(259.321 840.636) rotate(-60)" fill="#f7f0e2"/>
        <rect id="Rectangle_51" data-name="Rectangle 51" width="49.446" height="1.963" transform="translate(261.291 840.197) rotate(-60.13)" fill="#f7f0e2"/>
        <rect id="Rectangle_52" data-name="Rectangle 52" width="52.266" height="4.794" transform="matrix(0.342, -0.94, 0.94, 0.342, 326.363, 872.496)" fill="#f7f0e2"/>
        <rect id="Rectangle_53" data-name="Rectangle 53" width="49.446" height="1.963" transform="translate(328.169 871.804) rotate(-70.02)" fill="#f7f0e2"/>
        <rect id="Rectangle_54" data-name="Rectangle 54" width="52.266" height="4.794" transform="translate(397.914 892.229) rotate(-80)" fill="#f7f0e2"/>
        <rect id="Rectangle_55" data-name="Rectangle 55" width="49.446" height="1.973" transform="matrix(0.173, -0.985, 0.985, 0.173, 399.587, 891.267)" fill="#f7f0e2"/>
        <rect id="Rectangle_56" data-name="Rectangle 56" width="4.783" height="52.256" transform="translate(471.85 847.125)" fill="#f7f0e2"/>
        <rect id="Rectangle_57" data-name="Rectangle 57" width="8.957" height="56.429" transform="translate(469.763 845.038)" fill="#f7f0e2"/>
        <rect id="Rectangle_58" data-name="Rectangle 58" width="1.963" height="49.435" transform="translate(473.255 848.53)" fill="#f7f0e2"/>
        <path id="Path_1266" data-name="Path 1266" d="M776.78,1631.967l4.721-.837,9.071,51.481-4.711.816Z" transform="translate(-239.998 -789.935)" fill="#f7f0e2"/>
        <rect id="Rectangle_59" data-name="Rectangle 59" width="1.973" height="49.446" transform="translate(538.457 843.159) rotate(-10)" fill="#f7f0e2"/>
        <path id="Path_1267" data-name="Path 1267" d="M837.83,1616.223l4.5-1.643,17.873,49.115-4.494,1.642Z" transform="translate(-237.975 -790.484)" fill="#f7f0e2"/>
        <path id="Path_1268" data-name="Path 1268" d="M839.59,1617.012l16.9,46.46,1.849-.672-16.912-46.47Z" transform="translate(-237.917 -790.426)" fill="#f7f0e2"/>
        <rect id="Rectangle_60" data-name="Rectangle 60" width="4.783" height="52.256" transform="matrix(0.866, -0.5, 0.5, 0.866, 659.091, 798.829)" fill="#f7f0e2"/>
        <path id="Path_1269" data-name="Path 1269" d="M897.08,1590.572l24.723,42.823,1.7-.992-24.723-42.813Z" transform="translate(-236.012 -791.311)" fill="#f7f0e2"/>
        <rect id="Rectangle_61" data-name="Rectangle 61" width="4.794" height="52.266" transform="matrix(0.766, -0.642, 0.642, 0.766, 712.862, 761.825)" fill="#f7f0e2"/>
        <path id="Path_1270" data-name="Path 1270" d="M949.11,1554.55l31.789,37.874,1.508-1.26-31.779-37.875Z" transform="translate(-234.288 -792.514)" fill="#f7f0e2"/>
        <rect id="Rectangle_62" data-name="Rectangle 62" width="4.783" height="52.266" transform="translate(759.28 716.424) rotate(-50.11)" fill="#f7f0e2"/>
        <path id="Path_1271" data-name="Path 1271" d="M994.11,1510.048l37.864,31.779,1.271-1.508L995.36,1508.54Z" transform="translate(-232.798 -793.996)" fill="#f7f0e2"/>
        <rect id="Rectangle_63" data-name="Rectangle 63" width="4.794" height="52.266" transform="translate(797.151 663.073) rotate(-60.03)" fill="#f7f0e2"/>
        <rect id="Rectangle_64" data-name="Rectangle 64" width="1.963" height="49.446" transform="matrix(0.5, -0.866, 0.866, 0.5, 799.08, 662.599)" fill="#f7f0e2"/>
        <rect id="Rectangle_65" data-name="Rectangle 65" width="4.794" height="52.266" transform="translate(825.193 604.318) rotate(-69.95)" fill="#f7f0e2"/>
        <rect id="Rectangle_66" data-name="Rectangle 66" width="1.973" height="49.446" transform="matrix(0.342, -0.94, 0.94, 0.342, 827.06, 603.709)" fill="#f7f0e2"/>
        <rect id="Rectangle_67" data-name="Rectangle 67" width="4.783" height="52.266" transform="translate(842.653 541.646) rotate(-80)" fill="#f7f0e2"/>
        <rect id="Rectangle_68" data-name="Rectangle 68" width="1.963" height="49.446" transform="translate(844.311 540.539) rotate(-80)" fill="#f7f0e2"/>
        <rect id="Rectangle_69" data-name="Rectangle 69" width="52.256" height="4.794" transform="translate(848.922 472.017)" fill="#f7f0e2"/>
        <rect id="Rectangle_70" data-name="Rectangle 70" width="56.429" height="8.947" transform="translate(846.835 469.93)" fill="#f7f0e2"/>
        <rect id="Rectangle_71" data-name="Rectangle 71" width="49.446" height="1.963" transform="translate(850.327 473.432)" fill="#f7f0e2"/>
        <rect id="Rectangle_72" data-name="Rectangle 72" width="51.986" height="4.758" transform="translate(833.076 405.242) rotate(-9.841)" fill="#f7f0e2"/>
        <rect id="Rectangle_73" data-name="Rectangle 73" width="49.446" height="1.963" transform="translate(844.651 408.268) rotate(-10)" fill="#f7f0e2"/>
        <rect id="Rectangle_74" data-name="Rectangle 74" width="52.266" height="4.794" transform="matrix(0.94, -0.342, 0.342, 0.94, 825.873, 344.32)" fill="#f7f0e2"/>
        <rect id="Rectangle_75" data-name="Rectangle 75" width="49.446" height="1.963" transform="translate(827.643 345.24) rotate(-19.99)" fill="#f7f0e2"/>
        <path id="Path_1272" data-name="Path 1272" d="M1029.76,1093.958l45.271-26.138,2.387,4.153-45.261,26.128Z" transform="translate(-231.617 -808.597)" fill="#f7f0e2"/>
        <path id="Path_1273" data-name="Path 1273" d="M1032.612,1096.117l42.823-24.723-.992-1.7-42.823,24.723Z" transform="translate(-231.555 -808.535)" fill="#f7f0e2"/>
        <rect id="Rectangle_76" data-name="Rectangle 76" width="52.266" height="4.794" transform="matrix(0.766, -0.643, 0.643, 0.766, 760.577, 232.109)" fill="#f7f0e2"/>
        <path id="Path_1274" data-name="Path 1274" d="M1034.465,1012.518l-1.261-1.508L995.32,1042.8l1.271,1.5Z" transform="translate(-232.758 -810.479)" fill="#f7f0e2"/>
        <rect id="Rectangle_77" data-name="Rectangle 77" width="52.266" height="4.794" transform="matrix(0.643, -0.766, 0.766, 0.643, 714.335, 186.199)" fill="#f7f0e2"/>
        <rect id="Rectangle_78" data-name="Rectangle 78" width="49.435" height="1.963" transform="translate(716.336 186.154) rotate(-49.97)" fill="#f7f0e2"/>
        <rect id="Rectangle_79" data-name="Rectangle 79" width="52.256" height="4.783" transform="translate(660.861 149.09) rotate(-60)" fill="#f7f0e2"/>
        <rect id="Rectangle_80" data-name="Rectangle 80" width="49.446" height="1.963" transform="translate(662.798 148.642) rotate(-60.04)" fill="#f7f0e2"/>
        <rect id="Rectangle_81" data-name="Rectangle 81" width="52.266" height="4.794" transform="matrix(0.342, -0.94, 0.94, 0.342, 601.693, 121.768)" fill="#f7f0e2"/>
        <path id="Path_1275" data-name="Path 1275" d="M841.37,935.46l1.849.682,16.912-46.46L858.282,889Z" transform="translate(-237.858 -814.521)" fill="#f7f0e2"/>
        <rect id="Rectangle_82" data-name="Rectangle 82" width="52.266" height="4.783" transform="translate(538.738 105.184) rotate(-80)" fill="#f7f0e2"/>
        <rect id="Rectangle_83" data-name="Rectangle 83" width="49.446" height="1.963" transform="translate(540.327 103.978) rotate(-79.99)" fill="#f7f0e2"/>
        <path id="Path_1276" data-name="Path 1276" d="M740.046,861.863l-1.973-.1-1.632,32.275c.661,0,1.312.093,1.973.124Z" transform="translate(-241.334 -815.423)" fill="#f7f0e2"/>
        <path id="Path_1277" data-name="Path 1277" d="M671.9,896.382,667.883,864.2l-1.963.248,4.019,32.192Z" transform="translate(-243.67 -815.342)" fill="#f7f0e2"/>
        <path id="Path_1278" data-name="Path 1278" d="M606.775,909.9l-9.5-30.9-1.891.579,9.494,30.849C605.5,910.252,606.155,910.1,606.775,909.9Z" transform="translate(-246.007 -814.852)" fill="#f7f0e2"/>
        <path id="Path_1279" data-name="Path 1279" d="M545.06,934.695,530.3,905.86l-1.767.9,14.763,28.835Z" transform="translate(-248.222 -813.962)" fill="#f7f0e2"/>
        <path id="Path_1280" data-name="Path 1280" d="M488.527,969.738,469,943.91l-1.581,1.2,19.547,25.828C487.494,970.565,488,970.131,488.527,969.738Z" transform="translate(-250.246 -812.702)" fill="#f7f0e2"/>
        <path id="Path_1281" data-name="Path 1281" d="M439.035,1014.168,415.273,992.08l-1.343,1.446,23.762,22.078C438.126,1015.119,438.58,1014.643,439.035,1014.168Z" transform="translate(-252.018 -811.106)" fill="#f7f0e2"/>
        <path id="Path_1282" data-name="Path 1282" d="M397.906,1066.413l-27.223-17.563-1.033,1.663,27.223,17.563C397.183,1067.529,397.534,1066.961,397.906,1066.413Z" transform="translate(-253.485 -809.225)" fill="#f7f0e2"/>
        <path id="Path_1283" data-name="Path 1283" d="M366.389,1124.993l-29.754-12.563-.775,1.828,29.723,12.542C365.831,1126.191,366.12,1125.6,366.389,1124.993Z" transform="translate(-254.604 -807.119)" fill="#f7f0e2"/>
        <path id="Path_1284" data-name="Path 1284" d="M345.717,1188.232,314.144,1181l-.444,1.932,31.572,7.232Z" transform="translate(-255.339 -804.847)" fill="#f7f0e2"/>
        <path id="Path_1285" data-name="Path 1285" d="M336.251,1254.052,303.9,1252.42l-.1,1.984,32.316,1.622C336.158,1255.354,336.209,1254.7,336.251,1254.052Z" transform="translate(-255.667 -802.481)" fill="#f7f0e2"/>
        <path id="Path_1286" data-name="Path 1286" d="M338.412,1320.64l-32.182,4.019.248,1.963,32.192-4.019C338.588,1321.952,338.495,1321.291,338.412,1320.64Z" transform="translate(-255.586 -800.221)" fill="#f7f0e2"/>
        <path id="Path_1287" data-name="Path 1287" d="M351.99,1385.93l-30.89,9.525.578,1.891,30.849-9.5A12.878,12.878,0,0,1,351.99,1385.93Z" transform="translate(-255.093 -798.058)" fill="#f7f0e2"/>
        <path id="Path_1288" data-name="Path 1288" d="M376.735,1447.82,347.9,1462.583l.909,1.756,28.824-14.753Z" transform="translate(-254.206 -796.008)" fill="#f7f0e2"/>
        <path id="Path_1289" data-name="Path 1289" d="M386,1524.026l1.2,1.57,25.828-19.536c-.4-.537-.827-1.033-1.229-1.56Z" transform="translate(-252.943 -794.13)" fill="#f7f0e2"/>
        <path id="Path_1290" data-name="Path 1290" d="M434.11,1577.9l1.446,1.343,22.078-23.762-1.436-1.374Z" transform="translate(-251.35 -792.487)" fill="#f7f0e2"/>
        <path id="Path_1291" data-name="Path 1291" d="M490.85,1622.583l1.663,1.033,17.563-27.223-1.674-1.033Z" transform="translate(-249.47 -791.12)" fill="#f7f0e2"/>
        <path id="Path_1292" data-name="Path 1292" d="M554.47,1656.7l1.818.775,12.542-29.723c-.61-.258-1.2-.548-1.808-.816Z" transform="translate(-247.362 -790.074)" fill="#f7f0e2"/>
        <path id="Path_1293" data-name="Path 1293" d="M623,1679.233l1.932.434,7.232-31.572-1.932-.444Z" transform="translate(-245.092 -789.388)" fill="#f7f0e2"/>
        <path id="Path_1294" data-name="Path 1294" d="M694.45,1689.487l1.984.1,1.622-32.317-1.973-.134Z" transform="translate(-242.725 -789.074)" fill="#f7f0e2"/>
        <path id="Path_1295" data-name="Path 1295" d="M762.68,1655.008,766.7,1687.2l1.963-.248-4.019-32.192Z" transform="translate(-240.465 -789.152)" fill="#f7f0e2"/>
        <path id="Path_1296" data-name="Path 1296" d="M828,1641.418l9.525,30.891,1.891-.589-9.5-30.849C829.24,1641.066,828.6,1641.221,828,1641.418Z" transform="translate(-238.301 -789.613)" fill="#f7f0e2"/>
        <path id="Path_1297" data-name="Path 1297" d="M889.86,1616.579l14.763,28.824,1.756-.9-14.753-28.835Z" transform="translate(-236.251 -790.447)" fill="#f7f0e2"/>
        <path id="Path_1298" data-name="Path 1298" d="M946.53,1581.438l19.526,25.828,1.57-1.2L948.09,1580.24C947.563,1580.612,947.016,1581.025,946.53,1581.438Z" transform="translate(-234.374 -791.621)" fill="#f7f0e2"/>
        <path id="Path_1299" data-name="Path 1299" d="M996.15,1536.9l23.762,22.088,1.343-1.446-23.762-22.078Z" transform="translate(-232.73 -793.105)" fill="#f7f0e2"/>
        <path id="Path_1300" data-name="Path 1300" d="M1037.4,1484.513l27.212,17.563,1.034-1.663-27.223-17.563Z" transform="translate(-231.364 -794.848)" fill="#f7f0e2"/>
        <path id="Path_1301" data-name="Path 1301" d="M1069,1425.777l29.754,12.563.765-1.829L1069.785,1424C1069.537,1424.578,1069.238,1425.167,1069,1425.777Z" transform="translate(-230.317 -796.797)" fill="#f7f0e2"/>
        <path id="Path_1302" data-name="Path 1302" d="M1089.69,1362.382l31.583,7.232.434-1.932-31.573-7.232C1090.01,1361.1,1089.835,1361.742,1089.69,1362.382Z" transform="translate(-229.631 -798.903)" fill="#f7f0e2"/>
        <path id="Path_1303" data-name="Path 1303" d="M1099.3,1294.4c0,.661-.083,1.323-.134,1.984l32.347,1.622.1-1.973Z" transform="translate(-229.317 -801.09)" fill="#f7f0e2"/>
        <path id="Path_1304" data-name="Path 1304" d="M1097.008,1229.861l32.192-4.008-.248-1.963-32.192,4.019C1096.842,1228.56,1096.935,1229.169,1097.008,1229.861Z" transform="translate(-229.397 -803.427)" fill="#f7f0e2"/>
        <path id="Path_1305" data-name="Path 1305" d="M1083.448,1164.746l30.891-9.515-.589-1.9-30.849,9.5C1083.106,1163.465,1083.262,1164.116,1083.448,1164.746Z" transform="translate(-229.856 -805.764)" fill="#f7f0e2"/>
        <path id="Path_1306" data-name="Path 1306" d="M1058.609,1103.02l28.835-14.763-.909-1.767-28.834,14.764C1058.01,1101.842,1058.32,1102.431,1058.609,1103.02Z" transform="translate(-230.691 -807.978)" fill="#f7f0e2"/>
        <path id="Path_1307" data-name="Path 1307" d="M1049.277,1026.971l-1.2-1.581-25.828,19.547c.393.527.827,1.033,1.219,1.56Z" transform="translate(-231.866 -810.002)" fill="#f7f0e2"/>
        <path id="Path_1308" data-name="Path 1308" d="M1001.025,973.213l-1.447-1.353L977.5,995.622l1.436,1.364Z" transform="translate(-233.348 -811.776)" fill="#f7f0e2"/>
        <path id="Path_1309" data-name="Path 1309" d="M944.147,928.633l-1.663-1.033L924.92,954.823l1.663,1.033Z" transform="translate(-235.09 -813.242)" fill="#f7f0e2"/>
        <path id="Path_1310" data-name="Path 1310" d="M880.371,894.585l-1.818-.765L866,923.533c.6.258,1.2.548,1.8.816Z" transform="translate(-237.042 -814.361)" fill="#f7f0e2"/>
        <path id="Path_1311" data-name="Path 1311" d="M811.654,872.1l-1.932-.444-7.232,31.572,1.921.444Z" transform="translate(-239.146 -815.095)" fill="#f7f0e2"/>
        <path id="Path_1312" data-name="Path 1312" d="M767.825,864.327l-1.963-.227-3.8,32.2,1.963.248Z" transform="translate(-240.485 -815.346)" fill="#f7f0e2"/>
        <path id="Path_1313" data-name="Path 1313" d="M697.432,894.106,695.593,861.8l-1.973.114,1.839,32.337C696.079,894.219,696.771,894.147,697.432,894.106Z" transform="translate(-242.753 -815.422)" fill="#f7f0e2"/>
        <path id="Path_1314" data-name="Path 1314" d="M631.57,903.381l-7.438-31.531-1.932.455,7.428,31.521Z" transform="translate(-245.118 -815.089)" fill="#f7f0e2"/>
        <path id="Path_1315" data-name="Path 1315" d="M568.267,923.791,555.518,894.14l-1.818.785,12.708,29.682C567.069,924.349,567.658,924.049,568.267,923.791Z" transform="translate(-247.388 -814.35)" fill="#f7f0e2"/>
        <path id="Path_1316" data-name="Path 1316" d="M509.624,955.13,491.8,928l-1.653,1.085,17.77,27.089Z" transform="translate(-249.493 -813.229)" fill="#f7f0e2"/>
        <path id="Path_1317" data-name="Path 1317" d="M457.19,996.068,434.946,972.44l-1.446,1.353,22.212,23.638C456.229,996.977,456.745,996.512,457.19,996.068Z" transform="translate(-251.37 -811.757)" fill="#f7f0e2"/>
        <path id="Path_1318" data-name="Path 1318" d="M412.61,1045.421l-25.952-19.361-1.188,1.591,25.911,19.34C411.784,1046.454,412.207,1045.948,412.61,1045.421Z" transform="translate(-252.961 -809.98)" fill="#f7f0e2"/>
        <path id="Path_1319" data-name="Path 1319" d="M377.346,1101.817l-28.928-14.577-.888,1.766,28.928,14.567Z" transform="translate(-254.218 -807.953)" fill="#f7f0e2"/>
        <path id="Path_1320" data-name="Path 1320" d="M352.31,1163.438l-30.932-9.3-.568,1.9,30.994,9.3C352,1164.719,352.124,1164.078,352.31,1163.438Z" transform="translate(-255.103 -805.737)" fill="#f7f0e2"/>
        <path id="Path_1321" data-name="Path 1321" d="M338.591,1228.522l-32.223-3.8-.238,1.963,32.2,3.8C338.415,1229.834,338.508,1229.142,338.591,1228.522Z" transform="translate(-255.589 -803.399)" fill="#f7f0e2"/>
        <path id="Path_1322" data-name="Path 1322" d="M336.146,1295l-32.306,1.839.114,1.984,32.347-1.849C336.26,1296.354,336.177,1295.7,336.146,1295Z" transform="translate(-255.665 -801.071)" fill="#f7f0e2"/>
        <path id="Path_1323" data-name="Path 1323" d="M345.421,1361.08l-31.531,7.428.454,1.932,31.521-7.428Z" transform="translate(-255.332 -798.881)" fill="#f7f0e2"/>
        <path id="Path_1324" data-name="Path 1324" d="M365.831,1424.55,336.18,1437.3l.785,1.829,29.682-12.759C366.389,1425.749,366.089,1425.16,365.831,1424.55Z" transform="translate(-254.594 -796.779)" fill="#f7f0e2"/>
        <path id="Path_1325" data-name="Path 1325" d="M397.159,1483.38l-27.109,17.78,1.085,1.663,27.1-17.77C397.893,1484.5,397.521,1483.938,397.159,1483.38Z" transform="translate(-253.472 -794.83)" fill="#f7f0e2"/>
        <path id="Path_1326" data-name="Path 1326" d="M438.108,1535.92l-23.628,22.243,1.353,1.447,23.638-22.254Z" transform="translate(-252 -793.089)" fill="#f7f0e2"/>
        <path id="Path_1327" data-name="Path 1327" d="M468.09,1606.563l1.591,1.178,19.34-25.911c-.527-.392-1.033-.826-1.56-1.219Z" transform="translate(-250.224 -791.609)" fill="#f7f0e2"/>
        <path id="Path_1328" data-name="Path 1328" d="M529.28,1644.928l1.767.889,14.567-28.928-1.767-.909Z" transform="translate(-248.197 -790.437)" fill="#f7f0e2"/>
        <path id="Path_1329" data-name="Path 1329" d="M596.18,1671.993l1.9.568,9.3-30.994c-.63-.2-1.281-.351-1.9-.537Z" transform="translate(-245.981 -789.607)" fill="#f7f0e2"/>
        <path id="Path_1330" data-name="Path 1330" d="M666.75,1687.033l1.963.227,3.8-32.192-1.963-.258Z" transform="translate(-243.643 -789.151)" fill="#f7f0e2"/>
        <path id="Path_1331" data-name="Path 1331" d="M737.08,1657.245l1.839,32.306,1.984-.114-1.839-32.337C738.392,1657.131,737.731,1657.2,737.08,1657.245Z" transform="translate(-241.313 -789.075)" fill="#f7f0e2"/>
        <path id="Path_1332" data-name="Path 1332" d="M803.12,1647.954l7.428,31.531,1.932-.454-7.418-31.521Z" transform="translate(-239.125 -789.393)" fill="#f7f0e2"/>
        <path id="Path_1333" data-name="Path 1333" d="M866.59,1627.5l12.759,29.64,1.818-.775-12.759-29.682C867.788,1626.938,867.2,1627.238,866.59,1627.5Z" transform="translate(-237.022 -790.083)" fill="#f7f0e2"/>
        <path id="Path_1334" data-name="Path 1334" d="M925.42,1596.085l17.78,27.109,1.663-1.033L927.052,1595Z" transform="translate(-235.073 -791.132)" fill="#f7f0e2"/>
        <path id="Path_1335" data-name="Path 1335" d="M978,1555.044l22.243,23.628,1.446-1.364-22.254-23.638C978.909,1554.135,978.444,1554.589,978,1555.044Z" transform="translate(-233.331 -792.501)" fill="#f7f0e2"/>
        <path id="Path_1336" data-name="Path 1336" d="M1022.65,1505.56l25.952,19.361,1.178-1.591L1023.869,1504C1023.477,1504.527,1023.012,1505.033,1022.65,1505.56Z" transform="translate(-231.852 -794.147)" fill="#f7f0e2"/>
        <path id="Path_1337" data-name="Path 1337" d="M1058,1449.057l28.928,14.577.889-1.766-28.928-14.577C1058.6,1447.848,1058.3,1448.437,1058,1449.057Z" transform="translate(-230.681 -796.026)" fill="#f7f0e2"/>
        <path id="Path_1338" data-name="Path 1338" d="M1083.09,1387.231l30.932,9.3.568-1.9-30.994-9.3C1083.441,1385.95,1083.276,1386.6,1083.09,1387.231Z" transform="translate(-229.85 -798.078)" fill="#f7f0e2"/>
        <path id="Path_1339" data-name="Path 1339" d="M1096.84,1321.972l32.223,3.812.227-1.963-32.192-3.8C1097.005,1320.671,1096.912,1321.311,1096.84,1321.972Z" transform="translate(-229.395 -800.242)" fill="#f7f0e2"/>
        <path id="Path_1340" data-name="Path 1340" d="M1099.285,1255.393l32.306-1.849-.114-1.973-32.337,1.849C1099.171,1254.08,1099.243,1254.731,1099.285,1255.393Z" transform="translate(-229.318 -802.51)" fill="#f7f0e2"/>
        <path id="Path_1341" data-name="Path 1341" d="M1090.014,1189.53l31.542-7.439-.454-1.932-31.521,7.438C1089.7,1188.26,1089.849,1188.89,1090.014,1189.53Z" transform="translate(-229.635 -804.875)" fill="#f7f0e2"/>
        <path id="Path_1342" data-name="Path 1342" d="M1069.536,1126.227l29.651-12.749-.785-1.818-29.682,12.749C1069.009,1125.028,1069.268,1125.618,1069.536,1126.227Z" transform="translate(-230.326 -807.145)" fill="#f7f0e2"/>
        <path id="Path_1343" data-name="Path 1343" d="M1038.122,1067.553l27.109-17.78-1.033-1.653-27.089,17.77C1037.42,1066.437,1037.761,1067.006,1038.122,1067.553Z" transform="translate(-231.373 -809.249)" fill="#f7f0e2"/>
        <path id="Path_1344" data-name="Path 1344" d="M997.043,1015.15l23.628-22.243-1.364-1.446-23.6,22.253Z" transform="translate(-232.745 -811.127)" fill="#f7f0e2"/>
        <path id="Path_1345" data-name="Path 1345" d="M966.962,944.618l-1.581-1.188L946,969.351c.537.393,1.033.827,1.56,1.219Z" transform="translate(-234.392 -812.718)" fill="#f7f0e2"/>
        <path id="Path_1346" data-name="Path 1346" d="M905.624,906.378l-1.767-.889L889.28,934.418l1.767.909Z" transform="translate(-236.271 -813.974)" fill="#f7f0e2"/>
        <path id="Path_1347" data-name="Path 1347" d="M838.569,879.338l-1.9-.568-9.3,30.994c.63.186,1.281.341,1.9.537Z" transform="translate(-238.322 -814.86)" fill="#f7f0e2"/>
        <path id="Path_1348" data-name="Path 1348" d="M989.167,1280l-181.624-26.861,125.009-52.844a3.748,3.748,0,1,0-2.924-6.9L806.685,1245.37l107.921-145.32a3.74,3.74,0,0,0-5.238-5.238L762,1204.282l51.006-125.721a3.745,3.745,0,0,0-6.943-2.81l-50.158,123.655-26.448-179.114a3.75,3.75,0,0,0-7.418,0L695.18,1201.917l-52.8-125a3.746,3.746,0,0,0-6.9,2.913l51.977,122.942L542.091,1094.823a3.74,3.74,0,0,0-5.238,5.238l109.512,147.386-125.732-51a3.742,3.742,0,0,0-2.82,6.932l123.624,50.2-179.124,26.458a3.75,3.75,0,0,0,0,7.418l181.624,26.861-125.009,52.844a3.74,3.74,0,0,0,1.312,7.232,3.683,3.683,0,0,0,1.6-.3l122.942-51.966L536.832,1467.492a3.74,3.74,0,0,0,5.238,5.238l147.417-109.635-51,125.732a3.74,3.74,0,0,0,2.066,4.866,3.637,3.637,0,0,0,1.271.269,3.74,3.74,0,0,0,3.606-2.325l50.148-123.624,26.448,179.114a3.75,3.75,0,0,0,7.418,0L756.31,1365.5l52.834,125.009a3.75,3.75,0,0,0,3.316,2.283,3.788,3.788,0,0,0,1.591-.3,3.739,3.739,0,0,0,1.994-4.907l-51.977-122.942L909.44,1472.606a3.74,3.74,0,0,0,5.238-5.238l-109.512-147.4L930.9,1370.978a3.9,3.9,0,0,0,1.271.269,3.74,3.74,0,0,0,1.55-7.232l-123.665-50.159,179.124-26.448a3.75,3.75,0,0,0,0-7.418ZM756.6,1217.62,893.52,1115.95,793.089,1251.176l-60.479,25.57,23.927-59.116Zm-55.789-2.459,24.919-168.71,24.609,166.623-24.692,60.851-24.8-58.754Zm-41.18,37.7-101.67-136.91,135.247,100.441,25.57,60.479-59.116-23.979Zm-2.459,55.789-168.71-24.919,166.623-24.609,60.841,24.681-58.754,24.8Zm37.7,41.17L557.959,1451.5l100.43-135.257,60.469-25.57-23.979,59.116Zm55.789,2.459L725.75,1520.957l-24.609-166.623,24.682-60.841,24.8,58.754Zm41.17-37.74,101.691,136.91-135.237-100.43-25.559-60.469Zm4.536-6.2-60.841-24.681,58.754-24.8h0l168.71,24.919Z" transform="translate(-250.521 -810.277)" fill="#f7f0e2"/>
        <path id="Path_1349" data-name="Path 1349" d="M730.915,1716.63c-235.874,0-427.715-191.893-427.715-427.715S495.083,861.2,730.915,861.2s427.715,191.883,427.715,427.715S966.768,1716.63,730.915,1716.63Zm0-853.643c-234.84,0-425.855,191.046-425.855,425.887S496.106,1714.75,730.946,1714.75s425.876-191.046,425.876-425.876S965.735,862.987,730.915,862.987Z" transform="translate(-255.686 -815.442)" fill="#f7f0e2"/>
        <path id="Path_1350" data-name="Path 1350" d="M691.9,926.29h16.985l19.123,36.439,7.232,16.2h.455c-.672-7.759-2.066-18.111-2.066-26.768V926.331h15.745v73.352H732.388l-19.123-36.552-7.232-15.972h-.444c.672,8.1,2.066,17.873,2.066,26.541v25.973H691.9Z" transform="translate(-242.81 -813.285)" fill="#f7f0e2"/>
        <path id="Path_1351" data-name="Path 1351" d="M938.735,1022.2l6.726,7.025-10.331,32.8-4.494,11.788.227.238c3.7-4.06,8.058-9.3,12.4-13.431l16.788-15.9,6.2,6.591-38.794,36.8-6.684-7.067,10.331-32.8,4.484-11.788-.227-.238c-3.812,4.132-7.934,9.205-12.274,13.317l-16.974,16.086-6.2-6.591Z" transform="translate(-235.918 -810.108)" fill="#f7f0e2"/>
        <path id="Path_1352" data-name="Path 1352" d="M974.436,1059.89l22.161,23.39-5.827,5.506-15.631-16.53-9.918,9.391,13.214,13.947-5.816,5.507L959.4,1087.154l-11.458,10.858,16.189,17.1-5.816,5.517-22.729-23.989Z" transform="translate(-234.736 -808.859)" fill="#f7f0e2"/>
        <path id="Path_1353" data-name="Path 1353" d="M1069.611,1253.66v49.59h-14.237v-31.676h-15.053v27H1026.2v-27h-17.232v32.957H994.72v-50.84Z" transform="translate(-232.778 -802.44)" fill="#f7f0e2"/>
        <path id="Path_1354" data-name="Path 1354" d="M958.716,1455.5c-5.372.093-10.9,1.953-14.464,5.444-4.443,4.309-4.918,8.606-1.953,11.675,3.1,3.233,6.643,1.808,11.633-.124l7.656-2.893c5.414-2.066,12.4-3,18.038,2.758,6.044,6.2,5.166,16.375-2.49,23.824a24.112,24.112,0,0,1-16.881,6.705l-.764-7.873c4.556-.341,8.41-1.643,11.767-4.9,3.719-3.605,4.494-7.728,1.694-10.6-2.965-3.1-7.067-1.292-11.581.537l-7.48,2.954c-6.54,2.5-12.687,2.759-18.214-2.934-6.2-6.354-6-16.747,2.81-25.3a28.289,28.289,0,0,1,19.733-7.966Z" transform="translate(-234.875 -796.041)" fill="#f7f0e2"/>
        <path id="Path_1355" data-name="Path 1355" d="M957.166,1514.347l-23.617,22.915-5.7-5.878,16.675-16.168-9.711-10.021-14.082,13.668-5.7-5.878,14.071-13.648-11.22-11.561-17.264,16.737-5.7-5.879,24.227-23.493Z" transform="translate(-236.084 -795.103)" fill="#f7f0e2"/>
        <path id="Path_1356" data-name="Path 1356" d="M739.213,1574.854c-5.29-4.5-12.036-7.645-18.1-7.645-6.86,0-10.238,2.7-10.238,7.077,0,4.618,4.133,6.075,10.569,8.771l9.567,4.05c7.531,3.037,14.732,9.3,14.732,20.022,0,12.139-10.8,21.82-26.1,21.82a33.937,33.937,0,0,1-23.617-9.681l8.441-10.455c4.835,3.719,9.3,5.848,15.177,5.848s9.3-2.469,9.3-6.633c0-4.5-4.835-6.075-11.137-8.668l-9.443-3.823c-8.885-3.605-14.464-9.567-14.464-19.908,0-12.15,10.114-22.729,27.667-22.729a40.168,40.168,0,0,1,27.1,10.569Z" transform="translate(-242.743 -792.527)" fill="#f7f0e2"/>
        <path id="Path_1357" data-name="Path 1357" d="M540.18,1517.205c.114-5.259-1.5-10.734-4.773-14.392-4.039-4.5-8.265-5.166-11.364-2.356-3.285,2.954-2.066,6.436-.331,11.364l2.531,7.614c1.849,5.372,2.459,12.294-3.389,17.563-6.333,5.682-16.22,4.443-23.214-3.347a23.629,23.629,0,0,1-5.909-16.768l7.728-.455c.155,4.474,1.281,8.265,4.339,11.705,3.389,3.781,7.387,4.69,10.331,2.066,3.1-2.779,1.529-6.86-.072-11.364l-2.6-7.439c-2.19-6.488-2.211-12.511,3.575-17.7,6.457-5.785,16.613-5.228,24.64,3.719a27.708,27.708,0,0,1,7.036,19.629Z" transform="translate(-249.375 -794.613)" fill="#f7f0e2"/>
        <path id="Path_1358" data-name="Path 1358" d="M486.946,1517.73l-6.488-7.232,16.985-21.489c3.668-4.484,7.325-8.978,10.982-13.348l-.217-.248c-4.969,2.913-10.052,5.941-15.073,8.782l-24.464,13.141-5.507-6.147,15.724-22.884c3.327-4.628,6.881-9.35,10.331-14.082l-.217-.248c-4.8,3.213-9.67,6.364-14.464,9.525l-23.2,14.536-6.054-6.757,46.646-28.08,7.862,8.771-16.53,23.7c-2.5,3.451-5,6.787-7.614,10.011l.217.248c3.533-2.18,7.129-4.3,10.827-6.416l25.26-13.958,7.7,8.586Z" transform="translate(-250.98 -796.161)" fill="#f7f0e2"/>
        <path id="Path_1359" data-name="Path 1359" d="M374.63,1314.854v-15.125l30.529-4.5c6.808-.806,13.72-1.8,20.663-2.6v-.4l-20.663-3.895-30.529-7.015v-12.521l30.529-7c6.612-1.3,13.617-2.6,20.663-3.905v-.4c-7-.9-13.916-1.8-20.663-2.707l-30.529-4.5V1236.14l65.273,11.612v18.524l-29.63,6.405c-5.011,1.105-10.331,1.9-15.115,2.6v.4c4.8.8,10.114,1.6,15.115,2.707l29.63,6.106v18.224Z" transform="translate(-253.32 -803.021)" fill="#f7f0e2"/>
        <path id="Path_1360" data-name="Path 1360" d="M432.33,1093.813l6.519-7.232,33.515,7.8,12.108,3.554.217-.237c-4.339-3.368-9.918-7.315-14.35-11.313l-17.233-15.569,6.085-6.736,39.682,35.849-6.529,7.232-33.494-7.8-12.108-3.554-.217.238c4.463,3.482,9.8,7.232,14.237,11.2l17.336,15.642-6.085,6.736Z" transform="translate(-251.409 -808.721)" fill="#f7f0e2"/>
        <path id="Path_1361" data-name="Path 1361" d="M463.69,1059.634l6.529-7.232,23.152,14.629c4.845,3.172,9.7,6.333,14.464,9.515l.217-.238c-3.42-4.628-6.963-9.37-10.331-14.061L482.09,1039.3l5.538-6.126,24.4,13.244c4.949,2.821,10.032,5.858,15.094,8.782l.217-.238c-3.7-4.443-7.335-8.947-10.982-13.338l-16.9-21.551,6.085-6.736,32.833,43.391-7.893,8.74-25.312-13.947c-3.7-2.128-7.232-4.266-10.755-6.519l-.217.248c2.541,3.286,5.031,6.633,7.521,10.094L518.249,1079l-7.728,8.554Z" transform="translate(-250.37 -810.402)" fill="#f7f0e2"/>
        <g id="Group_47" data-name="Group 47">
          <path id="Path_1362" data-name="Path 1362" d="M701.84,834.639c-.165-11.551,4.267-17.636,11.364-17.729s11.685,5.9,11.85,17.4-4.256,17.956-11.364,18.059S702.005,846.2,701.84,834.639Zm17.3-.248c-.145-9.67-2.542-12.7-5.878-12.646s-5.651,3.1-5.517,12.821,2.6,13.017,5.878,12.976,5.651-3.471,5.507-13.151Z" transform="translate(-242.48 -816.909)" fill="url(#linear-gradient)"/>
          <path id="Path_1363" data-name="Path 1363" d="M933.955,899.1a11.147,11.147,0,0,0,5.083,7.356c3.192,1.88,6.395,1.529,8.038-1.25,1.8-3.1,1.033-6.147-5.713-10.1l2.294-3.895c5.785,3.409,8.854,2.542,10.466-.186,1.446-2.459.661-4.918-2.066-6.509-2.314-1.364-4.773-1.322-7.563-.713l-.8-4.9a15.1,15.1,0,0,1,11.116,1.519c5.651,3.327,7.9,8.4,4.949,13.431-1.942,3.285-5.166,4.36-9.122,3.73l-.1.186c2.924,2.976,4.132,7.025,1.8,10.92-3.172,5.372-9.7,5.765-15.363,2.428a14.888,14.888,0,0,1-7.542-10.063Z" transform="translate(-234.94 -814.87)" fill="url(#linear-gradient-2)"/>
          <path id="Path_1364" data-name="Path 1364" d="M959.995,904.1c6.467-9.567,13.575-12.026,19.454-8.058s6.2,11.53-.227,21.055-13.751,12.294-19.629,8.327S953.528,913.622,959.995,904.1Zm14.33,9.691c5.424-8.007,5.166-11.871,2.417-13.741s-6.447-.651-11.85,7.366-5.31,12.17-2.593,14.009,6.612.372,12.026-7.635Z" transform="translate(-234.088 -814.348)" fill="url(#linear-gradient-3)"/>
          <path id="Path_1365" data-name="Path 1365" d="M1118.323,1057.627a7.386,7.386,0,0,0-.506-5.992c-2.169-3.708-6.663-5.166-14.97-.6a10.136,10.136,0,0,1,7.232,4.38c2.976,5.114,2.066,10.332-4.132,13.968-5.889,3.44-12.16,1.426-15.115-3.626-3.389-5.8-1.746-13.348,8.193-19.144,11.458-6.684,19.443-3.874,22.967,2.159a12.181,12.181,0,0,1,1.25,9.835Zm-15.259,6.788c3.482-2.066,4.236-4.773,2.531-7.7-.971-1.674-3.037-3.1-6.468-3.327-4.918,3.616-5.93,7-4.256,9.887C1096.307,1065.737,1099.437,1066.533,1103.064,1064.415Z" transform="translate(-229.647 -809.427)" fill="url(#linear-gradient-4)"/>
          <path id="Path_1366" data-name="Path 1366" d="M1113.52,1069.333c10.331-5.166,17.718-3.9,20.921,2.438s-.2,13.1-10.455,18.276-18.008,4.04-21.2-2.294S1103.21,1074.54,1113.52,1069.333Zm7.8,15.5c8.637-4.36,10.331-7.852,8.8-10.827s-5.31-3.7-13.937.661-10.569,8.038-9.091,10.972,5.6,3.5,14.226-.857Z" transform="translate(-229.235 -808.653)" fill="url(#linear-gradient-5)"/>
          <path id="Path_1367" data-name="Path 1367" d="M1156.094,1275.735a7.5,7.5,0,0,0-2.562,5.486c0,4.287,3.192,7.779,12.645,8.027a10.33,10.33,0,0,1-4-7.459c0-5.858,3.42-9.949,10.558-9.97,6.829,0,11.189,4.856,11.2,10.714,0,6.663-5.166,12.4-16.623,12.4-13.265,0-18.813-6.343-18.834-13.431a12.283,12.283,0,0,1,3.843-9.143Zm14.536,13.338c6.013-.651,8.586-3.1,8.586-6.457,0-2.8-2.325-5.094-6.457-5.083s-6.116,2-6.106,5.434c-.01,1.921,1.126,4.236,3.978,6.106Z" transform="translate(-227.684 -801.839)" fill="url(#linear-gradient-6)"/>
          <path id="Path_1368" data-name="Path 1368" d="M1166.149,1299.333c11.519.775,17.222,5.693,16.747,12.759s-6.85,11.168-18.317,10.393-17.563-5.713-17.078-12.78S1154.619,1298.558,1166.149,1299.333Zm-1.167,17.263c9.65.651,12.873-1.508,13.09-4.825s-2.665-5.889-12.315-6.54-13.193,1.529-13.431,4.8,3.006,5.909,12.645,6.519Z" transform="translate(-227.717 -800.93)" fill="url(#linear-gradient-7)"/>
          <path id="Path_1369" data-name="Path 1369" d="M1102.138,1487.16l-3.781,6.623,19.505,11.137,3.1-5.455,3.368,1.922a22.957,22.957,0,0,0-1.5,8.265l-2.294,4.009-25.291-14.464-3.337,5.827-4.38-2.51,10.207-17.863Z" transform="translate(-229.703 -794.788)" fill="url(#linear-gradient-8)"/>
          <path id="Path_1370" data-name="Path 1370" d="M1088.733,1507.595c2.469,12.986,4.225,21.272,8.6,24.124,3.006,1.973,6.033,1.57,8.038-1.478,1.447-2.2,1.167-5.021.465-7.666l4.752-1.033c1.033,4.432,1.033,8.1-1.57,12.015-3.6,5.476-9.381,6.757-14.681,3.286-5.083-3.327-7.232-11.457-9.463-21.045-.837,1.57-1.9,3.575-2.81,4.969l-4.6,7-4.4-2.883,12.666-19.319Z" transform="translate(-230.182 -794.095)" fill="url(#linear-gradient-9)"/>
          <path id="Path_1371" data-name="Path 1371" d="M1084.947,1537.685c9.3,6.9,11.364,14.123,7.149,19.805s-11.8,5.672-21.024-1.2-11.643-14.309-7.407-20S1075.69,1530.773,1084.947,1537.685Zm-10.331,13.875c7.749,5.775,11.623,5.713,13.606,3.037s.94-6.395-6.8-12.18-11.912-5.868-13.875-3.234-.692,6.592,7.056,12.367Z" transform="translate(-230.561 -793.211)" fill="url(#linear-gradient-10)"/>
          <path id="Path_1372" data-name="Path 1372" d="M947.761,1650.318l-6.581,3.854,11.365,19.382,5.424-3.172,1.963,3.337a22.736,22.736,0,0,0-5.4,6.4l-3.988,2.345L935.8,1657.365l-5.8,3.4-2.552-4.36,17.76-10.4Z" transform="translate(-235.006 -789.443)" fill="url(#linear-gradient-11)"/>
          <path id="Path_1373" data-name="Path 1373" d="M925.907,1666.18a11.445,11.445,0,0,0-8.792.362c-3.409,1.725-4.8,5.165-2.934,8.833s5.166,4.566,8.5,2.872a8.83,8.83,0,0,0,4.009-4.2l3.492.341,6.715,15.5-16.3,8.265-2.356-4.649,11.509-5.827-3.1-7.7a9.67,9.67,0,0,1-3.513,3.1c-5.228,2.645-11.1,1.88-14.464-4.69s-.2-13.1,5.424-15.941a15.715,15.715,0,0,1,12.542-1.033Z" transform="translate(-235.674 -788.96)" fill="url(#linear-gradient-12)"/>
          <path id="Path_1374" data-name="Path 1374" d="M907.547,1685.657c4.577,10.6,2.831,17.925-3.678,20.735s-13.069-.961-17.635-11.519-2.965-18.214,3.554-21.035S902.96,1675.067,907.547,1685.657Zm-15.879,6.87c3.833,8.875,7.232,10.755,10.331,9.422s4.009-5.073.176-13.947-7.408-11.023-10.414-9.722-3.947,5.362-.1,14.247Z" transform="translate(-236.458 -788.549)" fill="url(#linear-gradient-13)"/>
          <path id="Path_1375" data-name="Path 1375" d="M753.578,1713.312l-7.614.4,1.209,22.419,6.281-.33.2,3.854a22.93,22.93,0,0,0-7.728,3.213l-4.649.248-1.56-29.062-6.7.362-.269-5.042,20.549-1.105Z" transform="translate(-241.457 -787.38)" fill="url(#linear-gradient-14)"/>
          <path id="Path_1376" data-name="Path 1376" d="M722.727,1726.911v.217c2.645,1.87,4.742,4.391,4.742,7.986,0,5.537-4.381,9.092-10.331,9.112-6.126,0-10.052-3.688-10.073-9.226,0-3.378,2.356-6.2,4.546-7.852v-.217c-3.172-1.766-5.92-4.288-5.93-8.844,0-5.259,4.6-9.3,11.53-9.3,6.664,0,11.612,3.833,11.623,9.37C728.884,1722.386,725.94,1725.186,722.727,1726.911Zm-5.569-13.772c-3.275,0-5.63,1.942-5.62,5.166,0,3.709,3.606,5.042,8.265,6.9a8.028,8.028,0,0,0,3.688-6.4C723.45,1715.412,720.65,1713.14,717.158,1713.14Zm-4.949,21.479a4.835,4.835,0,0,0,5.062,5.166,4.412,4.412,0,0,0,4.659-4.69c0-3.44-3.1-4.928-6.891-6.426A8.328,8.328,0,0,0,712.209,1734.618Z" transform="translate(-242.353 -787.363)" fill="url(#linear-gradient-15)"/>
          <path id="Path_1377" data-name="Path 1377" d="M701.746,1726.438c-.764,11.53-5.672,17.243-12.749,16.757s-11.178-6.819-10.414-18.3,5.693-17.563,12.769-17.078S702.479,1714.908,701.746,1726.438Zm-17.264-1.147c-.641,9.65,1.519,12.873,4.835,13.079s5.889-2.676,6.529-12.315-1.55-13.193-4.814-13.43-5.94,3.027-6.581,12.666Z" transform="translate(-243.254 -787.396)" fill="url(#linear-gradient-16)"/>
          <path id="Path_1378" data-name="Path 1378" d="M535.256,1671.888c-12.635,3.895-20.663,6.571-23.028,11.22-1.622,3.213-.9,6.2,2.366,7.82,2.345,1.188,5.166.6,7.666-.392l1.508,4.618c-4.288,1.56-7.934,1.891-12.108-.227-5.847-2.965-7.769-8.565-4.9-14.226,2.738-5.424,10.589-8.43,19.857-11.747-1.653-.651-3.761-1.477-5.248-2.231l-7.48-3.781,2.376-4.7,20.611,10.435Z" transform="translate(-248.986 -789.037)" fill="url(#linear-gradient-17)"/>
          <path id="Path_1379" data-name="Path 1379" d="M509.367,1660.164l-6.581-3.864-11.364,19.381,5.424,3.182-1.963,3.337a22.989,22.989,0,0,0-8.265-1.581l-3.988-2.345,14.732-25.126-5.8-3.4,2.552-4.36L511.94,1655.8Z" transform="translate(-249.742 -789.463)" fill="url(#linear-gradient-18)"/>
          <path id="Path_1380" data-name="Path 1380" d="M481.458,1657.65c-6.447,9.6-13.544,12.077-19.433,8.12s-6.25-11.519.165-21.065,13.73-12.346,19.629-8.379S487.905,1648.062,481.458,1657.65ZM467.088,1648c-5.393,8.038-5.166,11.9-2.376,13.761s6.436.63,11.829-7.408,5.279-12.191,2.552-14.02-6.612-.372-11.995,7.666Z" transform="translate(-250.575 -789.821)" fill="url(#linear-gradient-19)"/>
          <path id="Path_1381" data-name="Path 1381" d="M370.75,1535.675c-12.976-2.6-21.313-4.132-25.611-1.136-2.965,2.067-3.74,4.99-1.663,8.007,1.5,2.169,4.215,2.975,6.932,3.316l-.878,4.783c-4.515-.661-7.883-2.128-10.538-5.992-3.719-5.392-2.728-11.24,2.49-14.846,5-3.45,13.338-2.355,23.07-.837-1.136-1.364-2.6-3.1-3.554-4.474l-4.763-6.9,4.339-3,13.141,19.009Z" transform="translate(-254.575 -793.796)" fill="url(#linear-gradient-20)"/>
          <path id="Path_1382" data-name="Path 1382" d="M339.035,1495.888l2.221,3.688,7.552-4.556,3,4.97-7.552,4.556,7.8,12.935-3.585,2.159-25.126-.651-3.8-6.3,17.625-10.641-2.221-3.678Zm1.126,11.127-6.622,4c-1.7,1.033-4.453,2.5-6.2,3.44l.114.186c1.963-.175,3.936-.238,6-.351l11.364.424Z" transform="translate(-255.145 -794.444)" fill="url(#linear-gradient-21)"/>
          <path id="Path_1383" data-name="Path 1383" d="M330.212,1497.42c-10.238,5.362-17.666,4.132-20.962-2.128s0-13.1,10.187-18.441,17.956-4.3,21.241,1.984S340.45,1492.068,330.212,1497.42Zm-8.027-15.332c-8.575,4.484-10.187,8-8.637,10.951s5.352,3.626,13.927-.857,10.455-8.2,8.926-11.106-5.672-3.472-14.226,1.012Z" transform="translate(-255.527 -795.16)" fill="url(#linear-gradient-22)"/>
          <path id="Path_1384" data-name="Path 1384" d="M289.11,1316.325c-9.691-9-16.024-14.619-21.231-14.34-3.6.2-5.8,2.3-5.589,5.951.145,2.635,2.066,4.742,4.133,6.447l-3.244,3.626c-3.492-2.924-5.6-5.94-5.858-10.6-.362-6.55,3.544-11,9.866-11.364,6.064-.331,12.594,4.969,20.094,11.364-.258-1.766-.6-4-.682-5.661l-.465-8.369,5.259-.289,1.26,23.059Z" transform="translate(-257.207 -801.134)" fill="url(#linear-gradient-23)"/>
          <path id="Path_1385" data-name="Path 1385" d="M262.427,1273.477v16.168h-5.166l-.052-22.925h3.761c9.949,7.986,17.1,9.35,30.426,9.918v6.281C279.267,1282.351,271.632,1280.058,262.427,1273.477Z" transform="translate(-257.21 -802.007)" fill="url(#linear-gradient-24)"/>
          <path id="Path_1386" data-name="Path 1386" d="M274.369,1262.605c-11.53-.754-17.233-5.651-16.778-12.728s6.819-11.178,18.286-10.434,17.563,5.662,17.1,12.749S285.909,1263.36,274.369,1262.605Zm1.126-17.264c-9.649-.63-12.862,1.529-13.079,4.856s2.686,5.878,12.336,6.509,13.183-1.56,13.431-4.825S285.144,1245.982,275.495,1245.342Z" transform="translate(-257.198 -802.914)" fill="url(#linear-gradient-25)"/>
          <path id="Path_1387" data-name="Path 1387" d="M330.379,1082.543a11.2,11.2,0,0,0,7.149-5.372c1.746-3.275,1.26-6.457-1.581-7.986-3.1-1.674-6.2-.754-9.856,6.116l-3.978-2.128c3.172-5.92,2.18-8.957-.62-10.455-2.51-1.343-4.938-.454-6.416,2.3-1.271,2.366-1.126,4.825-.4,7.583l-4.856,1.033a15.094,15.094,0,0,1,1.033-11.085c3.1-5.786,8.069-8.265,13.193-5.5,3.368,1.8,4.577,5.011,4.133,8.968l.186.1c2.851-3.048,6.86-4.38,10.837-2.242,5.5,2.944,6.2,9.464,3.1,15.239a14.877,14.877,0,0,1-9.753,7.955Z" transform="translate(-255.487 -808.991)" fill="url(#linear-gradient-26)"/>
          <path id="Path_1388" data-name="Path 1388" d="M334.335,1056.248c-9.825-6.075-12.573-13.069-8.844-19.1s11.261-6.684,21.045-.641,12.852,13.245,9.123,19.278S344.118,1062.323,334.335,1056.248Zm9.091-14.722c-8.265-5.083-12.077-4.68-13.823-1.839s-.382,6.457,7.841,11.54,12.4,4.8,14.1,2.066.052-6.684-8.172-11.767Z" transform="translate(-255.001 -809.774)" fill="url(#linear-gradient-27)"/>
          <path id="Path_1389" data-name="Path 1389" d="M348.678,1033.169c-9.443-6.653-11.757-13.813-7.666-19.629s11.643-5.982,21.045.641,12.067,14.02,7.934,19.815S358.121,1039.822,348.678,1033.169Zm9.97-14.143c-7.9-5.569-11.767-5.4-13.689-2.686s-.785,6.426,7.129,11.995,12.057,5.548,13.947,2.872.517-6.6-7.408-12.181Z" transform="translate(-254.498 -810.539)" fill="url(#linear-gradient-28)"/>
          <path id="Path_1390" data-name="Path 1390" d="M472.533,920.292a11.179,11.179,0,0,0,8.854-1.312c3.1-2.067,4.195-5.073,2.418-7.769-1.953-2.965-5.083-3.616-11.592.671l-2.479-3.781c5.62-3.688,6.2-6.829,4.453-9.484-1.56-2.376-4.132-2.758-6.736-1.033-2.242,1.477-3.3,3.709-3.977,6.478l-4.742-1.446a15.093,15.093,0,0,1,6.2-9.236c5.486-3.606,11.034-3.389,14.216,1.467,2.066,3.193,1.622,6.591-.672,9.835l.114.176c3.957-1.312,8.12-.568,10.6,3.2,3.43,5.166.9,11.251-4.587,14.856a14.857,14.857,0,0,1-12.4,2.335Z" transform="translate(-250.534 -814.457)" fill="url(#linear-gradient-29)"/>
          <path id="Path_1391" data-name="Path 1391" d="M494.858,905.944a11.168,11.168,0,0,0,8.906-.785c3.213-1.849,4.484-4.8,2.883-7.6-1.767-3.1-4.845-3.905-11.6,0l-2.242-4.008c5.827-3.347,6.581-6.447,5-9.2-1.415-2.469-3.947-3-6.653-1.446-2.335,1.343-3.5,3.5-4.36,6.2l-4.649-1.725a15.094,15.094,0,0,1,6.757-8.833c5.682-3.265,11.209-2.717,14.092,2.314,1.9,3.306,1.229,6.664-1.271,9.773l.114.186c4.029-1.033,8.131-.083,10.331,3.833,3.1,5.4.217,11.282-5.465,14.547a14.877,14.877,0,0,1-12.47,1.591Z" transform="translate(-249.758 -814.935)" fill="url(#linear-gradient-30)"/>
          <path id="Path_1392" data-name="Path 1392" d="M512.031,885.706c-5.166-10.331-3.761-17.739,2.593-20.89s13.1.279,18.2,10.579,3.905,18.038-2.449,21.19S517.166,896.037,512.031,885.706Zm15.5-7.686c-4.3-8.668-7.779-10.331-10.755-8.875s-3.74,5.269.558,13.937,7.965,10.621,10.9,9.164,3.6-5.61-.7-14.267Z" transform="translate(-248.873 -815.359)" fill="url(#linear-gradient-31)"/>
        </g>
      </g>
    </g>
  </g>
</svg>
