<svg xmlns="http://www.w3.org/2000/svg" width="42" height="51.692" viewBox="0 0 42 51.692">
  <g id="trash_1_" data-name="trash (1)" transform="translate(-48)">
    <path id="Path_3250" data-name="Path 3250" d="M85.962,6.462H77.077V4.846A4.846,4.846,0,0,0,72.231,0H65.769a4.846,4.846,0,0,0-4.846,4.846V6.462H52.038A4.039,4.039,0,0,0,48,10.5v3.231a1.615,1.615,0,0,0,1.615,1.615H88.385A1.615,1.615,0,0,0,90,13.731V10.5A4.039,4.039,0,0,0,85.962,6.462ZM64.154,4.846a1.618,1.618,0,0,1,1.615-1.615h6.462a1.618,1.618,0,0,1,1.615,1.615V6.462H64.154Z" fill="#471a6e"/>
    <path id="Path_3251" data-name="Path 3251" d="M73.869,184a.5.5,0,0,0-.5.529L74.7,212.5a4.84,4.84,0,0,0,4.84,4.616h24.532a4.84,4.84,0,0,0,4.84-4.616l1.333-27.971a.5.5,0,0,0-.5-.529Zm24.4,4.038a1.615,1.615,0,1,1,3.231,0v21a1.615,1.615,0,0,1-3.231,0Zm-8.077,0a1.615,1.615,0,0,1,3.231,0v21a1.615,1.615,0,0,1-3.231,0Zm-8.077,0a1.615,1.615,0,0,1,3.231,0v21a1.615,1.615,0,0,1-3.231,0Z" transform="translate(-22.803 -165.423)" fill="#471a6e"/>
  </g>
</svg>
