<svg xmlns="http://www.w3.org/2000/svg" width="46.006" height="46.032" viewBox="0 0 46.006 46.032">
  <path id="hadith" d="M156.036,132.64a4.836,4.836,0,0,1,3.574,2.318c.844,1.291,1.689,2.525,2.566,3.77a1.147,1.147,0,0,1-.01,1.508c-.8,1.119-1.585,2.249-2.319,3.41a5.09,5.09,0,0,1-3.829,2.659c.2.348.391.636.542.941a4.764,4.764,0,0,1,.368,3.121c-.3,1.529-.6,3.059-.862,4.6a1.2,1.2,0,0,1-1.1,1.122c-1.556.266-3.1.58-4.655.871a4.818,4.818,0,0,1-4.031-.946c-.212,2.05-1.519,3.169-3.057,4.134-1.059.657-2.081,1.39-3.106,2.109a1.054,1.054,0,0,1-1.352-.01c-1.194-.834-2.387-1.672-3.614-2.464a5.022,5.022,0,0,1-2.535-3.755,4.814,4.814,0,0,1-3.868.943l-1.33-.246c-1.209-.23-2.415-.468-3.627-.687a.979.979,0,0,1-.894-.866c-.329-1.815-.693-3.625-1.007-5.444-.164-.936.115-1.807.967-3.408-.164-.031-.315-.053-.462-.087a4.614,4.614,0,0,1-2.85-1.9c-.956-1.385-1.887-2.792-2.852-4.164a1.082,1.082,0,0,1,.013-1.4c.821-1.15,1.633-2.316,2.388-3.512a5.056,5.056,0,0,1,3.778-2.605c-.238-.453-.485-.853-.657-1.278a4.476,4.476,0,0,1-.263-2.664c.312-1.61.623-3.221.913-4.836a1.053,1.053,0,0,1,.941-.969c1.643-.291,3.265-.606,4.895-.925a4.78,4.78,0,0,1,3.858.926c.136-.468.228-.9.391-1.314a4.482,4.482,0,0,1,1.687-2.068c1.375-.933,2.755-1.856,4.118-2.806a1.08,1.08,0,0,1,1.4.013c1.158.821,2.318,1.629,3.512,2.388a5.021,5.021,0,0,1,2.6,3.831,4.852,4.852,0,0,1,4.059-.949c.4.085.8.154,1.209.232,1.188.228,2.374.465,3.564.68a.976.976,0,0,1,.9.862c.329,1.815.692,3.625,1.007,5.444C157.173,130.146,156.9,131.007,156.036,132.64Zm-23.913,6.85c.657.611,1.248,1.114,1.767,1.687a1.771,1.771,0,0,1,.409.967,17.712,17.712,0,0,1,.015,2.03c0,.32.115.437.432.43.636-.015,1.273.016,1.907-.01a1.444,1.444,0,0,1,1.194.5c.511.549,1.056,1.064,1.682,1.692a4.159,4.159,0,0,1,4.6-2.191c.343.059.473-.11.462-.457a12.532,12.532,0,0,1,.016-1.905,2.216,2.216,0,0,1,.476-1.122c.493-.567,1.079-1.048,1.718-1.651-.669-.627-1.265-1.132-1.785-1.705a1.767,1.767,0,0,1-.412-.964,17.734,17.734,0,0,1-.015-2.03c0-.315-.108-.442-.429-.434-.636.015-1.273-.016-1.907.01a1.436,1.436,0,0,1-1.194-.493c-.511-.549-1.058-1.063-1.685-1.689a4.159,4.159,0,0,1-4.6,2.186c-.342-.059-.475.105-.465.453a14.923,14.923,0,0,1-.015,1.971,1.943,1.943,0,0,1-.429,1.022c-.493.557-1.066,1.053-1.743,1.7Zm-2.36-.008c-1.693-1.7-3.339-3.351-4.99-5a.575.575,0,0,0-.266-.136,3.449,3.449,0,0,0-3.668,1.426c-.741,1.082-1.459,2.181-2.222,3.246a.662.662,0,0,0,.01.915c.772,1.086,1.5,2.2,2.255,3.3a3.449,3.449,0,0,0,3.642,1.355.843.843,0,0,0,.35-.228c1.613-1.6,3.223-3.213,4.89-4.875Zm9.691-9.718c1.68-1.674,3.321-3.307,4.957-4.943a.657.657,0,0,0,.164-.251,3.524,3.524,0,0,0-1.229-3.579c-1.15-.821-2.344-1.583-3.494-2.4a.6.6,0,0,0-.811.031c-1.11.772-2.237,1.519-3.353,2.285a3.449,3.449,0,0,0-1.345,3.645.734.734,0,0,0,.194.3c1.613,1.625,3.238,3.246,4.908,4.915Zm9.691,9.709c1.675,1.674,3.3,3.3,4.928,4.916a.743.743,0,0,0,.3.2,3.486,3.486,0,0,0,3.538-1.191q1.262-1.781,2.447-3.614a.708.708,0,0,0,0-.631q-1.174-1.807-2.413-3.563a3.506,3.506,0,0,0-3.578-1.235.636.636,0,0,0-.255.164c-1.651,1.628-3.287,3.267-4.975,4.957Zm-9.691,9.676c-1.666,1.671-3.274,3.285-4.877,4.895a.85.85,0,0,0-.23.35,3.455,3.455,0,0,0,1.15,3.494c1.2.857,2.428,1.677,3.661,2.487a.657.657,0,0,0,.583.015c1.25-.821,2.5-1.652,3.709-2.526a3.553,3.553,0,0,0,1.122-3.509.657.657,0,0,0-.164-.251c-1.643-1.636-3.28-3.27-4.966-4.954Zm6.868-16.623a1.111,1.111,0,0,0,.237.072h6.705a.767.767,0,0,0,.353-.069,3.471,3.471,0,0,0,1.643-3.449c-.246-1.37-.521-2.737-.757-4.106a.563.563,0,0,0-.54-.539c-1.191-.2-2.39-.383-3.559-.677a3.366,3.366,0,0,0-3.6,1.1,1.654,1.654,0,0,0-.493,1.242c.028,1.518.01,3.036.01,4.552-.013.626-.013,1.257-.013,1.876Zm.076,13.8a1.263,1.263,0,0,0-.067.245v6.705a.736.736,0,0,0,.077.35,3.449,3.449,0,0,0,3.459,1.633c1.37-.246,2.741-.493,4.106-.78a.772.772,0,0,0,.5-.468c.306-1.442.575-2.893.829-4.345a3.524,3.524,0,0,0-1.685-3.274.657.657,0,0,0-.294-.062c-2.314,0-4.611,0-6.94,0Zm-13.8-13.717v-7a.647.647,0,0,0-.064-.294,3.45,3.45,0,0,0-3.449-1.643c-1.37.25-2.735.521-4.106.761a.566.566,0,0,0-.547.534c-.246,1.413-.532,2.817-.777,4.23a1.844,1.844,0,0,0,.02.966,10.122,10.122,0,0,0,.892,1.643,1.9,1.9,0,0,0,1.9.821c1.37-.067,2.746-.018,4.121-.018Zm0,13.716c-2.1,0-4.088.049-6.078-.021a2.367,2.367,0,0,0-2.065.9,2.989,2.989,0,0,0-.8,2.651c.268,1.367.531,2.735.762,4.106.064.381.246.493.6.555,1.191.2,2.385.4,3.558.682a3.335,3.335,0,0,0,3.5-1.061,1.774,1.774,0,0,0,.54-1.347c-.031-1.907-.011-3.814-.011-5.721Zm5.486-15.251-3.727-3.712v5.127a2.972,2.972,0,0,0,3.722-1.413ZM140.8,131a3.03,3.03,0,0,0,3.739,1.51v-5.256Zm-9.8,7.132a3.027,3.027,0,0,0,1.487-3.757h-5.187Zm16.8-.025,3.729-3.742h-5.133c-.36,1.8-.161,2.3,1.411,3.742Zm-20.445,6.436h5.128a3,3,0,0,0-1.442-3.725Zm19.031,0h5.2l-3.737-3.762C146.232,142.246,146.053,142.7,146.383,144.547Zm-12.012,1.873v5.194l3.75-3.688A3.044,3.044,0,0,0,134.371,146.419Zm10.184.021a3.009,3.009,0,0,0-3.735,1.431l3.735,3.727Z" transform="translate(-116.448 -116.464)" fill="#431970"/>
</svg>
