<svg xmlns="http://www.w3.org/2000/svg" width="326" height="325" viewBox="0 0 326 325">
  <g id="Group_1409" data-name="Group 1409" transform="translate(-76 -828)">
    <g id="Group_1183" data-name="Group 1183" transform="translate(76.07 827.555)" opacity="0.09">
      <ellipse id="Ellipse_10742" data-name="Ellipse 10742" cx="163" cy="162.5" rx="163" ry="162.5" transform="translate(-0.07 0.445)" fill="#fb5c60"/>
    </g>
    <path id="Path_3248" data-name="Path 3248" d="M171.106,292H36.894A15.912,15.912,0,0,0,21,307.894v45.915A15.912,15.912,0,0,0,36.894,369.7H171.106A15.912,15.912,0,0,0,187,353.809V307.894A15.912,15.912,0,0,0,171.106,292ZM61.076,353.779c-4.048.023-6.81.033-8.712.033a30.872,30.872,0,0,1-4.581-.109,5.3,5.3,0,0,1-4.4-5.222V313.191a5.3,5.3,0,1,1,10.6,0v30.019c2.119,0,4.644-.014,7.04-.028h.03a5.3,5.3,0,0,1,.029,10.6Zm24.7-5.268a5.3,5.3,0,1,1-10.6,0V313.191a5.3,5.3,0,1,1,10.6,0Zm44.27-33.584-11.532,34.714-.012.037a6.1,6.1,0,0,1-5.731,4.132h-.04a6.1,6.1,0,0,1-5.744-4.056l-.012-.035L94.9,314.929a5.3,5.3,0,0,1,10.01-3.475l7.729,22.265,7.352-22.133a5.3,5.3,0,1,1,10.055,3.34Zm28.183,10.626a5.3,5.3,0,1,1,0,10.6h-8.487v7.064h9.584a5.3,5.3,0,1,1,0,10.6H144.44a5.3,5.3,0,0,1-5.3-5.3V313.191a5.3,5.3,0,0,1,5.3-5.3h14.882a5.3,5.3,0,0,1,0,10.6h-9.584v7.064Z" transform="translate(135 660)" fill="red"/>
  </g>
</svg>
