<svg xmlns="http://www.w3.org/2000/svg" xmlns:xlink="http://www.w3.org/1999/xlink" version="1.1" x="0px" y="0px" viewBox="0 0 100 125" style="enable-background:new 0 0 100 100;" xml:space="preserve"><path d="M66.5,35c-2.479,0-4.663,1.223-6.029,3.081c-5.215,0.395-10.628,2.759-15.075,6.666c-0.939,0.823-1.269,2.142-0.829,3.311  C45.008,49.227,46.125,50,47.375,50c2.046,0,4.285,1.494,6.65,3.287c-0.034,0-0.066,0-0.1,0c-4.779-0.039-10.119,0.03-12.199,4.837  c-2.022-1.674-3.725-5.892-3.727-8.127V44c0-1.658-1.343-3-3-3s-3,1.342-3,3v6c0,1.172-0.144,5.001-2,5.001  c-0.722,0-1.315-1.008-1.315-1.008c-0.741-1.482-2.539-2.083-4.027-1.342c-1.482,0.741-2.083,2.543-1.342,4.025  c0.803,1.605,3.114,4.324,6.684,4.324c0.714,0,2.945-0.167,4.872-1.905c2.034,3.342,5.005,5.91,8.887,5.91  C45.834,65.006,47,63.55,47,62c0-2.656,1.254-2.753,6.888-2.713c3.012-0.003,6.439,0.041,9.305-1.198  c1.037-0.451,1.734-1.444,1.802-2.572c0.069-1.128-0.502-2.2-1.478-2.771c-3.079-1.803-6.151-4.767-9.453-6.7  c1.696-0.862,3.445-1.438,5.176-1.756C60.047,47.56,62.984,50,66.5,50c4.135,0,7.5-3.363,7.5-7.5S70.635,35,66.5,35z M66.5,44  c-0.828,0-1.5-0.674-1.5-1.5s0.672-1.5,1.5-1.5s1.5,0.674,1.5,1.5S67.328,44,66.5,44z"/><path d="M93.794,47.132L83,36.333V21.055C83,18.819,81.181,17,78.942,17l-15.274,0.006l-10.8-10.802  c-0.003-0.003-0.004-0.006-0.007-0.009c-1.578-1.567-4.143-1.564-5.729,0.009L36.334,17H21.056C18.819,17,17,18.819,17,21.055  v15.278L6.206,47.132c-1.582,1.582-1.582,4.154,0,5.736L17,63.667v15.278C17,81.181,18.819,83,21.056,83h15.278l10.805,10.805  c1.574,1.562,4.142,1.566,5.729-0.009L63.666,83H78.95c2.234,0,4.05-1.816,4.05-4.049V63.667l10.794-10.799  C95.376,51.286,95.376,48.714,93.794,47.132z M78.194,59.987C77.425,60.752,77,61.771,77,62.858V77H62.861  c-1.078,0-2.093,0.419-2.867,1.187L50,88.18L39.998,78.178C39.232,77.419,38.217,77,37.139,77H23V62.861  c0-1.078-0.419-2.095-1.188-2.868L11.822,50l9.998-10.002C22.581,39.233,23,38.217,23,37.139V23h14.139  c1.078,0,2.093-0.419,2.867-1.187L50,11.82l9.987,9.987c0.766,0.773,1.787,1.198,2.875,1.198L77,23v14.139  c0,1.078,0.419,2.095,1.188,2.868L88.178,50L78.194,59.987z"/><text x="0" y="115" fill="#000000" font-size="5px" font-weight="bold" font-family="'Helvetica Neue', Helvetica, Arial-Unicode, Arial, Sans-serif">Created by Ayub Irawan</text><text x="0" y="120" fill="#000000" font-size="5px" font-weight="bold" font-family="'Helvetica Neue', Helvetica, Arial-Unicode, Arial, Sans-serif">from the Noun Project</text></svg>