<svg xmlns="http://www.w3.org/2000/svg" viewBox="0 0 64 64" id="pray"><path d="M59 20a4.16 4.16 0 0 0-2 .47V12a3.89 3.89 0 0 0-4-4 4.11 4.11 0 0 0-2 .49A3.84 3.84 0 0 0 47 5a3.76 3.76 0 0 0-3.76 2.61A4.09 4.09 0 0 0 41 7a3.89 3.89 0 0 0-4 4v1.47a4.16 4.16 0 0 0-2-.47 3.78 3.78 0 0 0-3 1.29A3.78 3.78 0 0 0 29 12a4.16 4.16 0 0 0-2 .47V11a3.89 3.89 0 0 0-4-4 4.09 4.09 0 0 0-2.24.61A3.76 3.76 0 0 0 17 5a3.84 3.84 0 0 0-4 3.49A4.11 4.11 0 0 0 11 8a3.89 3.89 0 0 0-4 4v8.47A4.16 4.16 0 0 0 5 20a3.89 3.89 0 0 0-4 4v10.34a4.94 4.94 0 0 0 1.47 3.54L7 42.41V44H6a1 1 0 0 0-1 1v13a1 1 0 0 0 1 1h22a1 1 0 0 0 1-1V45a1 1 0 0 0-1-1h-1v-1.59l4.52-4.52a5.27 5.27 0 0 0 .48-.58 5.27 5.27 0 0 0 .48.58L37 42.41V44h-1a1 1 0 0 0-1 1v13a1 1 0 0 0 1 1h22a1 1 0 0 0 1-1V45a1 1 0 0 0-1-1h-1v-1.59l4.54-4.53A5 5 0 0 0 63 34.34V24a3.89 3.89 0 0 0-4-4ZM27 57H7V46h20Zm3.11-20.52-4.82 4.81A1 1 0 0 0 25 42v2H9v-2a1 1 0 0 0-.29-.71l-4.83-4.82A3 3 0 0 1 3 34.34V24a1.89 1.89 0 0 1 2-2 1.88 1.88 0 0 1 2 2v5a1 1 0 0 0 .29.71l4.71 4.7V38a1 1 0 0 0 2 0v-4a1 1 0 0 0-.29-.71L9 28.59V12a1.89 1.89 0 0 1 2-2 1.88 1.88 0 0 1 2 2v12a1 1 0 0 0 2 0V9a1.89 1.89 0 0 1 2-2 1.88 1.88 0 0 1 2 2v15a1 1 0 0 0 2 0V11a1.89 1.89 0 0 1 2-2 1.88 1.88 0 0 1 2 2v13a1 1 0 0 0 2 0v-8a2 2 0 0 1 4 0v18.32a3.06 3.06 0 0 1-.89 2.16ZM57 57H37V46h20Zm4-22.66a2.94 2.94 0 0 1-.88 2.12l-4.83 4.83A1 1 0 0 0 55 42v2H39v-2a1 1 0 0 0-.29-.71l-4.82-4.81a3.06 3.06 0 0 1-.89-2.16V16a2 2 0 0 1 4 0v8a1 1 0 0 0 2 0V11a2 2 0 0 1 4 0v13a1 1 0 0 0 2 0V9a2 2 0 0 1 4 0v15a1 1 0 0 0 2 0V12a2 2 0 0 1 4 0v16.59l-4.71 4.7A1 1 0 0 0 50 34v4a1 1 0 0 0 2 0v-3.59l4.71-4.7A1 1 0 0 0 57 29v-5a2 2 0 0 1 4 0Z"></path></svg>