<svg xmlns="http://www.w3.org/2000/svg" width="326" height="325" viewBox="0 0 326 325">
  <g id="Group_1327" data-name="Group 1327" transform="translate(-515 -828)">
    <g id="Group_1326" data-name="Group 1326">
      <path id="Path_3249" data-name="Path 3249" d="M163,0c90.022,0,163,72.754,163,162.5S253.022,325,163,325,0,252.246,0,162.5,72.978,0,163,0Z" transform="translate(515 828)" fill="#f6effb"/>
      <g id="qibla" transform="translate(587 899)">
        <path id="Path_3192" data-name="Path 3192" d="M91.387,0a91.387,91.387,0,1,0,91.387,91.387A91.387,91.387,0,0,0,91.387,0Zm0,173.635a82.248,82.248,0,1,1,82.248-82.248A82.248,82.248,0,0,1,91.387,173.635Z" fill="#481a6d"/>
        <path id="Path_3193" data-name="Path 3193" d="M126.627,243.169l42.647-9.994v-8.749l-42.647,12.493Z" transform="translate(-80.934 -143.442)" fill="#481a6d"/>
        <path id="Path_3194" data-name="Path 3194" d="M126.627,197.627l42.647-12.5V172.88l-42.647,17.138Z" transform="translate(-80.934 -110.496)" fill="#481a6d"/>
        <path id="Path_3195" data-name="Path 3195" d="M240.777,85.434a3.041,3.041,0,0,1,1.568.434l5.477,3.286-7.045-12.679-7.045,12.679,5.477-3.286a3.038,3.038,0,0,1,1.568-.434Z" transform="translate(-149.39 -48.879)" fill="#481a6d"/>
        <path id="Path_3196" data-name="Path 3196" d="M126.627,304.06l42.647,16.846V266.018l-42.647,9.995Z" transform="translate(-80.934 -170.025)" fill="#481a6d"/>
        <path id="Path_3197" data-name="Path 3197" d="M303.9,350.872l12.185-4.813V324.346L303.9,322.317Z" transform="translate(-194.241 -206.009)" fill="#481a6d"/>
        <path id="Path_3198" data-name="Path 3198" d="M261.7,233.175l42.647,9.994v-6.251L261.7,224.426Z" transform="translate(-167.263 -143.442)" fill="#481a6d"/>
        <path id="Path_3199" data-name="Path 3199" d="M118.365,42.209a76.156,76.156,0,1,0,76.156,76.156,76.156,76.156,0,0,0-76.156-76.156ZM100.471,74.238,115.7,46.822a3.168,3.168,0,0,1,5.325,0l15.231,27.416a3.046,3.046,0,0,1-4.23,4.092l-13.664-8.2-13.664,8.2a3.046,3.046,0,0,1-4.23-4.092Zm69.68,88.846a3.047,3.047,0,0,1-1.928,2.833l-48.74,19.252a3.03,3.03,0,0,1-2.237,0l-48.74-19.252a3.047,3.047,0,0,1-1.928-2.833v-58.64a3.043,3.043,0,0,1,1.91-2.826l48.74-19.585a3.034,3.034,0,0,1,2.273,0l48.74,19.585a3.043,3.043,0,0,1,1.91,2.826Z" transform="translate(-26.978 -26.978)" fill="#481a6d"/>
        <path id="Path_3200" data-name="Path 3200" d="M261.7,320.9l9.139-3.61V282.733a3.04,3.04,0,0,1,1.077-2.324,3.086,3.086,0,0,1,2.469-.681l18.277,3.046a3.045,3.045,0,0,1,2.547,3v21.887l9.139-3.61V276.009l-42.647-10Z" transform="translate(-167.263 -170.023)" fill="#481a6d"/>
        <path id="Path_3201" data-name="Path 3201" d="M261.7,185.132l42.647,12.5v-7.609L261.7,172.88Z" transform="translate(-167.263 -110.496)" fill="#481a6d"/>
      </g>
    </g>
  </g>
</svg>
