<svg id="Group_847" data-name="Group 847" xmlns="http://www.w3.org/2000/svg" width="60.724" height="46.393" viewBox="0 0 60.724 46.393">
  <g id="Group_846" data-name="Group 846">
    <path id="Path_1428" data-name="Path 1428" d="M37,35.049h-.005a2.142,2.142,0,0,0-1.522.631,2.164,2.164,0,0,0-.64,1.542V69.806a2.18,2.18,0,0,0,2.176,2.172c5.058.012,13.532,1.066,19.378,7.184v-34.1a2.082,2.082,0,0,0-.3-1.1C51.29,36.235,42.069,35.061,37,35.049Z" transform="translate(-27.711 -35.049)" fill="#474545"/>
    <path id="Path_1429" data-name="Path 1429" d="M178.3,69.8V37.221a2.164,2.164,0,0,0-.64-1.542,2.142,2.142,0,0,0-1.522-.631h-.005c-5.069.012-14.29,1.186-19.088,8.913a2.082,2.082,0,0,0-.3,1.1v34.1c5.846-6.118,14.32-7.172,19.378-7.184A2.18,2.18,0,0,0,178.3,69.8Z" transform="translate(-124.702 -35.048)" fill="#474545"/>
    <path id="Path_1430" data-name="Path 1430" d="M194.973,71.8H193.4V99.043a5.559,5.559,0,0,1-5.541,5.546c-4.29.01-11.364.849-16.374,5.591,8.665-2.121,17.8-.742,23,.444a2.173,2.173,0,0,0,2.659-2.117V73.974A2.175,2.175,0,0,0,194.973,71.8Z" transform="translate(-136.421 -64.287)" fill="#474545"/>
    <path id="Path_1431" data-name="Path 1431" d="M3.748,99.043V71.8H2.173A2.175,2.175,0,0,0,0,73.974v34.533a2.173,2.173,0,0,0,2.659,2.117c5.206-1.186,14.34-2.565,23-.444-5.01-4.741-12.084-5.58-16.374-5.59A5.559,5.559,0,0,1,3.748,99.043Z" transform="translate(0 -64.287)" fill="#474545"/>
  </g>
</svg>
