<svg xmlns="http://www.w3.org/2000/svg" width="725.034" height="1328.279" viewBox="0 0 725.034 1328.279">
  <g id="tasbihillustration" transform="translate(0 0.027)">
    <g id="Layer_2" data-name="Layer 2" transform="translate(0 -0.027)">
      <path id="Path_1623" data-name="Path 1623" d="M196.223,147.345h0c-.2.4-.432.792-.648,1.2l-1.117,1.873a56.088,56.088,0,0,1-4.562,6.315c-.216.288-.444.564-.684.84a64.833,64.833,0,0,1-6.892,6.94h0c-.492.408-.985.828-1.489,1.2a47.8,47.8,0,0,1-17.733,9.521,32.753,32.753,0,0,1-9.425,1.2,30.015,30.015,0,0,1-7.684-1.2,35.658,35.658,0,0,1-14.407-8.4l-.985-.948a51.3,51.3,0,0,1-3.782-4.166,43.222,43.222,0,0,1-7.048-12.33c-.336-.876-.624-1.765-.888-2.665a43.462,43.462,0,0,1,14.311-46.092,44.773,44.773,0,0,1,4.37-3.122l.144-.084a42.848,42.848,0,0,1,5.379-2.857h0a40.9,40.9,0,0,1,5.031-1.861,43.33,43.33,0,0,1,19.738-1.2,44.282,44.282,0,0,1,4.959,1.2c.684.192,1.369.408,2.041.648a43.571,43.571,0,0,1,19.414,13.591C204.243,119.106,203.426,134.15,196.223,147.345Z" transform="translate(23.491 18.265)" fill="#5a2a86"/>
      <path id="Path_1624" data-name="Path 1624" d="M148.17,93.745c0,3.6-1.453,8.4-4.526,13.519-4.73,7.984-13.315,16.929-26.414,23.88a43.222,43.222,0,0,1,15.932-30.82,44.774,44.774,0,0,1,4.37-3.122l.144-.084a42.849,42.849,0,0,1,5.379-2.857h0a40.9,40.9,0,0,1,5.031-1.861,10.23,10.23,0,0,1,.084,1.345Z" transform="translate(23.519 18.569)" fill="#bdaacf"/>
      <path id="Path_1625" data-name="Path 1625" d="M193.041,147.054h0c-.2.4-.432.792-.648,1.2l-1.117,1.873a56.087,56.087,0,0,1-4.562,6.315c-22.091,4.875-53.764,4.082-53.764,4.082s23.28-20.567,7.492-53.248a74.437,74.437,0,0,0-6-10.169,42.848,42.848,0,0,1,5.379-2.857h0c1.513-.156,3.242-.324,5.115-.492,7-.612,16.1-1.273,24.613-1.429.684.192,1.369.408,2.041.648A43.571,43.571,0,0,1,191,106.569C201.061,118.816,200.245,133.859,193.041,147.054Z" transform="translate(26.673 18.555)" fill="#442065"/>
      <path id="Path_1626" data-name="Path 1626" d="M234.251,110.435h0c-.24.468-.5.924-.756,1.381-.42.732-.852,1.465-1.3,2.185a69.07,69.07,0,0,1-6.087,8.308,74.581,74.581,0,0,1-8.008,8.056h0l-1.741,1.453a55.889,55.889,0,0,1-20.6,11.058,38.18,38.18,0,0,1-10.938,1.333,34.71,34.71,0,0,1-8.921-1.381,41.289,41.289,0,0,1-16.665-9.773l-1.2-1.1a59.533,59.533,0,0,1-4.382-4.8,50.21,50.21,0,0,1-8.128-14.347c-.384-1.021-.72-2.053-1.033-3.1a50.426,50.426,0,0,1,16.485-53.536,48.484,48.484,0,0,1,5.079-3.6,50.426,50.426,0,0,1,59.611,4.466,49.523,49.523,0,0,1,6.3,6.4C243.5,77.647,242.475,95.116,234.251,110.435Z" transform="translate(28.565 9.034)" fill="#5a2a86"/>
      <path id="Path_1627" data-name="Path 1627" d="M144.5,108.418a50.426,50.426,0,0,1,16.485-53.536,48.48,48.48,0,0,1,5.079-3.6C167.831,69.577,160.1,91.993,144.5,108.418Z" transform="translate(28.567 10.32)" fill="#bdaacf"/>
      <path id="Path_1628" data-name="Path 1628" d="M223.5,115.675a74.585,74.585,0,0,1-8.008,8.056h0l-1.741,1.441a55.889,55.889,0,0,1-20.6,11.058,38.18,38.18,0,0,1-10.938,1.333,34.71,34.71,0,0,1-8.921-1.381,41.289,41.289,0,0,1-16.665-9.773l-1.2-1.1c5.031-10.674,7.66-22.428,9.029-31.552A129.914,129.914,0,0,0,166.01,78s31.132.792,47.581,14.083c5.211,4.19,8.945,9.6,9.761,16.7A36.126,36.126,0,0,1,223.5,115.675Z" transform="translate(31.181 15.68)" fill="#442065"/>
      <path id="Path_1629" data-name="Path 1629" d="M230.714,107.108h0c-.24.468-.5.924-.756,1.381-.42.732-.852,1.465-1.3,2.185a69.07,69.07,0,0,1-6.087,8.308,74.581,74.581,0,0,1-8.008,8.056h0l-1.741,1.453a55.889,55.889,0,0,1-20.6,11.058,38.18,38.18,0,0,1-10.938,1.333,34.71,34.71,0,0,1-8.921-1.381c0-15.512-5.163-29.835-8.789-42.43-3.482-12.078-5.607-22.572-.6-31C173.2,48.782,224.987,83.984,230.714,107.108Z" transform="translate(32.102 12.361)" fill="#170a21"/>
      <path id="Path_1630" data-name="Path 1630" d="M227.955,104.312c-.42.732-.852,1.465-1.3,2.185a69.071,69.071,0,0,1-6.087,8.308,74.582,74.582,0,0,1-8.008,8.056h0l-1.741,1.441a55.889,55.889,0,0,1-20.6,11.058c-17.817-7.408-17-27.014-20.218-47.521,0,0-.144-3.89,1.5-5.247,1.4-1.2,21.467,1.837,39.164,8.608,3.062,1.2,6,2.4,8.861,3.842A17.181,17.181,0,0,1,227.955,104.312Z" transform="translate(34.105 16.55)"/>
      <path id="Path_1631" data-name="Path 1631" d="M354.669,110.565c0,15.608-16.1,28.215-36.019,28.215h-1.045a42.67,42.67,0,0,1-18.165-4.334,35.43,35.43,0,0,1-5.067-3.05h0c-6.123-4.394-10.3-10.421-11.418-17.2a1.807,1.807,0,0,0-.1-.708,23.125,23.125,0,0,1-.18-2.894c0-13.555,12.186-24.865,28.431-27.614a45.623,45.623,0,0,1,7.552-.624h2.017a24.2,24.2,0,0,1,2.653.192,43.438,43.438,0,0,1,8.752,1.789C345.328,88.533,354.669,98.738,354.669,110.565Z" transform="translate(56.712 16.553)" fill="#5a2a86"/>
      <path id="Path_1632" data-name="Path 1632" d="M294.4,131.375h0c-6.123-4.394-10.3-10.421-11.418-17.2a1.807,1.807,0,0,0-.1-.708,23.137,23.137,0,0,1-.18-2.894c0-13.555,12.186-24.865,28.431-27.614a45.624,45.624,0,0,1,7.552-.624h2.017a24.2,24.2,0,0,1,2.653.192,43.438,43.438,0,0,1,8.716,1.813C345.13,110.22,323.375,141.821,294.4,131.375Z" transform="translate(56.718 16.549)" fill="#170a21"/>
      <path id="Path_1633" data-name="Path 1633" d="M307.277,107.2c-9.353,7.612-18.55,8.608-24.3,6.868a1.808,1.808,0,0,0-.1-.708,23.125,23.125,0,0,1-.18-2.894c0-13.555,12.186-24.865,28.431-27.614C319.667,89.778,317,99.286,307.277,107.2Z" transform="translate(56.716 16.653)" fill="#bdaacf"/>
      <path id="Path_1634" data-name="Path 1634" d="M378.037,82.715c0,15.608-16.1,28.215-36.019,28.215h-1.045a42.67,42.67,0,0,1-18.165-4.37c-9.1-4.514-15.44-12.126-16.593-20.963A23.093,23.093,0,0,1,306,82.715C306,67.107,322.112,54.5,342.019,54.5h2.017a24.2,24.2,0,0,1,2.653.192C364.386,56.517,378.037,68.307,378.037,82.715Z" transform="translate(61.39 10.966)" fill="#5a2a86"/>
      <path id="Path_1635" data-name="Path 1635" d="M344.06,54.536a14.582,14.582,0,0,1-.228,2.978c-2.4,13.039-22.5,24.012-37.591,28.083a23.1,23.1,0,0,1-.24-2.881C306,67.107,322.112,54.5,342.019,54.5h1.549Z" transform="translate(61.39 10.966)" fill="#bdaacf"/>
      <path id="Path_1636" data-name="Path 1636" d="M375.229,82.711c0,15.608-16.1,28.215-36.019,28.215h-1.045A42.67,42.67,0,0,1,320,106.555c20.23-10.806,22.7-25.765,21-49.045-.072-.985-.144-1.981-.24-2.99h.468a24.206,24.206,0,0,1,2.653.192C361.577,56.513,375.229,68.3,375.229,82.711Z" transform="translate(64.199 10.97)" fill="#442065"/>
      <path id="Path_1637" data-name="Path 1637" d="M372.193,82.67c0,15.608-16.1,28.215-36.019,28.215H335.13c6-5.787,8.693-15.74,7.1-23.016-1.7-7.792-3.6-23.412-1.381-33.149C358.542,56.473,372.193,68.263,372.193,82.67Z" transform="translate(67.234 11.01)" fill="#170a21"/>
      <path id="Path_1638" data-name="Path 1638" d="M465.841,1211.626H0V602.035l128.683-19.162,10.589-1.573,7.264,14.035,4.442,8.56,23.9,46.152,31.816,61.4.024.048Z" transform="translate(0 116.653)" fill="#bd572c"/>
      <path id="Path_1639" data-name="Path 1639" d="M230.519,1211.626H0V602.035l128.683-19.21,10.589-1.525,7.2,14.047,4.442,8.56,23.9,46.152c-22.416,9.377-33.149,30.8-33.149,30.8Z" transform="translate(0 116.653)" fill="#9a2c18"/>
      <path id="Path_1640" data-name="Path 1640" d="M177.788,1211.626H0V602.035l128.683-19.162,10.589-1.573,7.264,14.035,4.442,8.56L123.664,631.93Z" transform="translate(0 116.653)" fill="#732112"/>
      <path id="Path_1641" data-name="Path 1641" d="M431.3,1189.871H380.284L172.18,689.74Z" transform="translate(34.543 138.408)" fill="#e67f27"/>
      <path id="Path_1642" data-name="Path 1642" d="M632.727,209.3,146.476,669.978,134.47,681.432l-4.8,4.514L0,732.411V262.043l197.742-16.485,138.924-11.574Z" transform="translate(0 42.022)" fill="#bd572c"/>
      <path id="Path_1643" data-name="Path 1643" d="M336.666,229.86c-1.657,1.033-19.51,7.06-45.624,15.608-18.718,6.135-41.662,13.555-65.9,21.335-13.771,4.43-27.95,8.969-42.022,13.459-68.423,21.8-133.893,42.574-133.893,42.574l79.457,330.543,5.787,23.928-4.8,4.514L0,728.286v-438.8l6.315-1.537,83.563-20.3,107.864-26.21Z" transform="translate(0 46.147)" fill="#9a2c18"/>
      <path id="Path_1644" data-name="Path 1644" d="M673.344,179.109c-4.8,20.639-16.809,41.1-40.617,58.278l-45.383,7.576h0l-270.38,45.155h-.06L183.167,312.45,0,343.042v-184.9L605.905,75.3l43.631-6S686.107,124.793,673.344,179.109Z" transform="translate(0 13.935)" fill="#efa820"/>
      <path id="Path_1645" data-name="Path 1645" d="M605.905,74.27,0,173.537V157.149Z" transform="translate(0 14.932)" fill="#f9dca6"/>
      <path id="Path_1646" data-name="Path 1646" d="M673.344,160.76c-4.8,20.639-16.809,41.1-40.617,58.278l-45.383,7.576h0L291.079,259.307h0l-201.2,22.2h0L0,291.424V246.172Z" transform="translate(0 32.284)" fill="#e67f27"/>
      <path id="Path_1647" data-name="Path 1647" d="M316.856,253.23,183.167,275.55,0,306.141V283.87l6.315-.612,218.861-21.167Z" transform="translate(0 50.835)" fill="#bd572c"/>
      <path id="Path_1648" data-name="Path 1648" d="M117.25,139.263c52.731,1.429,79-28.707,104.154,22.163s81.642,117.157,93.1,143.042,1.945,127.626,61.388,151.855C415.844,426.007,403.5,397.4,403.5,397.4s-63.189-226.761-93.264-252.13-67.8-65.494-103.253-65.326S117.25,139.263,117.25,139.263Z" transform="translate(23.523 16.07)" fill="#170a21" opacity="0.25"/>
      <path id="Path_1649" data-name="Path 1649" d="M303.17,113.421c75.375,7.2,167.03,11.514,175.291,62.216s14.612,140,14.612,140l74.03-72.265S538.192,120.913,501.068,83.346,430.952,49.1,408.524,56.584,303.17,113.421,303.17,113.421Z" transform="translate(60.822 10.431)" fill="#170a21" opacity="0.25"/>
      <path id="Path_1650" data-name="Path 1650" d="M590.307,816.079c1.1,1.441,13.891,18.261,22.031,26.306,2.4,2.341,4.334,3.938,5.511,4.2-9.6-10.193-12.727-57.234-40.089-65.386h-.132c-13.411-3.926-32.321-1.873-48.157,1.2a266.108,266.108,0,0,0-29.883,7.756c-5.4,39.02,31.816,94.849,53.428,115.26C530.8,876,530,870.6,530,870.6a206.852,206.852,0,0,1,33.065,43.354,134.58,134.58,0,0,1,7.2,15.044c.96,2.4,1.849,4.8,2.629,7.2-2.005-7.012-5.067-18.165-5.006-20.591,11.682,13.327,4.8,51.23,29.127,73.814,1.2,4.694,2.161,9.233,2.785,13.207,8.512-44.267,28.287-86.385,4.55-134.974,11.694,22.2,17.889,37.867,18.333,51.879C631.8,861.27,611.306,852.65,590.307,816.079Zm-4.875,135.562s6.928,19.414,11.394,37.075C587.438,976.566,585.433,951.641,585.433,951.641Z" transform="translate(100.122 156.324)" fill="#bdaacf"/>
      <path id="Path_1651" data-name="Path 1651" d="M570.3,928.436a134.58,134.58,0,0,0-7.2-15.044,206.859,206.859,0,0,0-33.065-43.354s.8,5.4,23.016,34.818c-21.611-20.411-58.83-76.239-53.428-115.26A266.082,266.082,0,0,1,529.5,781.84c24.313,2.533,46.356,6,46.356,6-13.207,21.611-49.225,33.005-60.655,35.118s2.725,33.017,23.136,51.026C554.679,888.4,567,914.833,570.3,928.436Z" transform="translate(100.128 156.885)" fill="#8e809b" opacity="0.58"/>
      <path id="Path_1652" data-name="Path 1652" d="M571.058,853c36.571,84.043,14.96,111.658,14.96,111.658s2.1-51.026-7.8-78.04S571.058,853,571.058,853Z" transform="translate(114.496 171.162)" fill="#8e809b" opacity="0.58"/>
      <path id="Path_1653" data-name="Path 1653" d="M563.671,799.3c.8,29.812,37.82,56.225,43.222,67.439-1-10-21.611-25.813-32.717-42.826S563.671,799.3,563.671,799.3Z" transform="translate(113.083 160.388)" fill="#8e809b"/>
      <path id="Path_1654" data-name="Path 1654" d="M604.889,846.226c-1.2-.264-3.146-1.861-5.511-4.2-2.965-8.4-15.164-40.293-35.718-55.829l1.2-5.355C592.163,788.992,595.284,836.033,604.889,846.226Z" transform="translate(113.082 156.685)" fill="#d7cce2"/>
      <path id="Path_1655" data-name="Path 1655" d="M555,814c15.908,22.812,10.4,41.722,10.4,41.722S583.815,853.62,555,814Z" transform="translate(111.345 163.337)" fill="#d7cce2"/>
      <path id="Path_1656" data-name="Path 1656" d="M523.32,838.594a67.754,67.754,0,0,1-20.086-4.6c-8.716-7.744-12.558-14.684-13.747-21.371h0a30.013,30.013,0,0,1-.276-7.96,48.694,48.694,0,0,1,1-6.207c.576-2.569,1.321-5.163,2.089-7.828a112.608,112.608,0,0,0,3.83-16.028,51.427,51.427,0,0,0,.5-6c.528-22.151-7.288-31.324-21.707-42.994-1.993-1.621-4.106-3.278-6.351-5.031-11.67-9.113-15.608-22.055-14.407-36.223a75.141,75.141,0,0,1,3.122-15.86A137.39,137.39,0,0,1,473.747,654.3c8.092-2.81,19.354-6.6,32.045-10.565,7.48-2.341,15.464-4.742,23.592-7.048l.948-.264.336-.1c13.447-3.77,21.419,3.6,26.041,15.776,7.828,20.543,6.171,54.736,5.415,72.037-.12,2.629-.144,4.947-.1,7.012h0c.516,19.57,8.4,15.272,19.306,21.791,3.818,2.293,6.363,6,8.1,10.625a33.53,33.53,0,0,1,1.129,3.518,56.517,56.517,0,0,1,1.273,5.835c1.513,8.753,1.813,19.21,2.7,29.847C595.982,820.813,558.2,841.355,523.32,838.594Z" transform="translate(91.074 127.494)" fill="#5a2a86"/>
      <path id="Path_1657" data-name="Path 1657" d="M543.892,652.068a52.014,52.014,0,0,1-11.874,7.72c-9.881,4.394-9.329-2.245-12.51-15.944v-.12a1.754,1.754,0,0,1-.06-.24c-.084-.36-.168-.72-.264-1.093a.577.577,0,0,0-.1-.384c-.432-1.765-.937-3.6-1.537-5.583l.336-.1C531.3,632.533,539.269,639.893,543.892,652.068Z" transform="translate(103.831 127.492)" fill="#bdaacf"/>
      <path id="Path_1658" data-name="Path 1658" d="M542.8,741.21c-5.151,17.517-30.964,31.324-49.574,29.223-2.641-.3-5.079-.624-7.336-1.057a112.616,112.616,0,0,0,3.83-16.028C504.259,759.171,537.493,756.566,542.8,741.21Z" transform="translate(97.48 148.734)" fill="#442065"/>
      <path id="Path_1659" data-name="Path 1659" d="M475.319,712.786a33.328,33.328,0,0,0-.4,11.334c-1.993-1.621-4.106-3.278-6.351-5.031-11.67-9.113-15.608-22.055-14.407-36.223a75.134,75.134,0,0,1,3.122-15.86,137.382,137.382,0,0,1,16.461-14.192c8.092-2.809,19.354-6.6,32.045-10.565,17.649,3.806,26.318,1.369,26.318,1.369a18.906,18.906,0,0,1,.636,2.2C539.072,674.066,478.537,701.729,475.319,712.786Z" transform="translate(91.073 128.881)" fill="#442065"/>
      <path id="Path_1660" data-name="Path 1660" d="M571.11,752.472a26.308,26.308,0,0,1-.72,5.343c-4.8,19.894-31.816,28.3-54.712,36.775-14.732,5.451-6.988,14.251,1.777,20.507a67.754,67.754,0,0,1-20.086-4.6c-8.716-7.744-12.558-14.684-13.747-21.371h0a30.013,30.013,0,0,1-.276-7.96l21.827,3.158s44.291-11.85,50.906-15.608a3.764,3.764,0,0,0,.564-.384h0c3.6-3.1,13.627-14.972,14.407-15.872Z" transform="translate(96.94 150.991)" fill="#442065"/>
      <path id="Path_1661" data-name="Path 1661" d="M584.641,745.828c-.876,1.032-2.221,2.557-4,4.43a140.051,140.051,0,0,1-10.253,9.785,144.733,144.733,0,0,1-13.711,10.578h0l-.564.384a123.854,123.854,0,0,1-20.327,11.106c-21.923,9.365-41.133,12.09-52.167,9.245h0a30.013,30.013,0,0,1-.276-7.96,48.7,48.7,0,0,1,1-6.207c22.067,5.715,64.617-.54,86.721-22.428h0a54.543,54.543,0,0,0,4.514-5.091,46.59,46.59,0,0,0,5.187-8.32c1.081.384,1.969.72,2.7,1.021a33.489,33.489,0,0,1,1.177,3.458Z" transform="translate(96.94 148.762)" fill="#170a21"/>
      <path id="Path_1662" data-name="Path 1662" d="M454.08,684.095a75.127,75.127,0,0,1,3.122-15.86,137.382,137.382,0,0,1,16.461-14.191c8.092-2.809,19.354-6.6,32.045-10.565,7.48-2.341,15.464-4.742,23.592-7.048a16.244,16.244,0,0,1,2.485,5.319,2.25,2.25,0,0,0,.1.384c.1.372.18.732.264,1.093a1.766,1.766,0,0,0,.06.24s0,.084,0,.12a26.617,26.617,0,0,1,.42,3.422C534.257,676.483,479,691.082,454.08,684.095Z" transform="translate(91.098 127.713)" fill="#170a21"/>
      <path id="Path_1663" data-name="Path 1663" d="M574.879,756.92a30.73,30.73,0,0,0-5.271-1.4c-1.657-.3-3.338-.5-5.019-.648-11.358-1.033-22.488.108-25.129-13.123-3.6-17.769,1.2-19.114,5.607-26.594.516,19.57,8.4,15.272,19.306,21.791,3.818,2.293,6.363,6,8.1,10.625a33.515,33.515,0,0,1,1.128,3.518,56.5,56.5,0,0,1,1.273,5.835Z" transform="translate(107.974 143.506)" fill="#bdaacf"/>
      <path id="Path_1664" data-name="Path 1664" d="M464.655,676.059c-19.45-.252-25.069-7.48-23.64-17.553a38.9,38.9,0,0,1,3.506-10.806,89.7,89.7,0,0,1,5.319-9.6s52.491-7.144,76.84-26.834a48.247,48.247,0,0,0,3.986-3.6,52.829,52.829,0,0,1,10.337,8.4C569.878,647.449,493.314,676.432,464.655,676.059Z" transform="translate(88.435 121.941)" fill="#5a2a86"/>
      <path id="Path_1665" data-name="Path 1665" d="M524.443,649.023C496.229,670.5,463.428,667.513,441,658.5a38.9,38.9,0,0,1,3.506-10.806,89.7,89.7,0,0,1,5.319-9.605s52.491-7.144,76.84-26.834a48.247,48.247,0,0,0,3.986-3.6,52.829,52.829,0,0,1,10.337,8.4C543.053,624.963,540.736,636.6,524.443,649.023Z" transform="translate(88.474 121.939)" fill="#442065"/>
      <path id="Path_1666" data-name="Path 1666" d="M502.25,649.848c-28.947,8.128-45.624,6.579-58.35-2.749a89.677,89.677,0,0,1,5.319-9.6s52.491-7.144,76.84-26.834C530.465,614.6,536.468,640.243,502.25,649.848Z" transform="translate(89.056 122.543)" fill="#170a21"/>
      <path id="Path_1667" data-name="Path 1667" d="M538.929,605.161c-.888,19.63-17.637,41.121-30.676,45.972-17.805,6.615-75.543,14.407-79.133-19.642-.552-5.091.12-11.118,2.329-18.237.456-1.453.961-2.966,1.549-4.514,25.429-36.847,43.763-50.054,85.328-33.245,8.656,3.494,14.179,8.476,17.3,14.251A29.09,29.09,0,0,1,538.929,605.161Z" transform="translate(86.054 114.043)" fill="#5a2a86"/>
      <path id="Path_1668" data-name="Path 1668" d="M538.929,605.161c-14.407,9.353-53.9,24.445-109.809,26.33-.552-5.091.12-11.118,2.329-18.237.456-1.453.961-2.966,1.549-4.514,25.429-36.847,43.763-50.054,85.328-33.245,8.656,3.494,14.179,8.476,17.3,14.251A29.09,29.09,0,0,1,538.929,605.161Z" transform="translate(86.054 114.043)" fill="#442065"/>
      <path id="Path_1669" data-name="Path 1669" d="M535.208,589.745c-4.574,6.867-21.719,7.9-42.178,8.4-23.208.5-36.223,11.058-62,15.164.456-1.453.96-2.966,1.549-4.514,25.429-36.847,43.763-50.054,85.328-33.245C526.563,578.988,532.086,583.97,535.208,589.745Z" transform="translate(86.474 114.054)" fill="#170a21"/>
      <path id="Path_1670" data-name="Path 1670" d="M582.652,296.814v2.305a8.623,8.623,0,0,1-.108,1.585c-.132,1.309-.312,2.605-.54,3.878a41.611,41.611,0,0,1-2.761,9.125,40.724,40.724,0,0,1-2.125,4.37,37.6,37.6,0,0,1-2.4,3.7c-.516.732-1.057,1.465-1.621,2.185a44.14,44.14,0,0,1-3.482,3.866l-.2.192a4.2,4.2,0,0,1-.408.4,44.989,44.989,0,0,1-11.166,7.9,45.493,45.493,0,0,1-7.612,3.026c-.48.144-.972.288-1.465.408a46.494,46.494,0,0,1-6.687,1.321,47.2,47.2,0,0,1-10.505.1,11,11,0,0,1-1.525-.18c-.972-.12-1.957-.276-2.917-.48a45.381,45.381,0,0,1-5.391-1.357,46.492,46.492,0,0,1-5.919-2.305,1.885,1.885,0,0,1-.18-.072,46.562,46.562,0,0,1-8.4-5.091h0a49.227,49.227,0,0,1-4.43-3.794l-.924-.912h0c-.768-.78-1.513-1.6-2.209-2.4a44.483,44.483,0,0,1-4.911-7.036q-.708-1.2-1.333-2.485h0a41.8,41.8,0,0,1-1.729-4.07,43.645,43.645,0,0,1-2.1-7.744v-.168a44.915,44.915,0,0,1-.42-11.526,43.329,43.329,0,0,1,2.569-11.166h0a36.816,36.816,0,0,1,2.041-4.682.3.3,0,0,1,0-.084c.252-.492.528-1,.816-1.5l.252-.456h0c.384-.66.8-1.285,1.2-1.921h0c.588-.9,1.2-1.765,1.873-2.617.192-.264.42-.54.624-.816s.732-.888,1.117-1.321.7-.8,1.069-1.2a46.048,46.048,0,0,1,4.07-3.878c.936-.8,1.933-1.561,2.966-2.293s2.4-1.645,3.71-2.4l1.393-.78c.492-.264,1.008-.528,1.513-.768l.384-.192a12.3,12.3,0,0,1,1.2-.528,6.145,6.145,0,0,1,.636-.3,3.613,3.613,0,0,1,.384-.144.228.228,0,0,1,.12-.06l1.2-.492c.612-.216,1.2-.432,1.813-.612a4.691,4.691,0,0,1,.7-.228,47.351,47.351,0,0,1,14.7-2.209c.768,0,1.525,0,2.317.06l1.489.132h.636l.876.1h0c.5.072,1,.12,1.489.2s1.273.192,1.909.324,1.309.264,1.993.42a43.3,43.3,0,0,1,4.274,1.2h0a32.142,32.142,0,0,1,3.086,1.2h.132l1.681.744a.71.71,0,0,0,.168.072c.816.372,1.609.756,2.4,1.2a47.238,47.238,0,0,1,7.024,4.61c.216.168.432.336.648.528a46.51,46.51,0,0,1,8.188,8.644c.264.336.5.672.744,1.021s.528.8.78,1.2c.072.108.144.216.2.324.42.636.8,1.285,1.2,1.945l.54.972a32.381,32.381,0,0,1,1.657,3.446,44.733,44.733,0,0,1,3.434,12.607c0,.576.12,1.2.156,1.753v1.765a.915.915,0,0,0,0,.18v.961C582.652,296.586,582.652,296.646,582.652,296.814Z" transform="translate(98.1 50.366)" fill="#5a2a86"/>
      <path id="Path_1671" data-name="Path 1671" d="M575.685,272.81c-13.855,25.741-45.143,34.626-83.971,38.072a43.645,43.645,0,0,1-2.1-7.744v-.168a44.913,44.913,0,0,1-.42-11.526,43.329,43.329,0,0,1,2.569-11.166h0A36.809,36.809,0,0,1,493.8,275.6a.3.3,0,0,1,0-.084c.252-.492.528-1,.816-1.5l.252-.456h0c.384-.66.8-1.285,1.2-1.921h0c.588-.9,1.2-1.765,1.873-2.617.192-.264.42-.54.624-.816s.732-.888,1.117-1.321.7-.8,1.069-1.2a46.057,46.057,0,0,1,4.07-3.878c.936-.8,1.933-1.561,2.965-2.293s2.4-1.645,3.71-2.4l1.393-.78c.492-.264,1.009-.528,1.513-.768l.384-.192a12.281,12.281,0,0,1,1.2-.528,6.148,6.148,0,0,1,.636-.3,3.6,3.6,0,0,1,.384-.144.228.228,0,0,1,.12-.06l1.2-.492c.612-.216,1.2-.432,1.813-.612a4.7,4.7,0,0,1,.7-.228,47.353,47.353,0,0,1,14.7-2.209c.768,0,1.525,0,2.317.06l1.489.132h.636l.876.1h0c.5.072,1,.12,1.489.2s1.273.192,1.909.324,1.309.264,1.993.42a43.276,43.276,0,0,1,4.274,1.2h0a32.142,32.142,0,0,1,3.086,1.2h.132l1.681.744a.707.707,0,0,0,.168.072c.816.372,1.609.756,2.4,1.2a47.23,47.23,0,0,1,7.024,4.61c.216.168.432.336.648.528a46.51,46.51,0,0,1,8.188,8.645c.264.336.5.672.744,1.021s.528.8.78,1.2A.778.778,0,0,1,575.685,272.81Z" transform="translate(98.104 50.345)" fill="#442065"/>
      <path id="Path_1672" data-name="Path 1672" d="M573.153,270.254c-14.7,13.1-54.94,13.207-80.153,5.247.252-.492.528-1,.816-1.5l.252-.456h0c.384-.66.8-1.285,1.2-1.921h0c.588-.9,1.2-1.765,1.873-2.617.192-.264.42-.54.624-.816s.732-.888,1.117-1.321.7-.8,1.069-1.2a46.056,46.056,0,0,1,4.07-3.878c.936-.8,1.933-1.561,2.965-2.293s2.4-1.645,3.71-2.4l1.393-.78c.492-.264,1.008-.528,1.513-.768l.384-.192a12.3,12.3,0,0,1,1.2-.528,6.153,6.153,0,0,1,.636-.3,3.615,3.615,0,0,1,.384-.144.228.228,0,0,1,.12-.06l1.2-.492c.612-.216,1.2-.432,1.813-.612a4.69,4.69,0,0,1,.7-.228,47.353,47.353,0,0,1,14.7-2.209c.768,0,1.525,0,2.317.06l1.489.132h.636l.876.1h0c.5.072,1,.12,1.489.2s1.273.192,1.909.324,1.309.264,1.993.42a43.291,43.291,0,0,1,4.274,1.2h0a32.148,32.148,0,0,1,3.086,1.2h.132l1.681.744a.707.707,0,0,0,.168.072c.816.372,1.609.756,2.4,1.2a47.235,47.235,0,0,1,7.024,4.61c.216.168.432.336.648.528a46.51,46.51,0,0,1,8.3,8.68Z" transform="translate(98.906 50.343)" fill="#170a21"/>
      <path id="Path_1673" data-name="Path 1673" d="M568.827,291.308v.961c-11.718,2.065-14.876-9.7-5.235-20.759a32.368,32.368,0,0,1,1.657,3.446,44.736,44.736,0,0,1,3.314,12.751c0,.576.12,1.2.156,1.753v1.765a.9.9,0,0,0,.108.084Z" transform="translate(111.925 54.503)" fill="#bdaacf"/>
      <path id="Path_1674" data-name="Path 1674" d="M567.872,357.02v2.305a9.68,9.68,0,0,1-.1,1.585c-.132,1.309-.3,2.605-.516,3.878a43.4,43.4,0,0,1-2.629,9.125,42.351,42.351,0,0,1-2.029,4.37,38.758,38.758,0,0,1-2.233,3.7c-.492.732-1.009,1.465-1.549,2.185a42.3,42.3,0,0,1-3.314,3.866l-.192.192a4,4,0,0,1-.384.4,42.862,42.862,0,0,1-10.637,7.9,42.082,42.082,0,0,1-7.2,3.026c-.456.144-.924.288-1.393.408a43.751,43.751,0,0,1-16.34,1.369,10.01,10.01,0,0,1-1.453-.18c-.924-.12-1.861-.276-2.773-.48a41.483,41.483,0,0,1-5.139-1.357A42.629,42.629,0,0,1,504.359,397a1,1,0,0,1-.168-.072,44.173,44.173,0,0,1-7.984-5.091h0a46.576,46.576,0,0,1-4.214-3.794c-.3-.3-.588-.6-.876-.913h0c-.732-.78-1.441-1.6-2.113-2.4a44.706,44.706,0,0,1-4.67-7.036c-.444-.816-.864-1.645-1.273-2.485h0a46.222,46.222,0,0,1-3.6-11.814v-.168a47.19,47.19,0,0,1-.408-11.526,46.287,46.287,0,0,1,2.4-11.166h0a38.068,38.068,0,0,1,1.945-4.682c.252-.516.54-1.057.828-1.585.072-.156.156-.3.24-.456h0c.36-.66.756-1.285,1.129-1.921h0c.552-.9,1.2-1.765,1.777-2.617.192-.264.408-.54.6-.816s.7-.888,1.057-1.321.672-.8,1.021-1.2a45.433,45.433,0,0,1,3.878-3.878c.888-.8,1.837-1.561,2.821-2.293a41.256,41.256,0,0,1,3.53-2.4l1.333-.78c.468-.264.96-.528,1.441-.768l.36-.192a12.531,12.531,0,0,1,1.2-.528,5.741,5.741,0,0,1,.612-.3,3.217,3.217,0,0,1,.36-.144.228.228,0,0,1,.12,0l1.2-.492c.576-.216,1.2-.432,1.717-.612a4.445,4.445,0,0,1,.672-.228,43.042,43.042,0,0,1,13.8-2.317c.732,0,1.453,0,2.209.06l1.417.132h.6l.84.1h0c.48.072.948.12,1.417.2s1.2.192,1.813.324,1.2.264,1.9.42a39.63,39.63,0,0,1,4.07,1.2h0a29.613,29.613,0,0,1,2.942,1.2h.12l1.6.744a.71.71,0,0,0,.168.072c.768.372,1.525.756,2.269,1.2a44.685,44.685,0,0,1,6.688,4.61c.2.168.408.336.612.528a46.368,46.368,0,0,1,8.56,9.617c.264.4.5.8.744,1.2.468.744.9,1.5,1.309,2.269a42.409,42.409,0,0,1,2.089,4.418,46.174,46.174,0,0,1,3.17,12.655c.06.576.12,1.2.144,1.753v1.765a.915.915,0,0,0,0,.18v.973A.62.62,0,0,1,567.872,357.02Z" transform="translate(96.072 62.425)" fill="#5a2a86"/>
      <path id="Path_1675" data-name="Path 1675" d="M567.706,357.02v2.305a9.68,9.68,0,0,1-.1,1.585c-.132,1.309-.3,2.605-.516,3.878a43.4,43.4,0,0,1-2.629,9.125,42.351,42.351,0,0,1-2.029,4.37,38.758,38.758,0,0,1-2.233,3.7c-.492.732-1.009,1.465-1.549,2.185a42.3,42.3,0,0,1-3.314,3.866c-10.806-17.457-45.323-39-75.639-42.322a42.457,42.457,0,0,1,1.513-5.247h0a38.073,38.073,0,0,1,1.945-4.682c.252-.516.54-1.057.828-1.585.072-.156.156-.3.24-.456h0c.36-.66.756-1.285,1.129-1.921h0c.552-.9,1.2-1.765,1.777-2.617.192-.264.408-.54.6-.816s.7-.888,1.057-1.321.672-.8,1.021-1.2a45.423,45.423,0,0,1,3.878-3.878c.888-.8,1.837-1.561,2.822-2.293a41.265,41.265,0,0,1,3.53-2.4l1.333-.78c.468-.264.96-.528,1.441-.768l.36-.192a12.554,12.554,0,0,1,1.2-.528,5.741,5.741,0,0,1,.612-.3,3.227,3.227,0,0,1,.36-.144.228.228,0,0,1,.12,0l1.2-.492c.576-.216,1.2-.432,1.717-.612a4.439,4.439,0,0,1,.672-.228A43.042,43.042,0,0,1,522.922,311c.732,0,1.453,0,2.209.06l1.417.132h.6l.84.1h0c.48.072.948.12,1.417.2s1.2.192,1.813.324,1.2.264,1.9.42a39.63,39.63,0,0,1,4.07,1.2h0a29.613,29.613,0,0,1,2.942,1.2h.12l1.6.744a.71.71,0,0,0,.168.072c.768.372,1.525.756,2.269,1.2a44.685,44.685,0,0,1,6.688,4.61c.2.168.408.336.612.528a46.368,46.368,0,0,1,8.56,9.617c.264.4.5.8.744,1.2.468.744.9,1.5,1.309,2.269a42.409,42.409,0,0,1,2.089,4.418,46.174,46.174,0,0,1,3.17,12.655c.06.576.12,1.2.144,1.753v1.765a.915.915,0,0,0,0,.18v.973A.62.62,0,0,1,567.706,357.02Z" transform="translate(96.238 62.425)" fill="#442065"/>
      <path id="Path_1676" data-name="Path 1676" d="M566.026,355.711c-15.38-12.294-54.328-26.005-77.956-29.883a45.427,45.427,0,0,1,3.878-3.878c.888-.8,1.837-1.561,2.821-2.293a41.26,41.26,0,0,1,3.53-2.4l1.333-.78c.468-.264.961-.528,1.441-.768l.36-.192a12.53,12.53,0,0,1,1.2-.528,5.735,5.735,0,0,1,.612-.3,3.217,3.217,0,0,1,.36-.144.228.228,0,0,1,.12,0l1.2-.492c.576-.216,1.2-.432,1.717-.612a4.441,4.441,0,0,1,.672-.228A43.041,43.041,0,0,1,521.243,311c.732,0,1.453,0,2.209.06l1.417.132h.6l.84.1h0c.48.072.948.12,1.417.2s1.2.192,1.813.324,1.2.264,1.9.42a39.63,39.63,0,0,1,4.07,1.2h0a29.613,29.613,0,0,1,2.942,1.2h.12l1.6.744a.71.71,0,0,0,.168.072c.768.372,1.525.756,2.269,1.2a44.685,44.685,0,0,1,6.688,4.61c.2.168.408.336.612.528a46.368,46.368,0,0,1,8.56,9.617c.264.4.5.8.744,1.2.468.744.9,1.5,1.309,2.269A42.409,42.409,0,0,1,562.6,339.3a46.174,46.174,0,0,1,3.17,12.655c.06.576.12,1.2.144,1.753v1.765A.912.912,0,0,0,566.026,355.711Z" transform="translate(97.917 62.425)" fill="#170a21"/>
      <path id="Path_1677" data-name="Path 1677" d="M490.948,378.356c-.732-.78-1.441-1.6-2.113-2.4a44.706,44.706,0,0,1-4.671-7.036c-.444-.816-.864-1.645-1.273-2.485h0a46.225,46.225,0,0,1-3.6-11.814C485.449,361.608,490.144,371.225,490.948,378.356Z" transform="translate(96.156 71.176)" fill="#bdaacf"/>
      <path id="Path_1678" data-name="Path 1678" d="M572.807,429.089v2.437c0,.384-.06,1.117-.108,1.681-.132,1.381-.312,2.761-.54,4.106a46.671,46.671,0,0,1-2.773,9.665,43.793,43.793,0,0,1-2.149,4.634,40.669,40.669,0,0,1-2.4,3.914c-.516.78-1.057,1.561-1.633,2.317a43.334,43.334,0,0,1-3.7,4.3,4.669,4.669,0,0,1-.408.432,45.626,45.626,0,0,1-11.226,8.4,44.047,44.047,0,0,1-7.636,3.206c-.48.156-.973.3-1.465.432a44.425,44.425,0,0,1-6.7,1.345,45.528,45.528,0,0,1-10.553.108,11.032,11.032,0,0,1-1.525-.192c-.985-.132-1.969-.3-2.93-.516a45.13,45.13,0,0,1-11.37-3.878,1.026,1.026,0,0,1-.168-.072,46.4,46.4,0,0,1-8.4-5.4h0a48.359,48.359,0,0,1-4.442-4.01,47.147,47.147,0,0,1-3.158-3.6,48.612,48.612,0,0,1-4.934-7.456c-.468-.864-.913-1.741-1.333-2.641h0a49.094,49.094,0,0,1-3.878-12.691,49.865,49.865,0,0,1-.432-12.222,47.458,47.458,0,0,1,2.581-11.826h0a41.792,41.792,0,0,1,2.053-4.959c.264-.552.564-1.129.877-1.681.072-.168.168-.324.252-.492h0c.384-.7.792-1.357,1.2-2.029h0c.588-.96,1.2-1.873,1.873-2.773l.636-.864c.372-.48.732-.948,1.117-1.4a46.5,46.5,0,0,1,5.127-5.427,35.659,35.659,0,0,1,2.978-2.4,43.147,43.147,0,0,1,3.734-2.509l1.4-.828c.492-.288,1.008-.564,1.513-.816l.384-.2c.4-.2.8-.4,1.2-.564a6.385,6.385,0,0,1,.648-.312,3.676,3.676,0,0,1,.384-.156.228.228,0,0,1,.12,0l1.273-.528c.6-.228,1.2-.456,1.813-.648a7.091,7.091,0,0,1,.708-.24,45.382,45.382,0,0,1,14.756-2.341c.768,0,1.537,0,2.329.072l1.5.132h.636l.876.108h0c.5.072,1,.132,1.489.216s1.285.2,1.909.348,1.321.276,2.005.444a38.353,38.353,0,0,1,4.3,1.273h0c1.057.36,2.089.78,3.1,1.2l.132.06,1.681.78a1.193,1.193,0,0,0,.18.084c.816.4,1.609.8,2.4,1.2a47.162,47.162,0,0,1,7.048,4.875c.216.18.432.36.648.564a49.078,49.078,0,0,1,8.981,10.241c.276.42.54.852.792,1.285.492.792.948,1.6,1.381,2.4a47.3,47.3,0,0,1,2.2,4.67,48.856,48.856,0,0,1,3.35,13.411c0,.612.12,1.2.156,1.861v1.873a2.241,2.241,0,0,0,0,.276v.936A.542.542,0,0,1,572.807,429.089Z" transform="translate(96.047 76.344)" fill="#5a2a86"/>
      <path id="Path_1679" data-name="Path 1679" d="M572.8,426.794c-21.707-3.23-56.741-2.317-80.177,34.17a47.2,47.2,0,0,1-3.158-3.6,48.608,48.608,0,0,1-4.935-7.456c-.468-.864-.913-1.741-1.333-2.641h0a49.1,49.1,0,0,1-3.878-12.691,49.865,49.865,0,0,1-.432-12.222,47.463,47.463,0,0,1,2.581-11.826h0a41.808,41.808,0,0,1,2.053-4.959c.264-.552.564-1.129.876-1.681.072-.168.168-.324.252-.492h0c.384-.7.792-1.357,1.2-2.029h0c.588-.96,1.2-1.873,1.873-2.773l.636-.864c.372-.48.732-.948,1.117-1.4a46.512,46.512,0,0,1,5.187-5.391,35.648,35.648,0,0,1,2.978-2.4,43.147,43.147,0,0,1,3.734-2.509c17.337-2.317,41.794,1.969,54.508,4.8a49.08,49.08,0,0,1,8.981,10.241c.276.42.54.852.792,1.285.492.792.948,1.6,1.381,2.4a47.3,47.3,0,0,1,2.2,4.67,48.849,48.849,0,0,1,3.35,13.411c0,.612.12,1.2.156,1.861v1.873a2.214,2.214,0,0,0,.06.228Z" transform="translate(96.037 77.343)" fill="#442065"/>
      <path id="Path_1680" data-name="Path 1680" d="M565.625,403.288a81.9,81.9,0,0,0-35.538-7.6c-33.113.756-41.433,31.937-40.617,62.708a48.619,48.619,0,0,1-4.935-7.456c-.468-.865-.913-1.741-1.333-2.641h0a49.094,49.094,0,0,1-3.878-12.691,49.865,49.865,0,0,1-.432-12.222,47.46,47.46,0,0,1,2.581-11.826h0a41.8,41.8,0,0,1,2.053-4.959c.264-.552.564-1.129.876-1.681.072-.168.168-.324.252-.492h0c.384-.7.792-1.357,1.2-2.029h0c.588-.96,1.2-1.873,1.873-2.773l.636-.864c.372-.48.732-.948,1.117-1.4a46.5,46.5,0,0,1,5.187-5.427,35.648,35.648,0,0,1,2.978-2.4,43.147,43.147,0,0,1,3.734-2.509l1.4-.828c.492-.288,1.008-.564,1.513-.816l.384-.2c.4-.2.8-.4,1.2-.564a6.385,6.385,0,0,1,.648-.312,3.676,3.676,0,0,1,.384-.156.228.228,0,0,1,.12,0l1.273-.528c.6-.228,1.2-.456,1.813-.648a7.091,7.091,0,0,1,.708-.24,45.382,45.382,0,0,1,14.756-2.341c.768,0,1.537,0,2.329.072l1.5.132h.636l.876.108h0c.5.072,1,.132,1.489.216s1.285.2,1.909.348,1.321.276,2.005.444a38.353,38.353,0,0,1,4.3,1.273h0c1.057.36,2.089.78,3.1,1.2l.132.06,1.681.78a1.193,1.193,0,0,0,.18.084c.816.4,1.609.8,2.4,1.2a47.162,47.162,0,0,1,7.048,4.875c.216.18.432.36.648.564a49.078,49.078,0,0,1,8.981,10.241C565.108,402.424,565.373,402.856,565.625,403.288Z" transform="translate(96.037 76.344)" fill="#170a21"/>
      <path id="Path_1681" data-name="Path 1681" d="M485.371,579.75a41.7,41.7,0,0,1-3.746,11.466h0q-.612,1.2-1.3,2.4a45.887,45.887,0,0,1-20.495,18.418,47.634,47.634,0,0,1-6,2.281,49.29,49.29,0,0,1-8.164,1.753l-1.489.168a48.447,48.447,0,0,1-10.313-.1,47.238,47.238,0,0,1-7.984-1.6,46.7,46.7,0,0,1-7.468-2.893,44.772,44.772,0,0,1-10.974-7.54l-.4-.384a40.842,40.842,0,0,1-3.6-3.878c-.564-.684-1.093-1.381-1.6-2.089a37.063,37.063,0,0,1-2.305-3.53,38.645,38.645,0,0,1-2.1-4.166,40.184,40.184,0,0,1-2.7-8.717c-.228-1.2-.408-2.4-.528-3.7q-.072-.756-.108-1.513v-5.307a41.889,41.889,0,0,1,7.7-21.3,45.493,45.493,0,0,1,9.413-9.737A46.312,46.312,0,0,1,418.1,535.4c.768-.4,1.549-.768,2.4-1.129a1.121,1.121,0,0,0,.18-.072l1.645-.708h.132c.985-.4,1.993-.768,3.026-1.093h0a40.905,40.905,0,0,1,4.2-1.2c.66-.144,1.3-.288,1.957-.4s1.2-.228,1.861-.312l1.465-.192h0l.852-.1h.624l1.465-.12h2.281a47.721,47.721,0,0,1,14.407,2.1c.24.072.468.132.7.216.588.18,1.2.384,1.765.588l1.2.48a.216.216,0,0,1,.12,0l.372.144a6,6,0,0,1,.636.276c.4.156.792.324,1.2.516l.384.18c.492.228,1,.48,1.477.732a45.891,45.891,0,0,1,5.019,3.014q1.513,1.045,2.917,2.2a43.7,43.7,0,0,1,5.043,4.8c.372.42.732.84,1.093,1.273l.624.78c.636.8,1.2,1.633,1.825,2.5h0c.4.6.792,1.2,1.2,1.825h0c.084.144.18.288.252.444.3.492.588,1.009.852,1.513a37.214,37.214,0,0,1,2.005,4.466h0a39.546,39.546,0,0,1,2.521,10.65A41.1,41.1,0,0,1,485.371,579.75Z" transform="translate(79.065 106.377)" fill="#5a2a86"/>
      <path id="Path_1682" data-name="Path 1682" d="M485.393,579.75a93.723,93.723,0,0,1-3.746,11.466h0q-.612,1.2-1.3,2.4a45.887,45.887,0,0,1-20.495,18.418,47.643,47.643,0,0,1-6,2.281,49.3,49.3,0,0,1-8.164,1.753l-1.489.168a48.451,48.451,0,0,1-10.313-.1c5.739-4.07,14.407-12.258,15.608-24.817,1.585-16.6-23.7-14-55.5-18.814v-1.681a41.889,41.889,0,0,1,7.7-21.3,45.494,45.494,0,0,1,9.413-9.737,46.321,46.321,0,0,1,6.892-4.394c.768-.4,1.549-.768,2.4-1.129a1.114,1.114,0,0,0,.18-.072l1.645-.708h.132c.985-.4,1.993-.768,3.026-1.093h0a40.9,40.9,0,0,1,4.2-1.2c.66-.144,1.3-.288,1.957-.4s1.2-.228,1.861-.312l1.465-.192h0l.852-.1h.624l1.465-.12h2.281a47.725,47.725,0,0,1,14.407,2.1c.24.072.468.132.7.216.588.18,1.2.384,1.765.588l1.2.48a.216.216,0,0,1,.12,0l.372.144a5.986,5.986,0,0,1,.636.276c.4.156.792.324,1.2.516l.384.18c.492.228,1,.48,1.477.732a45.906,45.906,0,0,1,5.019,3.014q1.513,1.045,2.917,2.2a43.7,43.7,0,0,1,5.043,4.8c.372.42.732.84,1.093,1.273l.624.78c.636.8,1.2,1.633,1.825,2.5h0c.4.6.792,1.2,1.2,1.825h0c.084.144.18.288.252.444.3.492.588,1.009.852,1.513a37.218,37.218,0,0,1,2.005,4.466h0a39.547,39.547,0,0,1,2.521,10.65,41.1,41.1,0,0,1-.3,10.974Z" transform="translate(79.043 106.377)" fill="#442065"/>
      <path id="Path_1683" data-name="Path 1683" d="M484.083,579.75a41.7,41.7,0,0,1-3.746,11.466h0q-.612,1.2-1.3,2.4a45.887,45.887,0,0,1-20.495,18.418,47.643,47.643,0,0,1-6,2.281,49.3,49.3,0,0,1-8.164,1.753c55.012-35.442,9.509-74.642,9.509-74.642s-11.586,10.265-53.368,8.1a45.493,45.493,0,0,1,9.413-9.737,46.332,46.332,0,0,1,6.892-4.394c.768-.4,1.549-.768,2.4-1.129a1.114,1.114,0,0,0,.18-.072l1.645-.708h.132c.985-.4,1.993-.768,3.026-1.093h0a40.934,40.934,0,0,1,4.2-1.2c.66-.144,1.3-.288,1.957-.4s1.2-.228,1.861-.312l1.465-.192h0l.852-.1h.624l1.465-.12h2.281a47.725,47.725,0,0,1,14.407,2.1c.24.072.468.132.7.216.588.18,1.2.384,1.765.588l1.2.48a.216.216,0,0,1,.12,0l.372.144a5.986,5.986,0,0,1,.636.276c.4.156.792.324,1.2.516l.384.18c.492.228,1,.48,1.477.732a45.881,45.881,0,0,1,5.019,3.014q1.513,1.044,2.917,2.2a43.7,43.7,0,0,1,5.043,4.8c.372.42.732.84,1.093,1.273l.624.78c.636.8,1.2,1.633,1.825,2.5h0c.4.6.792,1.2,1.2,1.825h0c.084.144.18.288.252.444.3.492.588,1.009.852,1.513a37.218,37.218,0,0,1,2.005,4.466h0a39.547,39.547,0,0,1,2.521,10.65,41.1,41.1,0,0,1-.444,10.973Z" transform="translate(80.353 106.377)" fill="#170a21"/>
      <path id="Path_1684" data-name="Path 1684" d="M468.548,559.58a44.2,44.2,0,0,0,3.494,11.43h0q.564,1.2,1.2,2.4a43.716,43.716,0,0,0,18.886,18.418,41.842,41.842,0,0,0,5.511,2.281,42.372,42.372,0,0,0,7.528,1.753l1.369.168a41.182,41.182,0,0,0,9.509-.1,40.557,40.557,0,0,0,7.36-1.6,41.507,41.507,0,0,0,17-10.434l.36-.384a39.614,39.614,0,0,0,3.326-3.878q.774-1.027,1.477-2.089a37.51,37.51,0,0,0,2.125-3.53,40.021,40.021,0,0,0,1.933-4.166,42.717,42.717,0,0,0,2.485-8.716c.216-1.2.372-2.4.492-3.7q.072-.756.1-1.513v-5.307a44.039,44.039,0,0,0-15.788-31,42.43,42.43,0,0,0-6.351-4.394c-.708-.4-1.429-.768-2.161-1.129a1.006,1.006,0,0,1-.168-.072l-1.513-.708h-.12c-.913-.4-1.837-.768-2.785-1.093h0a35.4,35.4,0,0,0-3.878-1.2c-.612-.144-1.2-.288-1.8-.4s-1.141-.228-1.717-.312l-1.345-.192h0l-.78-.1h-.576l-1.345-.12h-2.1a40.822,40.822,0,0,0-13.291,2.1c-.216.072-.432.132-.636.216-.54.18-1.081.384-1.621.588l-1.2.48a.191.191,0,0,0-.108,0l-.348.144a5.31,5.31,0,0,0-.588.276c-.36.156-.732.324-1.081.516l-.348.18c-.456.228-.924.48-1.357.732a41.737,41.737,0,0,0-4.622,3.014q-1.393,1.045-2.689,2.2a41.945,41.945,0,0,0-4.646,4.8c-.348.42-.672.84-1.009,1.273l-.576.78a24.532,24.532,0,0,0-1.681,2.5h0c-.36.6-.732,1.2-1.069,1.825h0c-.072.144-.168.288-.228.444-.276.492-.54,1.009-.78,1.513a38.922,38.922,0,0,0-1.849,4.466h0a42.36,42.36,0,0,0-2.329,10.65A44.546,44.546,0,0,0,468.548,559.58Z" transform="translate(93.895 102.33)" fill="#5a2a86"/>
      <path id="Path_1685" data-name="Path 1685" d="M468.548,559.58a99.409,99.409,0,0,0,3.494,11.43h0q.564,1.2,1.2,2.4a43.716,43.716,0,0,0,18.886,18.418,41.842,41.842,0,0,0,5.511,2.281,42.372,42.372,0,0,0,7.528,1.753l1.369.168a41.182,41.182,0,0,0,9.509-.1c-5.295-4.07-13.339-12.258-14.408-24.817-1.465-16.6,21.839-14,51.158-18.814v-1.681a44.039,44.039,0,0,0-15.884-31,42.416,42.416,0,0,0-6.351-4.394c-.708-.4-1.429-.768-2.161-1.129a1.006,1.006,0,0,1-.168-.072l-1.513-.708h-.12c-.913-.4-1.837-.768-2.785-1.093h0a35.4,35.4,0,0,0-3.878-1.2c-.612-.144-1.2-.288-1.8-.4s-1.141-.228-1.717-.312l-1.345-.192h0l-.78-.1h-.576l-1.345-.12h-2.1a40.822,40.822,0,0,0-13.291,2.1c-.216.072-.432.132-.636.216-.54.18-1.081.384-1.621.588l-1.2.48a.191.191,0,0,0-.108,0l-.348.144a5.31,5.31,0,0,0-.588.276c-.36.156-.732.324-1.081.516l-.348.18c-.456.228-.924.48-1.357.732a41.737,41.737,0,0,0-4.622,3.014q-1.393,1.045-2.689,2.2a41.945,41.945,0,0,0-4.646,4.8c-.348.42-.672.84-1.009,1.273l-.576.78a24.532,24.532,0,0,0-1.681,2.5h0c-.36.6-.732,1.2-1.069,1.825h0c-.072.144-.168.288-.228.444-.276.492-.54,1.009-.78,1.513a38.922,38.922,0,0,0-1.849,4.466h0a42.36,42.36,0,0,0-2.329,10.65A44.546,44.546,0,0,0,468.548,559.58Z" transform="translate(93.895 102.33)" fill="#442065"/>
      <path id="Path_1686" data-name="Path 1686" d="M468.548,559.58a44.2,44.2,0,0,0,3.494,11.43h0q.564,1.2,1.2,2.4a43.716,43.716,0,0,0,18.886,18.418,41.842,41.842,0,0,0,5.511,2.281,42.372,42.372,0,0,0,7.528,1.753c-50.7-35.442-8.765-74.643-8.765-74.643s10.674,10.265,49.226,8.1a44.063,44.063,0,0,0-8.716-9.7,42.43,42.43,0,0,0-6.351-4.394c-.708-.4-1.429-.768-2.161-1.129a1.006,1.006,0,0,1-.168-.072l-1.513-.708h-.12c-.913-.4-1.837-.768-2.785-1.093h0a35.4,35.4,0,0,0-3.878-1.2c-.612-.144-1.2-.288-1.8-.4s-1.141-.228-1.717-.312l-1.345-.192h0l-.78-.1h-.576l-1.345-.12h-2.1a40.822,40.822,0,0,0-13.291,2.1c-.216.072-.432.132-.636.216-.54.18-1.081.384-1.621.588l-1.2.48a.191.191,0,0,0-.108,0l-.348.144a5.31,5.31,0,0,0-.588.276c-.36.156-.732.324-1.081.516l-.348.18c-.456.228-.924.48-1.357.732a41.737,41.737,0,0,0-4.622,3.014q-1.393,1.045-2.689,2.2a41.945,41.945,0,0,0-4.646,4.8c-.348.42-.672.84-1.009,1.273l-.576.78a24.532,24.532,0,0,0-1.681,2.5h0c-.36.6-.732,1.2-1.069,1.825h0c-.072.144-.168.288-.228.444-.276.492-.54,1.009-.78,1.513a38.922,38.922,0,0,0-1.849,4.466h0a42.36,42.36,0,0,0-2.329,10.65A44.546,44.546,0,0,0,468.548,559.58Z" transform="translate(93.895 102.33)" fill="#170a21"/>
      <path id="Path_1687" data-name="Path 1687" d="M462.473,531.075a45.887,45.887,0,0,1-20.483,18.417,47.615,47.615,0,0,1-6,2.281,49.082,49.082,0,0,1-27.95.228,46.7,46.7,0,0,1-7.468-2.893,44.768,44.768,0,0,1-10.974-7.54l-.4-.384a40.814,40.814,0,0,1-3.6-3.878c-.564-.684-1.093-1.381-1.6-2.089a37.045,37.045,0,0,1-2.305-3.53,38.63,38.63,0,0,1-2.137-4.166,40.174,40.174,0,0,1-2.7-8.717c-.228-1.2-.408-2.4-.528-3.7q-.072-.757-.108-1.513V508.3a43.078,43.078,0,0,1,17.109-31.036,46.316,46.316,0,0,1,6.892-4.394c.768-.4,1.549-.768,2.4-1.129a1.131,1.131,0,0,0,.18-.072l1.645-.708h.132c.985-.4,1.993-.768,3.026-1.093h0a40.934,40.934,0,0,1,4.2-1.2c.66-.144,1.3-.288,1.957-.4s1.2-.228,1.861-.312l1.465-.192h0l.852-.1h.624l1.465-.12h2.281a47.725,47.725,0,0,1,14.407,2.1c.24.072.468.132.7.216.588.18,1.2.384,1.765.588l1.2.48a.216.216,0,0,1,.12,0l.372.144a6,6,0,0,1,.636.276c.4.156.792.324,1.2.516l.384.18c.492.228,1,.48,1.477.732a45.878,45.878,0,0,1,5.019,3.014q1.513,1.044,2.917,2.2a43.7,43.7,0,0,1,5.043,4.8c.372.42.732.84,1.093,1.273l.624.78c.636.8,1.2,1.633,1.825,2.5h0c.4.6.792,1.2,1.2,1.825h0c.084.144.18.288.252.444.3.492.588,1.009.852,1.513A37.227,37.227,0,0,1,465.4,495.6h0a39.549,39.549,0,0,1,2.521,10.649A41.193,41.193,0,0,1,462.473,531.075Z" transform="translate(75.478 93.832)" fill="#5a2a86"/>
      <path id="Path_1688" data-name="Path 1688" d="M441.99,549.493a47.615,47.615,0,0,1-6,2.281,49.082,49.082,0,0,1-27.95.228,46.7,46.7,0,0,1-7.468-2.893,44.768,44.768,0,0,1-10.974-7.54l-.4-.384a40.814,40.814,0,0,1-3.6-3.878c-.564-.684-1.093-1.381-1.6-2.089a37.045,37.045,0,0,1-2.305-3.53,38.63,38.63,0,0,1-2.137-4.166,40.174,40.174,0,0,1-2.7-8.717c-.228-1.2-.408-2.4-.528-3.7q-.072-.757-.108-1.513V508.3a43.078,43.078,0,0,1,17.109-31.036,46.316,46.316,0,0,1,6.892-4.394c.768-.4,1.549-.768,2.4-1.129a1.131,1.131,0,0,0,.18-.072l1.645-.708h.132c.985-.4,1.993-.768,3.026-1.093h0a40.934,40.934,0,0,1,4.2-1.2c.66-.144,1.3-.288,1.957-.4s1.2-.228,1.861-.312l1.465-.192h0l.852-.1h.624l1.465-.12h2.281a47.725,47.725,0,0,1,14.407,2.1c.24.072.468.132.7.216.588.18,1.2.384,1.765.588l1.2.48a.216.216,0,0,1,.12,0l.372.144a6,6,0,0,1,.636.276c.4.156.792.324,1.2.516l.384.18c.492.228,1,.48,1.477.732a45.878,45.878,0,0,1,5.019,3.014q1.513,1.044,2.917,2.2a43.7,43.7,0,0,1,5.043,4.8c.276,1,.516,2.005.732,3.026.108.5.2,1.008.3,1.525C462.557,508.071,455.8,531.615,441.99,549.493Z" transform="translate(75.478 93.832)" fill="#442065"/>
      <path id="Path_1689" data-name="Path 1689" d="M458.8,484.023c-.108.588-.228,1.2-.36,1.753C451.523,517.16,419.214,532.4,384,535.217a37.045,37.045,0,0,1-2.305-3.53,38.613,38.613,0,0,1-2.137-4.166,40.174,40.174,0,0,1-2.7-8.717c-.228-1.2-.408-2.4-.528-3.7q-.072-.757-.108-1.513V508.3a43.078,43.078,0,0,1,17.109-31.036,46.316,46.316,0,0,1,6.892-4.394c.768-.4,1.549-.768,2.4-1.129a1.131,1.131,0,0,0,.18-.072l1.645-.708h.132c.985-.4,1.993-.768,3.026-1.093h0a40.934,40.934,0,0,1,4.2-1.2c.66-.144,1.3-.288,1.957-.4s1.2-.228,1.861-.312l1.465-.192h0l.852-.1h.624l1.465-.12h2.281a47.725,47.725,0,0,1,14.407,2.1c.24.072.468.132.7.216.588.18,1.2.384,1.765.588l1.2.48a.216.216,0,0,1,.12,0l.372.144a6,6,0,0,1,.636.276c.4.156.792.324,1.2.516l.384.18c.492.228,1,.48,1.477.732a45.878,45.878,0,0,1,5.019,3.014q1.513,1.044,2.917,2.2a43.7,43.7,0,0,1,5.043,4.8A13.349,13.349,0,0,1,458.8,484.023Z" transform="translate(75.478 93.832)" fill="#170a21"/>
      <path id="Path_1690" data-name="Path 1690" d="M441.955,481.027a46.248,46.248,0,0,1-26.414,20.7,49.093,49.093,0,0,1-27.95.228,46.72,46.72,0,0,1-7.468-2.893,44.783,44.783,0,0,1-10.974-7.54l-.4-.384a40.818,40.818,0,0,1-3.6-3.878,41.9,41.9,0,0,1-3.9-5.619,38.639,38.639,0,0,1-2.1-4.166,40.174,40.174,0,0,1-2.7-8.717c-.228-1.2-.408-2.4-.528-3.7q-.072-.756-.108-1.513v-5.295A43.078,43.078,0,0,1,372.847,427.2a46.3,46.3,0,0,1,6.892-4.394c.768-.4,1.549-.768,2.4-1.129l.18-.072,1.645-.708h.132c.985-.4,1.993-.768,3.026-1.093h0a40.831,40.831,0,0,1,4.2-1.2c.66-.144,1.3-.288,1.957-.4s1.2-.228,1.861-.312l1.465-.192h0l.852-.1h.624l1.465-.12c.768,0,1.525-.06,2.281-.06a47.723,47.723,0,0,1,14.407,2.1c.24.072.468.132.7.216.588.18,1.2.384,1.765.588l1.2.48a.216.216,0,0,1,.12,0l.372.144a6,6,0,0,1,.636.276c.4.156.792.324,1.2.516l.384.18c.492.228,1,.48,1.477.732a45.918,45.918,0,0,1,5.019,3.014q1.513,1.045,2.918,2.2a43.666,43.666,0,0,1,6.759,6.892c.636.8,1.2,1.633,1.825,2.5h0c.4.6.792,1.2,1.2,1.825h0c.084.144.18.288.252.444.3.492.588,1.009.852,1.513a37.223,37.223,0,0,1,2.005,4.466h0a39.549,39.549,0,0,1,2.521,10.65A41.193,41.193,0,0,1,441.955,481.027Z" transform="translate(71.383 83.777)" fill="#5a2a86"/>
      <path id="Path_1691" data-name="Path 1691" d="M429.482,437.8c-6.351,1.057-13.291-3.314-10-11.682a43.663,43.663,0,0,1,6.76,6.892c.636.8,1.2,1.633,1.825,2.5h0c.4.6.792,1.2,1.2,1.825h0A3.3,3.3,0,0,0,429.482,437.8Z" transform="translate(83.987 85.521)" fill="#bdaacf"/>
      <path id="Path_1692" data-name="Path 1692" d="M415.491,501.734a49.093,49.093,0,0,1-27.95.228,46.721,46.721,0,0,1-7.468-2.893,44.784,44.784,0,0,1-10.974-7.54l-.4-.384a40.825,40.825,0,0,1-3.6-3.878,41.9,41.9,0,0,1-3.9-5.619,38.64,38.64,0,0,1-2.1-4.166,40.176,40.176,0,0,1-2.7-8.717c-.228-1.2-.408-2.4-.528-3.7q-.072-.756-.108-1.513v-5.295a43.078,43.078,0,0,1,17.1-31.048,113.173,113.173,0,0,1,14.215-7.444h0a40.835,40.835,0,0,1,4.2-1.2c.66-.144,1.3-.288,1.957-.4s1.2-.228,1.861-.312l1.465-.192h0l.852-.1h.624l1.465-.12c.768,0,1.525-.06,2.281-.06a47.727,47.727,0,0,1,14.407,2.1c.24.072.468.132.7.216.588.18,1.2.384,1.765.588l1.2.48a.216.216,0,0,1,.12,0l.372.144a6.024,6.024,0,0,1,.636.276c.4.156.792.324,1.2.516a49.551,49.551,0,0,1,6.543,12.45C436.586,455.666,430.955,483.052,415.491,501.734Z" transform="translate(71.373 83.769)" fill="#442065"/>
      <path id="Path_1693" data-name="Path 1693" d="M428.844,434.191c-3.854,30.7-36.811,43.523-69.756,43.282a40.176,40.176,0,0,1-2.7-8.717c-.228-1.2-.408-2.4-.528-3.7q-.072-.756-.108-1.513v-5.295A43.078,43.078,0,0,1,372.859,427.2a46.293,46.293,0,0,1,6.892-4.394c.768-.4,1.549-.768,2.4-1.129l.18-.072,1.645-.708h.132c.985-.4,1.993-.768,3.026-1.093h0a40.831,40.831,0,0,1,4.2-1.2c.66-.144,1.3-.288,1.957-.4s1.2-.228,1.861-.312l1.465-.192h0l.852-.1h.624l1.465-.12c.768,0,1.525-.06,2.281-.06a47.723,47.723,0,0,1,14.407,2.1c.24.072.468.132.7.216.588.18,1.2.384,1.765.588l1.2.48a.216.216,0,0,1,.12,0l.372.144a6,6,0,0,1,.636.276c.4.156.792.324,1.2.516l.384.18c.492.228,1,.48,1.477.732a45.918,45.918,0,0,1,5.019,3.014,49.445,49.445,0,0,1-.276,8.512Z" transform="translate(71.371 83.777)" fill="#170a21"/>
      <path id="Path_1694" data-name="Path 1694" d="M427.3,438.215a46.824,46.824,0,0,1-36.127,22.62,48.709,48.709,0,0,1-18.3-1.729,46.7,46.7,0,0,1-7.468-2.893,44.783,44.783,0,0,1-10.974-7.54l-.4-.384a40.825,40.825,0,0,1-3.6-3.878,41.911,41.911,0,0,1-3.9-5.619,40.822,40.822,0,0,1-4.8-12.883c-.228-1.2-.408-2.4-.528-3.7q-.072-.756-.108-1.513V415.4c1.045-15.02,10.361-28.311,24.012-35.43.768-.4,1.549-.768,2.4-1.129l.18-.072,1.645-.708h.132a45.62,45.62,0,0,1,7.2-2.257c.66-.144,1.3-.288,1.957-.4s1.2-.228,1.861-.312l1.465-.192h0l.852-.1h.624l1.465-.12h2.281a47.724,47.724,0,0,1,14.407,2.1c.24.072.468.132.7.216.588.18,1.2.384,1.765.588l1.2.48a.216.216,0,0,1,.12,0l.372.144a6,6,0,0,1,.636.276c.4.156.792.324,1.2.516l.384.18c.492.228,1,.48,1.477.732a44.723,44.723,0,0,1,14.7,12.1c.636.8,1.2,1.633,1.825,2.5h0c.4.6.792,1.2,1.2,1.825h0c.384.636.756,1.3,1.1,1.957a37.23,37.23,0,0,1,2.005,4.466h0a39.547,39.547,0,0,1,2.521,10.65,41.193,41.193,0,0,1-5.487,24.793Z" transform="translate(68.432 75.202)" fill="#5a2a86"/>
      <path id="Path_1695" data-name="Path 1695" d="M414.9,393.732c-8.092-2.978-17.6-9.6-18.382-15.512l.384.18c.492.228,1,.48,1.477.732a44.723,44.723,0,0,1,14.7,12.1C413.713,392.039,414.325,392.868,414.9,393.732Z" transform="translate(79.55 75.911)" fill="#bdaacf"/>
      <path id="Path_1696" data-name="Path 1696" d="M354.043,448.3a40.813,40.813,0,0,1-3.6-3.878,41.913,41.913,0,0,1-3.9-5.619,40.822,40.822,0,0,1-4.8-12.883c-.228-1.2-.408-2.4-.528-3.7q-.072-.756-.108-1.513v-5.295c1.045-15.02,10.361-28.311,24.012-35.43.768-.4,1.549-.768,2.4-1.129l.18-.072,1.645-.708h.132a45.62,45.62,0,0,1,7.2-2.257c.66-.144,1.3-.288,1.957-.4s1.2-.228,1.861-.312l1.465-.192h0l.852-.1h.624l1.465-.12h2.281a47.726,47.726,0,0,1,14.407,2.1c.24.072.468.132.7.216.588.18,1.2.384,1.765.588l1.2.48a.216.216,0,0,1,.12,0l.372.144a6.013,6.013,0,0,1,.636.276C407.867,412.28,381.309,434.191,354.043,448.3Z" transform="translate(68.432 75.204)" fill="#442065"/>
      <path id="Path_1697" data-name="Path 1697" d="M341.726,425.939c-.228-1.2-.408-2.4-.528-3.7q-.072-.756-.108-1.513v-5.295c1.045-15.02,10.361-28.311,24.012-35.43.768-.4,1.549-.768,2.4-1.129l.18-.072,1.645-.708h.132a45.62,45.62,0,0,1,7.2-2.257c.66-.144,1.3-.288,1.957-.4s1.2-.228,1.861-.312l1.465-.192h0l.852-.1h.624l1.465-.12h2.281a47.724,47.724,0,0,1,14.407,2.1c.24.072.468.132.7.216C405.948,398.517,373.3,417.354,341.726,425.939Z" transform="translate(68.43 75.208)" fill="#170a21"/>
      <path id="Path_1698" data-name="Path 1698" d="M408.449,364.342a43.222,43.222,0,0,1-60.175,39.777,41.876,41.876,0,0,1-6.711-3.6,42.863,42.863,0,0,1-9.6-8.56,41.018,41.018,0,0,1-3.362-4.634,42.126,42.126,0,0,1-3.134-6,42.969,42.969,0,0,1-3.482-17.013v-3.722a2.937,2.937,0,0,0,0-.324l.072-.708a8.216,8.216,0,0,1,.156-1.2c.06-.4.072-.564.12-.84a43.222,43.222,0,0,1,25.861-32.945c.744-.324,1.513-.624,2.281-.9l.18-.06,1.6-.54h.132a41.073,41.073,0,0,1,7-1.549c.624-.084,1.2-.156,1.861-.2s1.2-.108,1.765-.132h4.19a21.065,21.065,0,0,1,2.137.156,42.586,42.586,0,0,1,13.291,3.482c.756.324,1.489.672,2.221,1.044l1.129.588.108.06.336.18c.66.372,1.321.756,1.957,1.2.444.276.888.576,1.321.876a43.535,43.535,0,0,1,12.643,13.459,44.054,44.054,0,0,1,2.4,4.61h0c.3.672.588,1.357.852,2.053a37.811,37.811,0,0,1,1.465,4.634h0a41.865,41.865,0,0,1,1.393,10.818Z" transform="translate(64.596 64.467)" fill="#5a2a86"/>
      <path id="Path_1699" data-name="Path 1699" d="M393.644,345.676c-6.375-1.837-13.075-8.512-16.365-18.946.444.276.888.576,1.321.876a43.533,43.533,0,0,1,12.643,13.459A44.065,44.065,0,0,1,393.644,345.676Z" transform="translate(75.69 65.581)" fill="#bdaacf"/>
      <path id="Path_1700" data-name="Path 1700" d="M328.615,387.322a42.121,42.121,0,0,1-3.134-6A42.97,42.97,0,0,1,322,364.306q0-.756,0-1.513v-2.209a2.959,2.959,0,0,0,0-.324l.072-.708a8.215,8.215,0,0,1,.156-1.2c.06-.4.072-.564.12-.84a43.222,43.222,0,0,1,25.837-32.945c.744-.324,1.513-.624,2.281-.9l.18-.06,1.6-.54h.132a41.073,41.073,0,0,1,7-1.549c.624-.084,1.2-.156,1.861-.2s1.2-.108,1.765-.132h4.19a21.065,21.065,0,0,1,2.137.156,42.586,42.586,0,0,1,13.291,3.482c.756.324,1.489.672,2.221,1.044l1.129.588.108.06C387.542,362.649,359.3,383.312,328.615,387.322Z" transform="translate(64.6 64.467)" fill="#442065"/>
      <path id="Path_1701" data-name="Path 1701" d="M382.593,324.794c-6.171,25.417-39.7,33.389-60.463,35.791a2.937,2.937,0,0,0,0-.324l.072-.708a8.216,8.216,0,0,1,.156-1.2c.06-.4.072-.564.12-.84a43.222,43.222,0,0,1,25.681-32.945c.744-.324,1.513-.624,2.281-.9l.18-.06,1.6-.54h.132a41.073,41.073,0,0,1,7-1.549c.624-.084,1.2-.156,1.861-.2s1.2-.108,1.765-.132h4.19a21.065,21.065,0,0,1,2.137.156A42.587,42.587,0,0,1,382.593,324.794Z" transform="translate(64.626 64.467)" fill="#170a21"/>
      <path id="Path_1702" data-name="Path 1702" d="M391.532,302.72a50.456,50.456,0,1,1-100.912,0v-3.7a3.681,3.681,0,0,1,.1-1.021c.1-.336,0-.552.084-.828q.072-.708.18-1.4a6.758,6.758,0,0,1,.132-.973,50.342,50.342,0,0,1,42.982-42.022c.72-.1,1.441-.18,2.173-.228s1.369-.132,2.053-.156,1.081,0,1.633-.06h3.254a24.688,24.688,0,0,1,2.5.18,50.054,50.054,0,0,1,18.093,5.271c.444.228.888.456,1.321.7l.516.276a43.54,43.54,0,0,1,3.83,2.4,50.75,50.75,0,0,1,14.744,15.7A49.735,49.735,0,0,1,388,284.651a45.635,45.635,0,0,1,1.717,5.4h0A49.332,49.332,0,0,1,391.532,302.72Z" transform="translate(58.304 50.655)" fill="#5a2a86"/>
      <path id="Path_1703" data-name="Path 1703" d="M376.741,288.579c-18.742-6.627-21.371-18.862-20.254-28.9a50.75,50.75,0,0,1,14.744,15.7,49.741,49.741,0,0,1,3.794,7.792A45.629,45.629,0,0,1,376.741,288.579Z" transform="translate(71.475 52.129)" fill="#bdaacf"/>
      <path id="Path_1704" data-name="Path 1704" d="M302.316,334.933a49.562,49.562,0,0,1-7.588-12.366,50.126,50.126,0,0,1-4.058-19.846v-3.7a3.682,3.682,0,0,1,.1-1.021c.1-.336,0-.552.084-.828q.072-.708.18-1.4a6.758,6.758,0,0,1,.132-.973,50.342,50.342,0,0,1,42.982-42.022c.72-.1,1.441-.18,2.173-.228s1.369-.132,2.053-.156,1.081,0,1.633-.06h3.254a24.7,24.7,0,0,1,2.5.18,50.054,50.054,0,0,1,18.093,5.271c.444.228.888.456,1.321.7l.516.276C367.546,295.156,324.948,324.439,302.316,334.933Z" transform="translate(58.314 50.655)" fill="#442065"/>
      <path id="Path_1705" data-name="Path 1705" d="M365.218,258.489c-10.193,26.27-48.505,35.406-74.138,37.279a6.758,6.758,0,0,1,.132-.973,50.342,50.342,0,0,1,42.982-42.022c.72-.1,1.441-.18,2.173-.228s1.369-.132,2.053-.156,1.081,0,1.633-.06h3.254a24.688,24.688,0,0,1,2.5.18,50.054,50.054,0,0,1,18.093,5.271C364.342,258.021,364.786,258.249,365.218,258.489Z" transform="translate(58.397 50.655)" fill="#170a21"/>
      <path id="Path_1706" data-name="Path 1706" d="M374.856,236.726a50.426,50.426,0,0,1-70.2,46.4,49.61,49.61,0,0,1-7.84-4.2,50.426,50.426,0,0,1,20.795-92.172c.72-.1,1.441-.18,2.173-.228s1.369-.132,2.053-.156,1.717-.072,2.593-.072h2.293a24.688,24.688,0,0,1,2.5.18,50.413,50.413,0,0,1,45.636,50.246Z" transform="translate(54.966 37.408)" fill="#5a2a86"/>
      <path id="Path_1707" data-name="Path 1707" d="M358.494,210.827c-20.3,14.72-36.739-8.344-38.5-24.337a50.426,50.426,0,0,1,38.5,24.337Z" transform="translate(64.197 37.446)" fill="#bdaacf"/>
      <path id="Path_1708" data-name="Path 1708" d="M304.656,283.118a49.61,49.61,0,0,1-7.84-4.2,50.426,50.426,0,0,1,20.795-92.172c.72-.1,1.441-.18,2.173-.228s1.369-.132,2.053-.156C324.934,211.729,323,258.541,304.656,283.118Z" transform="translate(54.966 37.42)" fill="#442065"/>
      <path id="Path_1709" data-name="Path 1709" d="M278.06,256.534a50.426,50.426,0,0,1,39.548-69.816c.72-.1,1.441-.18,2.173-.228C324.933,219.255,298.231,250.207,278.06,256.534Z" transform="translate(54.968 37.446)" fill="#170a21"/>
      <path id="Path_1710" data-name="Path 1710" d="M262.852,81.726c0,19.762-13.771,33.233-31.72,39.392a72.36,72.36,0,0,1-21.263,3.794h-2.233c-13.363,0-24.409-3.6-32.285-10.313-6.868-5.883-11.322-14.227-12.8-24.8A58.372,58.372,0,0,1,162,81.726a50.426,50.426,0,0,1,100.852,0Z" transform="translate(32.501 6.311)" fill="#5a2a86"/>
      <path id="Path_1711" data-name="Path 1711" d="M249.9,48.494c-5.919,2.881-17.853,3.806-29.127,3.422-13.675-.468-41.013,10.589-56.537,13.543A50.426,50.426,0,0,1,249.9,48.494Z" transform="translate(32.95 6.31)" fill="#bdaacf"/>
      <path id="Path_1712" data-name="Path 1712" d="M261.967,68.949a73.238,73.238,0,0,1-7.84,12.174c-11.526,15.008-30.28,31.744-44.351,39.9h-2.233c-13.363,0-24.409-3.6-32.285-10.313-6.868-5.883-11.322-14.227-12.8-24.8,24.012-29.031,71.629-38.552,92.808-34.578A49.982,49.982,0,0,1,261.967,68.949Z" transform="translate(32.593 10.156)" fill="#442065"/>
      <path id="Path_1713" data-name="Path 1713" d="M251.989,80.42c-4.574,12.006-13.471,25.693-23.088,36.151a72.36,72.36,0,0,1-21.263,3.794H205.4c-13.363,0-24.409-3.6-32.285-10.313,4.923-28,34.182-54.376,68.291-56.045C256.647,53.2,257.764,65.412,251.989,80.42Z" transform="translate(34.731 10.859)" fill="#170a21"/>
      <path id="Path_1714" data-name="Path 1714" d="M332.853,171.226a50.426,50.426,0,1,1-57.246-49.97,51.091,51.091,0,0,1,6.82-.456h2.293a50.426,50.426,0,0,1,48.133,50.426Z" transform="translate(46.544 24.267)" fill="#5a2a86"/>
      <path id="Path_1715" data-name="Path 1715" d="M321.351,153.167a44.455,44.455,0,0,1-5.067,0c-39.464-.973-50.426-16.581-39.729-32.417a50.426,50.426,0,0,1,44.8,32.417Z" transform="translate(54.707 24.257)" fill="#bdaacf"/>
      <path id="Path_1716" data-name="Path 1716" d="M324.218,199.376a50.426,50.426,0,1,1-48.613-78.2,59.164,59.164,0,0,0-5.223,12.126C263.118,157.631,274.452,184.309,324.218,199.376Z" transform="translate(46.546 24.343)" fill="#442065"/>
      <path id="Path_1717" data-name="Path 1717" d="M283.114,120.812a118.4,118.4,0,0,0-12.691,12.57c-20.651,23.688-33.737,56.933-15.608,80.045a50.426,50.426,0,0,1,20.795-92.172,51.09,51.09,0,0,1,6.82-.456Z" transform="translate(46.54 24.267)" fill="#170a21"/>
      <path id="Path_1718" data-name="Path 1718" d="M294.852,102.247c0,27.854-27.374,43.222-55.229,43.222-14.275,0-25.909-4.034-33.845-11.718-6.735-6.531-10.806-15.68-11.622-27.218a38.9,38.9,0,0,1-.156-4.286V100.3a50.426,50.426,0,0,1,96.4-18.826h0a50.353,50.353,0,0,1,2.821,7.984,48.654,48.654,0,0,1,1.393,7.876C294.768,98.958,294.852,100.59,294.852,102.247Z" transform="translate(38.92 10.403)" fill="#5a2a86"/>
      <path id="Path_1719" data-name="Path 1719" d="M290.4,81.477C271.86,68.21,217.232,79.159,194,100.3a50.426,50.426,0,0,1,96.4-18.826Z" transform="translate(38.92 10.403)" fill="#bdaacf"/>
      <path id="Path_1720" data-name="Path 1720" d="M294.826,95.935c0,27.854-27.374,43.222-55.229,43.222-14.275,0-25.909-4.034-33.845-11.718-6.736-6.531-10.806-15.68-11.622-27.218,34.374,2.125,80.886-1.2,99.063-17.061a48.661,48.661,0,0,1,1.393,7.876C294.742,92.645,294.826,94.278,294.826,95.935Z" transform="translate(38.947 16.716)" fill="#442065"/>
      <path id="Path_1721" data-name="Path 1721" d="M237.655,137.841c-14.275,0-25.909-4.034-33.845-11.718,32.513.78,68.651-14.407,88.846-36.4.156,1.609.24,3.242.24,4.9C292.884,122.473,265.51,137.841,237.655,137.841Z" transform="translate(40.889 18.032)" fill="#170a21"/>
      <path id="Path_1722" data-name="Path 1722" d="M568.716,487.235v2.437a9.769,9.769,0,0,1-.108,1.681c-.132,1.381-.312,2.761-.54,4.106a46.67,46.67,0,0,1-2.773,9.665,43.794,43.794,0,0,1-2.149,4.634,40.745,40.745,0,0,1-2.4,3.914c-.516.78-1.057,1.561-1.633,2.317a43.333,43.333,0,0,1-3.7,4.3,4.656,4.656,0,0,1-.408.432,45.621,45.621,0,0,1-11.226,8.4,44.059,44.059,0,0,1-7.636,3.206c-.48.156-.972.3-1.465.432a44.409,44.409,0,0,1-6.7,1.345,45.542,45.542,0,0,1-10.554.108,11.02,11.02,0,0,1-1.525-.192c-.984-.132-1.969-.3-2.93-.516a45.131,45.131,0,0,1-11.37-3.878,1.015,1.015,0,0,1-.168-.072,46.405,46.405,0,0,1-8.4-5.4h0a48.757,48.757,0,0,1-12.535-15.032c-.468-.864-.912-1.741-1.333-2.641h0a49.093,49.093,0,0,1-3.878-12.691,49.863,49.863,0,0,1-.432-12.222,47.454,47.454,0,0,1,2.581-11.826h0a41.8,41.8,0,0,1,2.053-4.959c.264-.552.564-1.129.876-1.681.072-.168.168-.324.252-.492h0c.384-.7.792-1.357,1.2-2.029h0c.588-.961,1.2-1.873,1.873-2.773l.636-.864c.372-.48.732-.948,1.117-1.4a46.5,46.5,0,0,1,5.163-5.379,35.664,35.664,0,0,1,2.978-2.4,46.414,46.414,0,0,1,5.139-3.338c.492-.288,1.009-.564,1.513-.816l.384-.2c.4-.2.8-.4,1.2-.564a6.47,6.47,0,0,1,.648-.312,3.631,3.631,0,0,1,.384-.156.227.227,0,0,1,.12,0l1.273-.528c.6-.228,1.2-.456,1.813-.648a6.981,6.981,0,0,1,.708-.24,45.393,45.393,0,0,1,14.756-2.4c.768,0,1.537,0,2.329.072l1.5.132h.636l.876.108h0c.5.072,1,.132,1.489.216s1.285.2,1.909.348,1.321.276,2.005.444a38.354,38.354,0,0,1,4.3,1.273h0c1.057.36,2.089.78,3.1,1.2h.132l1.681.78a1.19,1.19,0,0,0,.18.084c.816.4,1.609.8,2.4,1.2a47.154,47.154,0,0,1,7.048,4.875,49.223,49.223,0,0,1,9.6,10.806c.78,1.2,1.5,2.4,2.173,3.7a47.253,47.253,0,0,1,2.2,4.67,48.854,48.854,0,0,1,3.35,13.411c0,.612.12,1.2.156,1.861v3.086A.6.6,0,0,1,568.716,487.235Z" transform="translate(95.227 88.014)" fill="#5a2a86"/>
      <path id="Path_1723" data-name="Path 1723" d="M520.7,522.586a13.866,13.866,0,0,0,1.753,3.854c3.062,4.61-7.264,5.595-20.879,3.17a1,1,0,0,1-.168-.072,46.4,46.4,0,0,1-8.4-5.4h0A48.757,48.757,0,0,1,480.465,509.1c-.468-.864-.913-1.741-1.333-2.641h0a49.1,49.1,0,0,1-3.878-12.691,49.863,49.863,0,0,1-.432-12.222,47.461,47.461,0,0,1,2.581-11.826h0a41.8,41.8,0,0,1,2.053-4.959c.264-.552.564-1.129.877-1.681.072-.168.168-.324.252-.492h0c.384-.7.792-1.357,1.2-2.029h0c.588-.96,1.2-1.873,1.873-2.773l.636-.864c.372-.48.732-.948,1.117-1.4a46.486,46.486,0,0,1,5.163-5.379,35.652,35.652,0,0,1,2.978-2.4,46.43,46.43,0,0,1,5.139-3.338c.492-.288,1.008-.564,1.513-.816l.384-.2c.4-.2.8-.4,1.2-.564a6.464,6.464,0,0,1,.648-.312,3.613,3.613,0,0,1,.384-.156.228.228,0,0,1,.12,0l1.273-.528c.6-.228,1.2-.456,1.813-.648a6.981,6.981,0,0,1,.708-.24,45.4,45.4,0,0,1,14.756-2.4c.768,0,1.537,0,2.329.072l1.5.132h.636l.876.108h0c.5.072,1,.132,1.489.216s1.285.2,1.909.348,1.321.276,2.005.444a38.336,38.336,0,0,1,4.3,1.273h0c1.057.36,2.089.78,3.1,1.2h.132l1.681.78a1.2,1.2,0,0,0,.18.084c.816.4,1.609.8,2.4,1.2a47.161,47.161,0,0,1,7.048,4.875,49.228,49.228,0,0,1,9.6,10.806c.78,1.2,1.5,2.4,2.173,3.7a47.288,47.288,0,0,1,2.2,4.67,48.853,48.853,0,0,1,3.35,13.411C530.807,486.231,516.928,509.187,520.7,522.586Z" transform="translate(95.221 88.01)" fill="#442065"/>
      <path id="Path_1724" data-name="Path 1724" d="M534.649,532.743a44.435,44.435,0,0,1-6.7,1.345,45.548,45.548,0,0,1-10.553.108,11.012,11.012,0,0,1-1.525-.192c-.984-.132-1.969-.3-2.93-.516a45.132,45.132,0,0,1-11.37-3.878,1,1,0,0,1-.168-.072,46.4,46.4,0,0,1-8.4-5.4h0A48.758,48.758,0,0,1,480.465,509.1c-.468-.864-.912-1.741-1.333-2.641h0a49.1,49.1,0,0,1-3.878-12.691,49.865,49.865,0,0,1-.432-12.222,47.464,47.464,0,0,1,2.581-11.826h0a41.816,41.816,0,0,1,2.053-4.959c.264-.552.564-1.129.876-1.681.072-.168.168-.324.252-.492h0c.384-.7.792-1.357,1.2-2.029h0c.588-.96,1.2-1.873,1.873-2.773l.636-.864c.372-.48.732-.948,1.117-1.4a46.5,46.5,0,0,1,5.163-5.379,35.653,35.653,0,0,1,2.977-2.4,46.415,46.415,0,0,1,5.139-3.338c.492-.288,1.009-.564,1.513-.816l.384-.2c.4-.2.8-.4,1.2-.564a6.47,6.47,0,0,1,.648-.312,3.6,3.6,0,0,1,.384-.156.227.227,0,0,1,.12,0l1.273-.528c.6-.228,1.2-.456,1.813-.648a6.975,6.975,0,0,1,.708-.24,45.4,45.4,0,0,1,14.756-2.4c.768,0,1.537,0,2.329.072l1.5.132h.636l.876.108h0c.5.072,1,.132,1.489.216s1.285.2,1.909.348,1.321.276,2.005.444a38.336,38.336,0,0,1,4.3,1.273h0c1.057.36,2.089.78,3.1,1.2h.132l1.681.78a1.19,1.19,0,0,0,.18.084c.816.4,1.609.8,2.4,1.2a47.17,47.17,0,0,1,7.048,4.875,49.227,49.227,0,0,1,9.6,10.806c.78,1.2,1.5,2.4,2.173,3.7-23.22-6.219-58.722-16.292-65.326-9.689-8.4,8.4-17.409,48.625-6.9,58.53,5.787,5.463,19.438,7,30.016,9.893C528.214,524.651,534.181,527.4,534.649,532.743Z" transform="translate(95.221 88.01)" fill="#170a21"/>
      <path id="Path_1725" data-name="Path 1725" d="M575.186,232.382v1.081a10.375,10.375,0,0,1,0,1.057,6.745,6.745,0,0,1-.108,1.477c-.108.492-.12,1.033-.2,1.549s-.2,1.369-.336,2.041a36.7,36.7,0,0,1-2.761,8.476,37.368,37.368,0,0,1-2.125,4.058,35.552,35.552,0,0,1-2.4,3.434c-.516.672-1.057,1.357-1.621,2.029a40.745,40.745,0,0,1-3.482,3.6l-.2.18a3.961,3.961,0,0,1-.408.372,42.906,42.906,0,0,1-4.346,3.422,45.444,45.444,0,0,1-6.82,3.914,49.229,49.229,0,0,1-7.612,2.809c-.48.132-.972.264-1.465.372a48.129,48.129,0,0,1-6.651,1.2,50.282,50.282,0,0,1-10.505.1,10.968,10.968,0,0,1-1.525-.168c-.972-.108-1.957-.252-2.917-.444a47.521,47.521,0,0,1-5.391-1.2,49.559,49.559,0,0,1-5.919-2.137l-.18-.072a47.122,47.122,0,0,1-8.4-4.718h0a48.384,48.384,0,0,1-4.43-3.53l-.924-.84h0c-.768-.72-1.513-1.477-2.209-2.257a41.491,41.491,0,0,1-4.91-6.531c-.468-.756-.913-1.537-1.333-2.317a40.341,40.341,0,0,1-3.83-10.974v-.156a38.723,38.723,0,0,1-.42-10.7,2.22,2.22,0,0,1,.084-.744,36.023,36.023,0,0,1,.888-4.742,35.587,35.587,0,0,1,1.6-4.875h0a33.263,33.263,0,0,1,2.041-4.346v-.072c.252-.468.528-.924.816-1.393.084-.156.168-.288.252-.432h0c.384-.612.8-1.2,1.2-1.777h0a26.228,26.228,0,0,1,1.873-2.4c.192-.252.42-.5.624-.768s.732-.816,1.117-1.2.7-.744,1.069-1.1a43.221,43.221,0,0,1,4.07-3.6c.937-.744,1.933-1.453,2.966-2.137a41,41,0,0,1,3.71-2.2l1.393-.732c.492-.24,1.008-.492,1.513-.708l.384-.18a12.156,12.156,0,0,1,1.2-.492,6,6,0,0,1,.636-.276l.384-.132a.228.228,0,0,1,.12,0l1.225-.72c.612-.2,1.2-.4,1.813-.564a4.679,4.679,0,0,1,.7-.216,50.425,50.425,0,0,1,11.826-1.981c.948-.06,1.909-.072,2.869-.072.768,0,1.525,0,2.317.06l1.489.12h.636l.876.084h0l1.489.168c.648.1,1.273.18,1.909.3s1.309.252,1.993.4a42.966,42.966,0,0,1,4.274,1.117h0c1.045.324,2.077.7,3.086,1.081h.132l1.681.7.168.06.24.108c.732.312,1.441.636,2.149.985a47.462,47.462,0,0,1,7.024,4.286c.216.156.432.312.648.492a44.314,44.314,0,0,1,8.188,8.02c.264.312.5.624.744.948s.528.744.78,1.129a2.623,2.623,0,0,1,.2.3c.42.588.8,1.2,1.2,1.8l.54.9q.9,1.561,1.657,3.206l.12.264a38.876,38.876,0,0,1,3.206,11.478c0,.528.12,1.081.156,1.621v1.645a.85.85,0,0,0,0,.168v1.021C575.186,232.166,575.174,232.274,575.186,232.382Z" transform="translate(96.609 38.078)" fill="#5a2a86"/>
      <path id="Path_1726" data-name="Path 1726" d="M557.159,265.123a45.434,45.434,0,0,1-6.819,3.914,49.225,49.225,0,0,1-7.612,2.81c-.48.132-.973.264-1.465.372a48.122,48.122,0,0,1-6.651,1.2,50.285,50.285,0,0,1-10.505.1,10.962,10.962,0,0,1-1.525-.168c-.973-.108-1.957-.252-2.918-.444a47.539,47.539,0,0,1-5.391-1.2,49.557,49.557,0,0,1-5.919-2.137l-.18-.072a47.128,47.128,0,0,1-8.4-4.718h0a48.376,48.376,0,0,1-4.43-3.53l-.924-.84h0c-.768-.72-1.513-1.477-2.209-2.257a41.488,41.488,0,0,1-4.91-6.531c-.468-.756-.913-1.537-1.333-2.317a40.341,40.341,0,0,1-3.83-10.974v-.156a38.721,38.721,0,0,1-.42-10.7,2.22,2.22,0,0,1,.084-.744,36.033,36.033,0,0,1,.888-4.742,35.588,35.588,0,0,1,1.6-4.875h0a33.287,33.287,0,0,1,2.041-4.346s0-.06,0-.072c.252-.468.528-.924.816-1.393.084-.156.168-.288.252-.432h0c.384-.612.8-1.2,1.2-1.777h0a26.233,26.233,0,0,1,1.873-2.4c.192-.252.42-.5.624-.768s.732-.816,1.117-1.2.7-.744,1.069-1.1a43.223,43.223,0,0,1,4.07-3.6c.937-.744,1.933-1.453,2.966-2.137a40.994,40.994,0,0,1,3.71-2.2l1.393-.732c.492-.24,1.008-.492,1.513-.708l.384-.18a12.166,12.166,0,0,1,1.2-.492,6.009,6.009,0,0,1,.636-.276l.384-.132a.228.228,0,0,1,.12,0l1.26-.7c.612-.2,1.2-.4,1.813-.564a4.679,4.679,0,0,1,.7-.216,50.425,50.425,0,0,1,11.826-1.981c12.666,7.276,22.427,16.3,23.184,23.148a10.565,10.565,0,0,1-2.053,7.4c-9.893,14.311-50.954,20.927-42.31,35.658C512.916,270.91,547.494,258.976,557.159,265.123Z" transform="translate(96.603 38.09)" fill="#442065"/>
      <path id="Path_1727" data-name="Path 1727" d="M571.682,216.258c-2.509,3.686-7.9,5.691-16.809,4.622l-1.417-.156c-2.257-.228-4.634-.4-7.108-.48-18.153-.684-41.686,2.269-64.629,6.387a36.024,36.024,0,0,1,.888-4.742,35.58,35.58,0,0,1,1.6-4.875h0a33.273,33.273,0,0,1,2.041-4.346s0-.06,0-.072c.252-.468.528-.924.816-1.393.084-.156.168-.288.252-.432h0c.384-.612.8-1.2,1.2-1.777h0a26.227,26.227,0,0,1,1.873-2.4c.192-.252.42-.5.624-.768s.732-.816,1.117-1.2.7-.744,1.069-1.1a43.222,43.222,0,0,1,4.07-3.6c.936-.744,1.933-1.453,2.966-2.137a40.987,40.987,0,0,1,3.71-2.2l1.393-.732c.492-.24,1.009-.492,1.513-.708l.384-.18a12.171,12.171,0,0,1,1.2-.492,6,6,0,0,1,.636-.276l.384-.132a.228.228,0,0,1,.12,0l1.3-.588c.612-.2,1.2-.4,1.813-.564a4.679,4.679,0,0,1,.7-.216,50.425,50.425,0,0,1,11.826-1.981c.948-.06,1.909-.072,2.869-.072.768,0,1.525,0,2.317.06l1.489.12h.636l.876.084h0l1.489.168c.648.1,1.273.18,1.909.3s1.309.252,1.993.4a42.966,42.966,0,0,1,4.274,1.117h0c1.045.324,2.077.7,3.086,1.081h.132l1.681.7.168.06.24.108c.732.312,1.441.636,2.149.985a47.462,47.462,0,0,1,7.024,4.286c.216.156.432.312.648.492a44.314,44.314,0,0,1,8.188,8.02c.264.312.5.624.744.948s.528.744.78,1.129a2.623,2.623,0,0,1,.2.3c.42.588.8,1.2,1.2,1.8l.54.9q.9,1.561,1.657,3.206Z" transform="translate(96.643 38.078)" fill="#170a21"/>
      <path id="Path_1728" data-name="Path 1728" d="M563.988,231.664v1.081a10.375,10.375,0,0,1,0,1.057,6.745,6.745,0,0,1-.108,1.477c-.108.492-.12,1.033-.2,1.549-9.725.216-16.893-6.519-21.275-16.809-3.182-7.48-4.887-16.809-5.031-26.8.732.312,1.441.636,2.149.985a47.46,47.46,0,0,1,7.024,4.286c.216.156.432.312.648.492a44.312,44.312,0,0,1,8.188,8.02c.264.312.5.624.744.949s.528.744.78,1.129a2.625,2.625,0,0,1,.2.3c.42.588.8,1.2,1.2,1.8l.54.9q.9,1.561,1.657,3.206l.12.264a38.878,38.878,0,0,1,3.206,11.478c0,.528.12,1.081.156,1.621V230.3a.85.85,0,0,0,0,.168v.912A2.322,2.322,0,0,0,563.988,231.664Z" transform="translate(107.808 38.796)" fill="#bdaacf"/>
      <path id="Path_1729" data-name="Path 1729" d="M436,66.527a25.357,25.357,0,0,1-.348,3.674,30.482,30.482,0,0,1-2.8,8.488,48.551,48.551,0,0,1-7.816,11.286,84.683,84.683,0,0,1-7.528,7.372,50.078,50.078,0,0,1-11.634,7.6,47.771,47.771,0,0,1-8.945,3.218,47.068,47.068,0,0,1-7.024,1.2,46.26,46.26,0,0,1-6.435.228,22.187,22.187,0,0,1-2.521-.144,45.624,45.624,0,0,1-10.229-2.077A43.343,43.343,0,0,1,354.6,97.911a41.434,41.434,0,0,1-3.17-3.23c-.636-.732-1.2-1.465-1.825-2.209a27.009,27.009,0,0,1-1.621-2.245,40.209,40.209,0,0,1-7.2-22.32,41.244,41.244,0,0,1,.3-5.823c1.2-10.6,6.375-21.275,14.588-31.048a39.468,39.468,0,0,1,5.379-5.187,31.684,31.684,0,0,1,23.3-6.88,49.97,49.97,0,0,1,18.345,5.7c1.633.852,3.242,1.765,4.8,2.749.456.264.888.54,1.333.828,1.441.936,2.845,1.933,4.214,2.966a85.5,85.5,0,0,1,13.1,12.114C433.085,51.255,436.195,58.963,436,66.527Z" transform="translate(68.366 3.802)" fill="#5a2a86"/>
      <path id="Path_1730" data-name="Path 1730" d="M340.811,67.574a41.239,41.239,0,0,1,.3-5.823c1.2-10.6,6.375-21.275,14.588-31.048a39.464,39.464,0,0,1,5.379-5.187,32.214,32.214,0,0,1,9.041-5.127C374.2,52.339,359.589,57.537,340.811,67.574Z" transform="translate(68.372 4.123)" fill="#bdaacf"/>
      <path id="Path_1731" data-name="Path 1731" d="M403.8,83.7a53.943,53.943,0,0,1-8.32,21.323,47.065,47.065,0,0,1-7.024,1.2,46.259,46.259,0,0,1-6.435.228,22.184,22.184,0,0,1-2.521-.144,45.622,45.622,0,0,1-10.229-2.077,43.342,43.342,0,0,1-16.124-9.461,41.434,41.434,0,0,1-3.194-3.23c-.636-.732-1.2-1.465-1.825-2.209,1.957-18.009,14.131-30.556,22.812-54.292a13.554,13.554,0,0,1,2.545-.54C390.152,32.642,406.8,63.522,403.8,83.7Z" transform="translate(69.842 6.938)" fill="#442065"/>
      <path id="Path_1732" data-name="Path 1732" d="M427.786,75.914A48.553,48.553,0,0,1,419.97,87.2a84.671,84.671,0,0,1-7.528,7.372,50.077,50.077,0,0,1-11.634,7.6,47.77,47.77,0,0,1-8.945,3.218,47.069,47.069,0,0,1-7.024,1.2,46.26,46.26,0,0,1-6.435.228C366.4,86.407,362.328,47.111,369.832,34.78a2.081,2.081,0,0,1,.132-.216C376.219,24.875,411.41,53.486,427.786,75.914Z" transform="translate(73.437 6.577)" fill="#170a21"/>
      <path id="Path_1733" data-name="Path 1733" d="M465.4,61.429c0,11.538-2.99,20.158-8.6,26.27a29.332,29.332,0,0,1-2.942,2.785c-5.739,4.718-13.483,7.528-23.028,8.7a94.265,94.265,0,0,1-11.538.66,55.109,55.109,0,0,1-15.08-2.077,53.428,53.428,0,0,1-16.424-7.816,51.409,51.409,0,0,1-7.492-6.387,50.03,50.03,0,0,1-6.964-9.089,47.678,47.678,0,0,1-6.519-19.45,46.2,46.2,0,0,1-.264-5.019,51.46,51.46,0,0,1,.36-6.159A44.243,44.243,0,0,1,381.5,15.613C390.238,7.773,402.16,2.623,415.992.462A43.714,43.714,0,0,1,424.18.005a34.818,34.818,0,0,1,24.229,11.106A54.858,54.858,0,0,1,459.466,29.12c.732,1.873,1.4,3.782,1.993,5.727.18.54.336,1.093.492,1.645.516,1.813.973,3.6,1.357,5.487a93.471,93.471,0,0,1,2.089,19.45Z" transform="translate(73.538 0.027)" fill="#5a2a86"/>
      <path id="Path_1734" data-name="Path 1734" d="M456.138,29.1a279.265,279.265,0,0,1-14.924,43.835h0A172.624,172.624,0,0,1,427.5,99.171a94.258,94.258,0,0,1-11.538.66,55.109,55.109,0,0,1-15.08-2.077,53.427,53.427,0,0,1-16.424-7.816c3.962-15.728,5.487-33.822,1.381-49.225a59.033,59.033,0,0,0-2.065-6.327C379.2,22.752,400.021,8.116,420.852,0A34.818,34.818,0,0,1,445.08,11.106a54.857,54.857,0,0,1,11.058,18Z" transform="translate(76.866 0.032)" fill="#442065"/>
      <path id="Path_1735" data-name="Path 1735" d="M447.566,82.973c-5.739,4.718-13.483,7.528-23.028,8.7a94.265,94.265,0,0,1-11.538.66,55.109,55.109,0,0,1-15.08-2.077,52.826,52.826,0,0,0,3.1-24.973c-2.2-16.364,3-25.813,6.6-27.806,2.137-1.2,19.414,13.207,30.628,27.95h0C442.919,71.591,446.533,77.739,447.566,82.973Z" transform="translate(79.831 7.538)" fill="#170a21"/>
      <path id="Path_1736" data-name="Path 1736" d="M448.4,11.159c-3.278,12.15-18.982,27.89-28.287,26.222-6.315-1.117-18.442-1.2-30.952,3.326a56.934,56.934,0,0,0-22.32,14.323,46.21,46.21,0,0,1-.264-5.019,51.461,51.461,0,0,1,.36-6.159,44.243,44.243,0,0,1,14.551-28.239c8.741-7.84,20.663-12.991,34.494-15.152a43.714,43.714,0,0,1,8.188-.456A34.818,34.818,0,0,1,448.4,11.159Z" transform="translate(73.544 0.027)" fill="#bdaacf"/>
      <path id="Path_1737" data-name="Path 1737" d="M500.511,65.813c0,11.538-2.99,20.158-8.6,26.27-7.78,8.476-20.591,12.15-37.507,12.15a53.944,53.944,0,0,1-38.96-16.268,50.029,50.029,0,0,1-6.964-9.089A47.46,47.46,0,0,1,401.7,54.347a51.46,51.46,0,0,1,.36-6.159A44.243,44.243,0,0,1,416.672,20.01c8.681-7.852,20.6-13,34.434-15.164,25.213-3.53,39.26,14.059,45.468,34.374.18.54.336,1.093.492,1.645.516,1.813.973,3.6,1.357,5.487A93.473,93.473,0,0,1,500.511,65.813Z" transform="translate(80.589 0.913)" fill="#5a2a86"/>
      <path id="Path_1738" data-name="Path 1738" d="M460.295,74.864c-6.6-15.008-2.4-22.512,5.7-23.112s9,21.827,7.072,24.313S460.295,74.864,460.295,74.864Z" transform="translate(91.691 10.412)" fill="#170a21"/>
      <path id="Path_1739" data-name="Path 1739" d="M490.781,81.767c-7.78,8.476-20.591,12.15-37.507,12.15a53.944,53.944,0,0,1-38.96-16.268,50.029,50.029,0,0,1-6.964-9.089,135.746,135.746,0,0,1,9.485-12.751q2.017,3.434,3.974,6.387c11.922,17.925,22.56,23.064,29.331,22.812C448.735,78.058,487.78,71.562,490.781,81.767Z" transform="translate(81.723 11.229)" fill="#170a21"/>
      <path id="Path_1740" data-name="Path 1740" d="M497.065,38.275a4.8,4.8,0,0,1-2.857.636,82.58,82.58,0,0,0-10.637,1.1c-19.39,3.122-48.613,12.883-61.628,29.9a30.82,30.82,0,0,0-6.5,15.464,50.03,50.03,0,0,1-6.964-9.089A47.46,47.46,0,0,1,401.7,51.758a51.46,51.46,0,0,1,.36-6.159A44.243,44.243,0,0,1,416.672,17.42c29.763-1.609,73.838,13.363,79.9,19.21C497.293,37.35,497.486,37.879,497.065,38.275Z" transform="translate(80.589 3.503)" fill="#442065"/>
      <path id="Path_1741" data-name="Path 1741" d="M498.362,46.351a60.547,60.547,0,0,0-14.852-3.746,63.286,63.286,0,0,0-6.976-.5c-17.2-.324-50.858,3.6-74.535,6.135A44.243,44.243,0,0,1,416.612,20.01c8.681-7.852,20.6-13,34.434-15.164,25.213-3.53,39.26,14.059,45.468,34.374.72.684.912,1.2.492,1.645C497.521,42.677,497.978,44.514,498.362,46.351Z" transform="translate(80.65 0.913)" fill="#bdaacf"/>
      <path id="Path_1742" data-name="Path 1742" d="M539.652,111.514a52.517,52.517,0,0,1-7.2,25.885c-8.645,15.044-24.253,25.477-41.421,21.383-15.776-3.794-30.772-13.051-40.365-25.381a49.49,49.49,0,0,1-9.869-20.975,41.075,41.075,0,0,1-.792-8.08,36.115,36.115,0,0,1,3.6-16.076c7.7-15.68,26.774-23.94,47.437-23.94,22.908,0,42.118,15.38,47.268,36.091a45.291,45.291,0,0,1,1.333,9.689C539.652,110.554,539.652,111.034,539.652,111.514Z" transform="translate(88.273 12.938)" fill="#5a2a86"/>
      <path id="Path_1743" data-name="Path 1743" d="M537.695,100.391c-24.2,5.175-64.293-1.441-94.7-12.15,7.7-15.68,26.774-23.94,47.437-23.94C513.334,64.3,532.544,79.68,537.695,100.391Z" transform="translate(88.873 12.932)" fill="#bdaacf"/>
      <path id="Path_1744" data-name="Path 1744" d="M539.519,103.865a52.516,52.516,0,0,1-7.2,25.885c-8.644,15.044-24.253,25.477-41.421,21.383-15.776-3.794-30.772-13.051-40.365-25.381a49.49,49.49,0,0,1-9.869-20.975c34.746,13.987,79.625,7.2,98.835-2.317C539.519,102.9,539.519,103.384,539.519,103.865Z" transform="translate(88.406 20.588)" fill="#442065"/>
      <path id="Path_1745" data-name="Path 1745" d="M530.666,125.858c-8.644,15.044-24.253,25.477-41.421,21.383-15.776-3.794-30.772-13.051-40.365-25.381C487.624,125.87,513.858,124.633,530.666,125.858Z" transform="translate(90.055 24.48)" fill="#170a21"/>
      <path id="Path_1746" data-name="Path 1746" d="M564.066,175.494v2.137a6.748,6.748,0,0,1-.108,1.477c-.108.492-.12,1.033-.2,1.549s-.2,1.369-.336,2.041a36.683,36.683,0,0,1-2.761,8.476,37.346,37.346,0,0,1-2.125,4.058,35.527,35.527,0,0,1-2.4,3.434c-.516.672-1.057,1.357-1.621,2.029a40.471,40.471,0,0,1-3.314,3.422l-.168.156-.2.18a3.93,3.93,0,0,1-.408.372,42.906,42.906,0,0,1-4.346,3.422,45.464,45.464,0,0,1-6.82,3.914,49.23,49.23,0,0,1-7.612,2.809c-.48.132-.972.264-1.465.372a48.113,48.113,0,0,1-6.651,1.2c-.96.108-1.933.192-2.905.24h-.168a49.732,49.732,0,0,1-7.432-.156,10.966,10.966,0,0,1-1.525-.168c-.972-.108-1.957-.252-2.917-.444a47.52,47.52,0,0,1-5.391-1.2,49.56,49.56,0,0,1-5.919-2.137l-.18-.072a47.125,47.125,0,0,1-8.4-4.718h0a48.392,48.392,0,0,1-4.43-3.53l-.924-.84h0c-.768-.72-1.513-1.477-2.209-2.257a41.5,41.5,0,0,1-4.911-6.531c-.468-.756-.912-1.537-1.333-2.317a40.34,40.34,0,0,1-3.83-10.974v-.156a38.719,38.719,0,0,1-.42-10.7,2.22,2.22,0,0,1,.084-.744,37.916,37.916,0,0,1,2.485-9.6h0a33.245,33.245,0,0,1,2.041-4.346v-.072c.252-.468.528-.924.816-1.393l.252-.432h0c.384-.612.8-1.2,1.2-1.777h0c.3-.432.624-.864.949-1.285s.612-.768.924-1.2.42-.5.624-.768.732-.816,1.117-1.2.7-.744,1.069-1.1a43.216,43.216,0,0,1,4.07-3.6c.936-.744,1.933-1.453,2.966-2.137a41,41,0,0,1,3.71-2.2l1.393-.732c.492-.24,1.009-.492,1.513-.708l.384-.18a12.173,12.173,0,0,1,1.2-.492,6.012,6.012,0,0,1,.636-.276l.384-.132a.228.228,0,0,1,.12,0l1.2-.456c.612-.2,1.2-.4,1.813-.564a4.674,4.674,0,0,1,.7-.216A50.428,50.428,0,0,1,514.1,132.98h5.187l1.489.12h.636l.876.084h0l1.489.192c.648.1,1.273.18,1.909.3s1.309.252,1.993.4l.36.084a39.059,39.059,0,0,1,3.914,1.033h0c1.045.324,2.077.7,3.086,1.081h.132l1.681.7h.168l.24.108c.732.312,1.441.636,2.149.985a47.456,47.456,0,0,1,7.024,4.286c.216.156.432.312.648.492a44.312,44.312,0,0,1,8.188,8.02c.264.312.5.624.744.949s.528.744.78,1.129a2.637,2.637,0,0,1,.2.3c.42.588.8,1.2,1.2,1.8l.54.9q.9,1.573,1.657,3.206l.12.264a38.876,38.876,0,0,1,3.206,11.478c0,.528.12,1.081.156,1.621v1.645a.836.836,0,0,0,0,.168s0,0,0,.072v.816C564.066,175.278,564.054,175.386,564.066,175.494Z" transform="translate(94.378 26.711)" fill="#5a2a86"/>
      <path id="Path_1747" data-name="Path 1747" d="M551.166,204.117l-.168.156-.2.18a3.939,3.939,0,0,1-.408.372,42.9,42.9,0,0,1-4.346,3.422,45.457,45.457,0,0,1-6.82,3.914,49.226,49.226,0,0,1-7.612,2.809c-.48.132-.973.264-1.465.372a48.116,48.116,0,0,1-6.651,1.2c-.961.108-1.933.192-2.906.24h-.168a49.731,49.731,0,0,1-7.432-.156,10.964,10.964,0,0,1-1.525-.168c-.973-.108-1.957-.252-2.917-.444a47.524,47.524,0,0,1-5.391-1.2,49.565,49.565,0,0,1-5.919-2.137l-.18-.072a47.123,47.123,0,0,1-8.4-4.718h0a48.4,48.4,0,0,1-4.43-3.53l-.924-.84h0c-.768-.72-1.513-1.477-2.209-2.257a41.487,41.487,0,0,1-4.91-6.531c-.468-.756-.913-1.537-1.333-2.317a40.339,40.339,0,0,1-3.83-10.974v-.156a38.721,38.721,0,0,1-.42-10.7,2.222,2.222,0,0,1,.084-.744,37.914,37.914,0,0,1,2.485-9.6h0a33.242,33.242,0,0,1,2.041-4.346v-.072c.252-.468.528-.924.816-1.393l.252-.432h0c.384-.612.8-1.2,1.2-1.777h0c.3-.432.624-.864.948-1.285s.612-.768.924-1.2.42-.5.624-.768.732-.816,1.117-1.2.7-.744,1.069-1.1a43.223,43.223,0,0,1,4.07-3.6c.937-.744,1.933-1.453,2.966-2.137a40.994,40.994,0,0,1,3.71-2.2l1.393-.732c.492-.24,1.009-.492,1.513-.708l.384-.18a12.167,12.167,0,0,1,1.2-.492,6.007,6.007,0,0,1,.636-.276l.384-.132a.228.228,0,0,1,.12,0l1.2-.456c.612-.2,1.2-.4,1.813-.564a4.672,4.672,0,0,1,.7-.216,50.427,50.427,0,0,1,11.826-1.981h5.187l1.489.12h.636l.876.084h0l1.489.192c.648.1,1.273.18,1.909.3s1.309.252,1.993.4l.36.084-10.878,28.155a33.678,33.678,0,0,0,.312,14.648C521.474,192.255,536.746,201.559,551.166,204.117Z" transform="translate(94.372 26.711)" fill="#442065"/>
      <path id="Path_1748" data-name="Path 1748" d="M520.586,213.764h-.168a49.729,49.729,0,0,1-7.432-.156,10.964,10.964,0,0,1-1.525-.168c-.973-.108-1.957-.252-2.917-.444a47.52,47.52,0,0,1-5.391-1.2,49.569,49.569,0,0,1-5.919-2.137l-.18-.072a47.124,47.124,0,0,1-8.4-4.718h0a48.4,48.4,0,0,1-4.43-3.53l-.924-.84h0c-.768-.72-1.513-1.477-2.209-2.257a41.487,41.487,0,0,1-4.91-6.531c-.468-.756-.913-1.537-1.333-2.317a40.342,40.342,0,0,1-3.83-10.974v-.156a38.721,38.721,0,0,1-.42-10.7,2.222,2.222,0,0,1,.084-.744,37.916,37.916,0,0,1,2.485-9.6h0a33.243,33.243,0,0,1,2.041-4.346V152.8c.252-.468.528-.924.816-1.393l.252-.432h0c.384-.612.8-1.2,1.2-1.777h0c.3-.432.624-.864.948-1.285C479.164,162.173,479.981,204.447,520.586,213.764Z" transform="translate(94.372 29.706)" fill="#170a21"/>
      <path id="Path_1749" data-name="Path 1749" d="M559.459,175.53v1.657c-13.687,2.221-32.045.4-46.476-.324-2.4-.12-4.646-.2-6.771-.24-22.091-.36-12.33-26.174,4.514-43.823h4.058l1.489.12h.636l.876.084h0l1.489.192c.648.1,1.273.18,1.909.3s1.309.252,1.993.4l.36.084a39.06,39.06,0,0,1,3.914,1.033h0c1.045.324,2.077.7,3.086,1.081h.132l1.681.7h.168l.24.108c.732.312,1.441.636,2.149.985a47.465,47.465,0,0,1,7.024,4.286c.216.156.432.312.648.492a44.317,44.317,0,0,1,8.188,8.02c.264.312.5.624.744.948s.528.744.78,1.129a2.636,2.636,0,0,1,.2.3c.42.588.8,1.2,1.2,1.8l.54.9q.9,1.573,1.657,3.206l.12.264a38.876,38.876,0,0,1,3.206,11.478c0,.528.12,1.081.156,1.621v1.645a.85.85,0,0,0,0,.168v.888A1.946,1.946,0,0,1,559.459,175.53Z" transform="translate(98.985 26.674)" fill="#bdaacf"/>
    </g>
  </g>
</svg>
