<svg id="bg" xmlns="http://www.w3.org/2000/svg" width="1440" height="2560.5" viewBox="0 0 1440 2560.5">
  <rect id="bg-2" data-name="bg" width="1440" height="2560" fill="#f8f8f8"/>
  <g id="Layer_2" data-name="Layer 2" transform="translate(0 1114)" opacity="0.08">
    <g id="Layer_1" data-name="Layer 1">
      <g id="bg-3" data-name="bg">
        <path id="Path_1410" data-name="Path 1410" d="M1412.23,138.1h0a43.819,43.819,0,0,1-.28,5.2c-2.75,27.77-27.52,49.48-57.63,49.48H1241.06c-32,0-57.91-24.49-57.91-54.68v-.05c-.13-1.3-2.62-35.09,46.86-52.9,49.76-17.91,67.21-43.52,67.67-44.23a57.677,57.677,0,0,0,6.27,7.34c8.79,9.07,27.7,24.74,61.43,36.89C1415.47,103.2,1412.28,137.6,1412.23,138.1Z" fill="#20033c"/>
        <rect id="Rectangle_94" data-name="Rectangle 94" width="172.89" height="13.42" transform="translate(1211.24 183.2)" fill="#20033c"/>
        <path id="Path_1411" data-name="Path 1411" d="M1440,195.38H1155.62V416.29h51.95v13.07h180.24V416.29h52.04Z" fill="#20033c"/>
        <rect id="Rectangle_95" data-name="Rectangle 95" width="2.7" height="25.57" transform="translate(1296.34 19.87)" fill="#20033c"/>
        <path id="Path_1412" data-name="Path 1412" d="M1303.39,20.55a12.37,12.37,0,0,1-20.54-5A12.37,12.37,0,0,0,1298.36,0a12.37,12.37,0,0,1,5,20.55Z" fill="#20033c"/>
        <circle id="Ellipse_30" data-name="Ellipse 30" cx="4.27" cy="4.27" r="4.27" transform="translate(1293.42 35.26)" fill="#20033c"/>
        <rect id="Rectangle_96" data-name="Rectangle 96" width="58.56" height="209.77" transform="translate(1003.47 380.41) rotate(180)" fill="#20033c"/>
        <rect id="Rectangle_97" data-name="Rectangle 97" width="58.56" height="84.8" transform="translate(1003.47 172.32) rotate(180)" fill="#20033c"/>
        <rect id="Rectangle_98" data-name="Rectangle 98" width="71.24" height="12.18" transform="translate(1009.81 178.37) rotate(180)" fill="#20033c"/>
        <rect id="Rectangle_99" data-name="Rectangle 99" width="71.24" height="12.18" transform="translate(1009.81 316.68) rotate(180)" fill="#20033c"/>
        <rect id="Rectangle_100" data-name="Rectangle 100" width="71.24" height="12.18" transform="translate(1009.81 89.49) rotate(180)" fill="#20033c"/>
        <path id="Path_1413" data-name="Path 1413" d="M959.94,150.51h28.51V126.58a12.289,12.289,0,0,0-2.909-7.939L974.07,105.08l-11.29,13.58a12.289,12.289,0,0,0-2.84,7.86Z" fill="#20033c"/>
        <rect id="Rectangle_101" data-name="Rectangle 101" width="31.94" height="4.1" transform="translate(958.3 147.27)" fill="#20033c"/>
        <rect id="Rectangle_102" data-name="Rectangle 102" width="31.94" height="4.1" transform="translate(957.84 283.22)" fill="#20033c"/>
        <path id="Path_1414" data-name="Path 1414" d="M935.7,50.67v.79c0,14.83,9.1,26.83,20.31,26.83h39.75c6.75,0,12.74-4.33,16.43-11a32.81,32.81,0,0,0,3.9-15.8h0c0-.64.92-17.2-16.46-25.94a62.639,62.639,0,0,1-12.59-8.31c-7.95-6.8-11-13.12-11.16-13.38-.15.36-6.29,12.92-23.75,21.68C936.72,33.27,935.7,47.23,935.7,50.67Z" fill="#20033c"/>
        <path id="Path_1415" data-name="Path 1415" d="M1013,265.66v.89c0,18.27,15.67,33,35,33h68.44c19.34,0,35-14.78,35-33h0c.05-.61,1-13.1-12.69-23.7a56.341,56.341,0,0,0-15.64-8.28,113.54,113.54,0,0,1-25.43-12.64c-10.93-7.41-15.29-13.81-15.47-14.09-.28.43-10.83,15.92-40.89,26.73C1014.64,244.19,1013,261.51,1013,265.66Z" fill="#20033c"/>
        <rect id="Rectangle_103" data-name="Rectangle 103" width="104.48" height="8.11" transform="translate(1134.5 301.9) rotate(180)" fill="#20033c"/>
        <rect id="Rectangle_104" data-name="Rectangle 104" width="125.88" height="72.45" transform="translate(1145.2 372.71) rotate(180)" fill="#20033c"/>
        <rect id="Rectangle_105" data-name="Rectangle 105" width="257.88" height="45" transform="translate(1159 415.77) rotate(180)" fill="#20033c"/>
        <path id="Path_1416" data-name="Path 1416" d="M1439.86,623.25H.54V546.68c48.82-1.38,151.68-76.83,544.29-118.2h.06q43.83-4.58,92.55-8.61c137.43-11.23,347.42-28.76,518.16-43.09,156.43-13.16,279.86-23.58,284.24-24h0Z" fill="#20033c"/>
        <path id="Path_1417" data-name="Path 1417" d="M707.74,424.77.54,623.25,3.39,63.7S6,67.53,10.76,74.12v.06c23.43,32.84,97.93,133.94,152.71,171,65.81,44.45,120.93,78.24,120.93,78.24L387.05,344.2l46.78,9.47,97.82,49.8Z" fill="#20033c"/>
        <path id="Path_1418" data-name="Path 1418" d="M344.63,352.17l16.84,21.45L294,353.69s-30.66-13.79-142.52-76.6C44.9,217.19,13.47,86.33,10.76,74.18c23.43,32.84,97.93,133.94,152.71,171,65.81,44.45,120.93,78.24,120.93,78.24L387.05,344.2Z" fill="#3b136d" opacity="0.7"/>
        <path id="Path_1419" data-name="Path 1419" d="M744.09,438.75S833,425.22,869.73,425.22,1005,436.82,1005,436.82s-36.73,5.8-119.84,11.6S705.4,487.08,705.4,487.08L746,456.15Z" fill="#3b136d" opacity="0.7"/>
        <path id="Path_1420" data-name="Path 1420" d="M43.18,280.31s62.28,58.39,126.52,97.32S325.4,438,325.4,438L202.78,424.34l42.82,58.39S113.25,414.61,87.94,369.85l29.2-3.89Z" fill="#3b136d" opacity="0.7"/>
        <path id="Path_1421" data-name="Path 1421" d="M1079.7,595.32s27.78-29.32,91-34.72,108-26.23,108-26.23l40.89-17s-62.49,12.34-104.93,15.43S1092.81,573.72,1079.7,595.32Z" fill="#3b136d" opacity="0.7"/>
        <rect id="Rectangle_106" data-name="Rectangle 106" width="1439.66" height="851.18" transform="translate(0 595.32)" fill="#20033c"/>
      </g>
    </g>
  </g>
</svg>
