<svg id="verse" xmlns="http://www.w3.org/2000/svg" width="32" height="43.845" viewBox="0 0 32 43.845">
  <path id="Path_1811" data-name="Path 1811" d="M26.16,27.144v2.891h2.891a1.4,1.4,0,0,1,1,.413L32.1,32.495l2.046-2.046a1.4,1.4,0,0,1,1-.414h2.891V27.144a1.4,1.4,0,0,1,.413-1L40.495,24.1l-2.046-2.046a1.421,1.421,0,0,1-.414-1V18.16H35.144a1.4,1.4,0,0,1-1-.413L32.1,15.7l-2.046,2.046a1.4,1.4,0,0,1-1,.413H26.16v2.892a1.421,1.421,0,0,1-.413,1L23.7,24.1l2.046,2.046a1.4,1.4,0,0,1,.414,1Zm.21-3.567,1.306-1.306V20.419a.743.743,0,0,1,.743-.743h1.847l1.306-1.306a.743.743,0,0,1,1.051,0l1.306,1.306h1.848a.743.743,0,0,1,.743.743v1.847l1.306,1.306a.743.743,0,0,1,0,1.051l-1.306,1.306v1.847a.743.743,0,0,1-.743.743H33.929l-1.306,1.306a.743.743,0,0,1-1.051,0l-1.306-1.306H28.419a.743.743,0,0,1-.743-.743V25.929L26.37,24.623a.743.743,0,0,1,0-1.051Z" transform="translate(-14.262 -5.519)" fill="#451a73"/>
  <path id="Path_1812" data-name="Path 1812" d="M30.63,27.089V28.5h1.412a.743.743,0,0,1,.525.218l1,1,1-1a.743.743,0,0,1,.525-.218H36.5V27.089a.743.743,0,0,1,.218-.525l1-1-1-1a.743.743,0,0,1-.218-.525V22.63H35.089a.743.743,0,0,1-.525-.218l-1-1-1,1a.743.743,0,0,1-.525.218H30.63v1.412a.743.743,0,0,1-.218.525l-1,1,1,1A.743.743,0,0,1,30.63,27.089Z" transform="translate(-15.73 -6.987)" fill="#451a73"/>
  <path id="Path_1813" data-name="Path 1813" d="M41.469,42.167V40.555a1.946,1.946,0,0,0,.777-.354,2.663,2.663,0,0,0,.706-2.512V3.858A1.858,1.858,0,0,0,41.1,2H15.459a.737.737,0,0,0-.256.051.56.56,0,0,0-.061.027c-.02.01-.043.016-.063.027L11.9,4.011A1.867,1.867,0,0,0,11,5.6V41.386a4.5,4.5,0,0,0,4.459,4.459H41.1a1.858,1.858,0,0,0,.372-3.678Zm-24.536-.044a5.866,5.866,0,0,1-1.918-.045.764.764,0,0,1-.244-1.021c.23-.364.774-.392,1.153-.415H26.585l13.4.006v1.48H17.375c-.147,0-.294,0-.442-.007Zm2.4-22.542,2.1-2.1-.022-2.915a1.412,1.412,0,0,1,1.412-1.412h2.965l2.046-2.077a1.412,1.412,0,0,1,2,0l2.1,2.1,2.915-.022a1.412,1.412,0,0,1,1.412,1.412v2.965l2.077,2.046a1.412,1.412,0,0,1,0,2l-2.075,2.08v2.938A1.412,1.412,0,0,1,34.847,28H31.882L29.836,30.08a1.412,1.412,0,0,1-2,0l-2.1-2.1L22.823,28a1.412,1.412,0,0,1-1.412-1.412V23.625L19.334,21.58a1.412,1.412,0,0,1,0-2ZM41.1,44.359H15.459a3,3,0,0,1-2.973-2.973c0-1.974,1.685-2.923,3.444-2.973H32.686l8.824,0a.83.83,0,0,1-.186.615,1.122,1.122,0,0,1-.584.124H26.584l-9.277,0c-.308,0-.615-.014-.924-.011a7.368,7.368,0,0,1-.924-.14,2.139,2.139,0,0,0-1.428.508,2.452,2.452,0,0,0-.806,2.533,2.407,2.407,0,0,0,1.13,1.445,2.041,2.041,0,0,0,1.541.14,9.152,9.152,0,0,1,1.48-.01H41.1a.372.372,0,0,1,0,.743Z" transform="translate(-11 -2)" fill="#451a73"/>
</svg>
