<svg xmlns="http://www.w3.org/2000/svg" width="51.702" height="33.422" viewBox="0 0 51.702 33.422">
  <g id="Group_1414" data-name="Group 1414" transform="translate(-975.791 -1881.109)">
    <ellipse id="Ellipse_33" data-name="Ellipse 33" cx="7.96" cy="7.96" rx="7.96" ry="7.96" transform="translate(993.683 1889.864)" fill="#474545"/>
    <path id="Path_1432" data-name="Path 1432" d="M50.91,106.376c-6.118-7.394-15.38-14.51-25.058-14.51S6.908,98.988.794,106.376a3.461,3.461,0,0,0,0,4.41,51.815,51.815,0,0,0,9.064,8.577c10.84,7.891,21.124,7.909,31.988,0a51.814,51.814,0,0,0,9.064-8.577A3.462,3.462,0,0,0,50.91,106.376ZM25.852,97.438a11.144,11.144,0,1,1-11.144,11.144A11.156,11.156,0,0,1,25.852,97.438Z" transform="translate(975.791 1789.243)" fill="#474545"/>
  </g>
</svg>
