<svg id="Component_1_1" data-name="Component 1 – 1" xmlns="http://www.w3.org/2000/svg" width="150" height="150" viewBox="0 0 150 150">
  <circle id="Ellipse_37" data-name="Ellipse 37" cx="75" cy="75" r="75" fill="#fff" opacity="0.35"/>
  <g id="volume" transform="translate(37.089 35.461)">
    <path id="Path_1752" data-name="Path 1752" d="M37.812,63.143a3.432,3.432,0,0,1-5.623,2.642L13.425,50.237H3.432A3.431,3.431,0,0,1,0,46.806V33.132A3.433,3.433,0,0,1,3.432,29.7h9.994L32.189,14.151a3.434,3.434,0,0,1,5.623,2.643V63.143ZM51,57.78c-.084.006-.164.009-.247.009a3.428,3.428,0,0,1-2.426-1l-.459-.461a3.43,3.43,0,0,1-.331-4.471A19.957,19.957,0,0,0,47.01,27.4a3.429,3.429,0,0,1,.236-4.59l.458-.459a3.357,3.357,0,0,1,2.6-1A3.437,3.437,0,0,1,52.789,22.6a27.487,27.487,0,0,1,.716,33.809A3.434,3.434,0,0,1,51,57.78Zm14.19,10.607A3.435,3.435,0,0,1,62.712,69.6c-.047,0-.1,0-.144,0a3.429,3.429,0,0,1-2.427-1l-.451-.451a3.433,3.433,0,0,1-.2-4.636,36.576,36.576,0,0,0-.606-47.789,3.433,3.433,0,0,1,.138-4.7l.45-.451A3.341,3.341,0,0,1,62,9.567a3.432,3.432,0,0,1,2.466,1.151,44.068,44.068,0,0,1,.722,57.669Z" transform="translate(0 0)" fill="#fff"/>
  </g>
</svg>
